<svg xmlns="http://www.w3.org/2000/svg" width="39.727" height="543.698" viewBox="0 0 39.727 543.698"><g transform="translate(-0.33 -12.392)"><path d="M6.24,2.36a.946.946,0,0,1-.76-.08A.984.984,0,0,1,5,1.68a1.169,1.169,0,0,1,.12-.8.847.847,0,0,1,.6-.44A27.144,27.144,0,0,0,13.1-2.7a12.961,12.961,0,0,0,4.42-4.74l-9.8.8A.917.917,0,0,1,7-6.88a1.013,1.013,0,0,1-.36-.68.917.917,0,0,1,.24-.72,1.013,1.013,0,0,1,.68-.36L18.4-9.52a29.29,29.29,0,0,0,.72-2.84l-5.24.48a.917.917,0,0,1-.72-.24,1.013,1.013,0,0,1-.36-.68.914.914,0,0,1,.24-.74,1.045,1.045,0,0,1,.68-.34l5.64-.52q.08-.68.12-1.38t.04-1.46L13-16.68a.917.917,0,0,1-.72-.24,1.2,1.2,0,0,1-.4-.68.914.914,0,0,1,.24-.74,1.045,1.045,0,0,1,.68-.34l6.72-.6q0-1.36-.12-2.8a1.044,1.044,0,0,1,.28-.74,1.045,1.045,0,0,1,.68-.34.914.914,0,0,1,.74.24,1.082,1.082,0,0,1,.34.72l.12,2.76,5.6-.48a.813.813,0,0,1,.74.2,1.046,1.046,0,0,1,.34.68.854.854,0,0,1-.2.74.986.986,0,0,1-.68.38l-5.8.48q-.04.76-.06,1.46t-.1,1.38l4.12-.36a.95.95,0,0,1,.74.22,1.007,1.007,0,0,1,.34.7.952.952,0,0,1-.22.72.976.976,0,0,1-.7.36l-4.52.4q-.12.76-.28,1.46t-.36,1.38l12.6-1.04a1.013,1.013,0,0,1,.76.22.976.976,0,0,1,.36.7.952.952,0,0,1-.22.72.976.976,0,0,1-.7.36L19.8-7.64a14.231,14.231,0,0,1-4.9,6.12A28.006,28.006,0,0,1,6.24,2.36ZM32.2-18.96a1.067,1.067,0,0,1-.5-.58.95.95,0,0,1,.02-.74l2.32-5.12L10.08-23.24a.952.952,0,0,1-.72-.22A.942.942,0,0,1,9-24.12a1.013,1.013,0,0,1,.22-.76.942.942,0,0,1,.66-.36L35.56-27.6a1.068,1.068,0,0,1,.92.44.893.893,0,0,1,.12,1l-3.04,6.68a.9.9,0,0,1-.56.54A1.105,1.105,0,0,1,32.2-18.96ZM33.68,2.32,23.36-4.2a.946.946,0,0,1-.42-.6,1.009,1.009,0,0,1,.1-.76,1.058,1.058,0,0,1,.64-.46.917.917,0,0,1,.76.14L34.76.6a.978.978,0,0,1,.44.64,1.082,1.082,0,0,1-.12.76.978.978,0,0,1-.64.44A1.082,1.082,0,0,1,33.68,2.32ZM4.24-18.8a.919.919,0,0,1-.42-.66A.959.959,0,0,1,4-20.2a12.944,12.944,0,0,0,1.6-3.16A14.592,14.592,0,0,0,6.44-27a.976.976,0,0,1,.36-.7.832.832,0,0,1,.72-.18,1.007,1.007,0,0,1,.7.34.95.95,0,0,1,.22.74,16.5,16.5,0,0,1-.98,4.14,16.677,16.677,0,0,1-1.82,3.62,1.034,1.034,0,0,1-.66.4A.9.9,0,0,1,4.24-18.8Zm17.64-9.04a.856.856,0,0,1-.72.22,1.1,1.1,0,0,1-.68-.38l-2.92-3.84a.833.833,0,0,1-.2-.74,1.034,1.034,0,0,1,.4-.66.8.8,0,0,1,.72-.2,1.2,1.2,0,0,1,.68.4l2.92,3.8a.833.833,0,0,1,.2.74A1.035,1.035,0,0,1,21.88-27.84ZM10.96,56.36a1.051,1.051,0,0,1-.78.1A.919.919,0,0,1,9.56,56a1.009,1.009,0,0,1-.1-.76,1.058,1.058,0,0,1,.46-.64,33.439,33.439,0,0,0,4.6-3.32A50.437,50.437,0,0,0,19,46.98a38.607,38.607,0,0,0,3.56-4.42l-3.28.72a1.081,1.081,0,0,1-.84-.2,1.026,1.026,0,0,1-.36-.8V24.6a1.033,1.033,0,0,1,.24-.66.869.869,0,0,1,.6-.34l10.92-1.76a1.031,1.031,0,0,1,1.16,1V41.32a1.025,1.025,0,0,1-1,1,1.026,1.026,0,0,1-.72-.3.932.932,0,0,1-.32-.7V24.04l-8.88,1.44V41.04l4.32-.96a.886.886,0,0,1,1,.36,1.058,1.058,0,0,1,.12,1.08,25.448,25.448,0,0,1-2.58,3.9,52.693,52.693,0,0,1-3.62,4.12,48.488,48.488,0,0,1-4.16,3.82A37.68,37.68,0,0,1,10.96,56.36ZM3.64,49.32a.986.986,0,0,1-1.4-.28.848.848,0,0,1-.14-.74,1.119,1.119,0,0,1,.42-.66l6.08-4V36.32L4.56,37.36a1.148,1.148,0,0,1-.78-.12.839.839,0,0,1-.46-.6,1.169,1.169,0,0,1,.12-.8.847.847,0,0,1,.6-.44L8.6,34.2V29.72A.941.941,0,0,1,8.9,29a.994.994,0,0,1,.7-.28,1.044,1.044,0,0,1,.74.28.941.941,0,0,1,.3.72v3.96l2.44-.6a.946.946,0,0,1,.76.08.868.868,0,0,1,.44.64.946.946,0,0,1-.08.76.994.994,0,0,1-.64.48l-2.92.76v6.48L14.08,40a1.082,1.082,0,0,1,.76-.12,1.024,1.024,0,0,1,.64.4,1.022,1.022,0,0,1-.28,1.4ZM27.32,55a5.575,5.575,0,0,1-2.76-5.04V45.84a.941.941,0,0,1,.3-.72.994.994,0,0,1,.7-.28.959.959,0,0,1,1,1v4.12a3.644,3.644,0,0,0,1.84,3.32,6.742,6.742,0,0,0,2.82.96,13.188,13.188,0,0,0,3.32-.02,13.37,13.37,0,0,0,3.14-.78L36.2,48a.946.946,0,0,1,.08-.76,1.025,1.025,0,0,1,1.38-.4,1.013,1.013,0,0,1,.46.64l1.76,6.28a.965.965,0,0,1-.08.66,1.03,1.03,0,0,1-.48.5,15.647,15.647,0,0,1-8.16,1.36A9.1,9.1,0,0,1,27.32,55ZM4.76,28.56A1.2,1.2,0,0,1,4,28.38a.911.911,0,0,1-.44-.62,1.017,1.017,0,0,1,.8-1.2L13,24.84a.965.965,0,0,1,.74.14.926.926,0,0,1,.42.62,1.026,1.026,0,0,1-.14.76.911.911,0,0,1-.62.44Zm17.76,7.76a1.063,1.063,0,0,1-.74-.2,1,1,0,0,1-.42-.64,1.063,1.063,0,0,1,.2-.74,1,1,0,0,1,.64-.42l4.08-.72a.992.992,0,0,1,.78.16,1.019,1.019,0,0,1,.42.68.921.921,0,0,1-.16.74,1.019,1.019,0,0,1-.68.42Zm0-5.04a1.063,1.063,0,0,1-.74-.2,1,1,0,0,1-.42-.64,1.063,1.063,0,0,1,.2-.74,1,1,0,0,1,.64-.42l4.08-.72a.992.992,0,0,1,.78.16,1.019,1.019,0,0,1,.42.68.921.921,0,0,1-.16.74,1.019,1.019,0,0,1-.68.42Zm8.12,76a16.984,16.984,0,0,1-5.96-.38,10.681,10.681,0,0,1-4.48-2.3,10.507,10.507,0,0,1-3.16-8.12,16.655,16.655,0,0,1,.62-4.5A22.519,22.519,0,0,1,21.6,84.2q-2.6.8-5.32,1.5t-5.26,1.2q-2.54.5-4.7.74a.917.917,0,0,1-.72-.24,1.041,1.041,0,0,1-.14-1.44.942.942,0,0,1,.66-.36,57.392,57.392,0,0,0,5.96-.98q3.28-.7,6.66-1.68t6.36-2.1a43.85,43.85,0,0,0,5.02-2.2.946.946,0,0,1,.76-.08.984.984,0,0,1,.6.48.946.946,0,0,1,.08.76.984.984,0,0,1-.48.6q-1.08.56-2.42,1.16T25.8,82.72a8.248,8.248,0,0,0-2.32,2.04,18.233,18.233,0,0,0-2.2,3.4,23.011,23.011,0,0,0-1.62,4.12,15.191,15.191,0,0,0-.62,4.2,8.445,8.445,0,0,0,2.52,6.6q3,2.76,8.88,2.2a1.013,1.013,0,0,1,.76.22.976.976,0,0,1,.36.7.952.952,0,0,1-.22.72A.976.976,0,0,1,30.64,107.28ZM37.8,91.36a.931.931,0,0,1-.62.24.738.738,0,0,1-.58-.28l-5.72-6a.751.751,0,0,1-.22-.6.888.888,0,0,1,.26-.6.931.931,0,0,1,.62-.24.738.738,0,0,1,.58.28l5.72,5.96a.876.876,0,0,1,.22.64A.888.888,0,0,1,37.8,91.36ZM34.44,94.4a.751.751,0,0,1-.6.22.888.888,0,0,1-.6-.26l-5.68-6a.814.814,0,0,1-.24-.6.758.758,0,0,1,.28-.6.814.814,0,0,1,.6-.24.758.758,0,0,1,.6.28l5.68,5.96A.808.808,0,0,1,34.44,94.4ZM18.88,152.56a1.082,1.082,0,0,1-.76.12.978.978,0,0,1-.64-.44,1.051,1.051,0,0,1-.1-.78.955.955,0,0,1,.42-.62,10.39,10.39,0,0,1,3.66-1.38,13.909,13.909,0,0,1,4.14-.14l-3.24-5.52q-3.56,1.44-7.2,2.56t-6.44,1.68a1.046,1.046,0,0,1-1.2-.8.921.921,0,0,1,.16-.74,1,1,0,0,1,.64-.42q2.64-.56,6.12-1.62t6.88-2.42l-2.2-3.76q-2.32.8-4.72,1.44t-4.44,1.04a1.12,1.12,0,0,1-.74-.18.926.926,0,0,1-.42-.62,1.2,1.2,0,0,1,.18-.78.926.926,0,0,1,.62-.42q1.88-.32,4.1-.92t4.38-1.32l-2.48-4.24a1.051,1.051,0,0,1-.1-.78.919.919,0,0,1,.46-.62,1.009,1.009,0,0,1,.76-.1.912.912,0,0,1,.6.46l2.68,4.6q1.56-.6,2.86-1.22A17.492,17.492,0,0,0,25,133.44a1.014,1.014,0,0,1,.78-.16.857.857,0,0,1,.62.44.82.82,0,0,1,0,.86l-.24.54a16.976,16.976,0,0,1-2.22,1.24q-1.34.64-2.9,1.24l2.16,3.68q2.24-.96,4.24-1.94a27.275,27.275,0,0,0,3.4-1.94.986.986,0,0,1,1.4.28.8.8,0,0,1-.02.86l-.26.54a31.023,31.023,0,0,1-3.48,2q-2,1-4.24,1.96l4.28,7.28a1.028,1.028,0,0,1-.08,1.16.989.989,0,0,1-1.12.32,10.388,10.388,0,0,0-4.42-.5A9.161,9.161,0,0,0,18.88,152.56Zm8.72,10.08a13.883,13.883,0,0,1-5.62-.1,8.946,8.946,0,0,1-4.26-2.26,6.2,6.2,0,0,1-1.92-5.6,1.019,1.019,0,0,1,.42-.68.921.921,0,0,1,.74-.16.763.763,0,0,1,.64.58l.2.54a4.36,4.36,0,0,0,1.36,3.88,7,7,0,0,0,3.44,1.72,12.26,12.26,0,0,0,4.64.08.992.992,0,0,1,.78.16.858.858,0,0,1,.38.64,1.046,1.046,0,0,1-.8,1.2Zm-7.12,53.68a8.935,8.935,0,0,1-3.7-.34,4.5,4.5,0,0,1-2.42-1.74,3.592,3.592,0,0,1-.64-1.92,3.825,3.825,0,0,1,.48-2,4.619,4.619,0,0,1,2.02-1.92,6.335,6.335,0,0,1,3.06-.64,5.563,5.563,0,0,1,2,.4,5.108,5.108,0,0,1,1.98,1.48,8.308,8.308,0,0,1,1.54,3.16,7.821,7.821,0,0,0,3.24-4,7.456,7.456,0,0,0,.26-4,6.4,6.4,0,0,0-1.82-3.36,7.153,7.153,0,0,0-3.78-2.02,9.451,9.451,0,0,0-4.5.26,11.788,11.788,0,0,0-4.4,2.48.78.78,0,0,1-.7.22,1.2,1.2,0,0,1-.7-.34.917.917,0,0,1-.24-.72,1.086,1.086,0,0,1,.32-.68l5.8-5.28q2.24-2,4.3-3.88T26.36,188L8.8,190.48a1,1,0,0,1-.72-.2,1.024,1.024,0,0,1-.4-.64,1.132,1.132,0,0,1,.2-.78.858.858,0,0,1,.64-.38l20.68-2.92a1.009,1.009,0,0,1,.84,1.72l-1.02.96q-1.02.96-3.54,3.26t-7.04,6.38a12.705,12.705,0,0,1,5.12-.08,8.022,8.022,0,0,1,4.36,2.2,8.423,8.423,0,0,1,2.36,4.34,9.013,9.013,0,0,1-.36,5.1,9.429,9.429,0,0,1-3.46,4.7A12.393,12.393,0,0,1,20.48,216.32Zm-.2-2.04a9.183,9.183,0,0,0,2.68-.6,6.669,6.669,0,0,0-1.26-2.76,3.144,3.144,0,0,0-1.42-.98,4.43,4.43,0,0,0-1.04-.18A3.366,3.366,0,0,0,16,211.28a1.7,1.7,0,0,0,.04,1.84,2.649,2.649,0,0,0,1.6,1.02A7.3,7.3,0,0,0,20.28,214.28ZM21.04,249a.953.953,0,0,1-1.08-.72l-2.36-8.6a.963.963,0,0,1,.16-.84.924.924,0,0,1,.72-.44l12.72-1.28a1.327,1.327,0,0,1,.84.32,1.025,1.025,0,0,1,.24.88L30.8,247.2a.952.952,0,0,1-.88.84ZM3.2,265.28a1.015,1.015,0,0,1-.78.16A.857.857,0,0,1,1.8,265a.986.986,0,0,1,.28-1.4l6.24-4.04v-8.52l-4.84,1.04a1.026,1.026,0,0,1-.76-.14.911.911,0,0,1-.44-.62,1.026,1.026,0,0,1,.14-.76.911.911,0,0,1,.62-.44l5.28-1.16v-7.68a.941.941,0,0,1,.3-.72.994.994,0,0,1,.7-.28.959.959,0,0,1,1,1v7.24l3.16-.72a1.026,1.026,0,0,1,.76.14.911.911,0,0,1,.44.62,1.026,1.026,0,0,1-.14.76.911.911,0,0,1-.62.44l-3.6.8v7.68l3.68-2.4a1,1,0,0,1,.74-.12,1.034,1.034,0,0,1,.66.4,1.125,1.125,0,0,1,.12.78.857.857,0,0,1-.44.62Zm11.84-3.72a1.219,1.219,0,0,1-.78.06.892.892,0,0,1-.58-.5,1.14,1.14,0,0,1-.06-.76.9.9,0,0,1,.5-.6,31.993,31.993,0,0,0,4.82-3.02,27.385,27.385,0,0,0,3.94-3.58l-7.84.8a.917.917,0,0,1-.72-.24,1.2,1.2,0,0,1-.4-.68.914.914,0,0,1,.24-.74,1.046,1.046,0,0,1,.68-.34l22.68-2.32a.863.863,0,0,1,.76.2,1.019,1.019,0,0,1,.14,1.42.951.951,0,0,1-.7.38l-12,1.24a26.013,26.013,0,0,1-4.58,4.7A34.515,34.515,0,0,1,15.04,261.56ZM29.36,273.2l-4.96-3a.912.912,0,0,1-.46-.6,1.009,1.009,0,0,1,.1-.76,1.058,1.058,0,0,1,.64-.46,1.009,1.009,0,0,1,.76.1l4.12,2.44a24.071,24.071,0,0,0,1.36-2.9q.68-1.7,1.28-3.62t1.04-3.78a34.209,34.209,0,0,0,.64-3.38l-8.16.6a.887.887,0,0,1-.72-.26,1.087,1.087,0,0,1-.36-.7.917.917,0,0,1,.24-.72,1.013,1.013,0,0,1,.68-.36l9.36-.68a1.027,1.027,0,0,1,.76.28,1.281,1.281,0,0,1,.32.8,29.084,29.084,0,0,1-.62,4.08q-.5,2.32-1.24,4.72a43.733,43.733,0,0,1-1.64,4.48,21.867,21.867,0,0,1-1.78,3.4.875.875,0,0,1-.6.4A1.233,1.233,0,0,1,29.36,273.2Zm-7.68-26.28,7.28-.8,1.12-6.84-10.2,1Zm-5.92,24.72a1.129,1.129,0,0,1-.78.04.837.837,0,0,1-.54-.52,1.129,1.129,0,0,1-.04-.78.837.837,0,0,1,.52-.54,29.686,29.686,0,0,0,3.22-1.76q1.74-1.08,3.44-2.38a34.976,34.976,0,0,0,3.14-2.7,17.066,17.066,0,0,0,2.32-2.72.986.986,0,0,1,1.4-.28,1.024,1.024,0,0,1,.4.64,1.082,1.082,0,0,1-.12.76,19.833,19.833,0,0,1-2.52,2.98,33.938,33.938,0,0,1-3.34,2.88q-1.82,1.38-3.66,2.52A29.9,29.9,0,0,1,15.76,271.64Zm-1-4.76a1.129,1.129,0,0,1-.78.04.963.963,0,0,1-.58-.52,1.063,1.063,0,0,1-.04-.76.962.962,0,0,1,.52-.6q1.52-.76,3.24-1.78a33.182,33.182,0,0,0,3.26-2.2,14.377,14.377,0,0,0,2.5-2.38,1.029,1.029,0,0,1,.7-.36.944.944,0,0,1,.74.24,1.029,1.029,0,0,1,.36.7.945.945,0,0,1-.24.74,18.542,18.542,0,0,1-2.86,2.66,37.64,37.64,0,0,1-3.5,2.38Q16.28,266.12,14.76,266.88Zm8.92-22.6a1.016,1.016,0,0,1-.74-.22.92.92,0,0,1-.38-.66,1.013,1.013,0,0,1,.22-.76.942.942,0,0,1,.66-.36l3.32-.4a.9.9,0,0,1,.76.18.976.976,0,0,1,.36.7.885.885,0,0,1-.18.74.951.951,0,0,1-.7.38Zm7,84.04a1.025,1.025,0,0,1-1-1V306.4l-3.92.6a.952.952,0,0,1-.72-.22,1.107,1.107,0,0,1-.4-.66,1.063,1.063,0,0,1,.2-.74.858.858,0,0,1,.64-.38l12-1.8a.992.992,0,0,1,.78.16.889.889,0,0,1,.38.68.866.866,0,0,1-.16.72,1.047,1.047,0,0,1-.68.4l-6.12.92v21.24a.994.994,0,0,1-.28.7A.941.941,0,0,1,30.68,328.32Zm-19.92-17.6a1.082,1.082,0,0,1-.76-.12.984.984,0,0,1-.48-.6,1.1,1.1,0,0,1,.12-.78,1,1,0,0,1,.6-.46l5.08-1.36.84-5.48L7,304.2a.952.952,0,0,1-.78-.1.9.9,0,0,1-.46-.62,1.1,1.1,0,0,1,.12-.78,1,1,0,0,1,.6-.46l10.64-2.64a.941.941,0,0,1,.92.24.859.859,0,0,1,.32.88l-1.16,7.64a.949.949,0,0,1-.72.84Zm5.04,9.92a.885.885,0,0,1-.74.22,1.111,1.111,0,0,1-.7-.38.959.959,0,0,1-.18-.74,1.111,1.111,0,0,1,.38-.7,18.009,18.009,0,0,0,4.32-4.88A19.975,19.975,0,0,0,21.32,308a20.713,20.713,0,0,0,.32-6.8,1.013,1.013,0,0,1,.22-.76.942.942,0,0,1,.66-.36.9.9,0,0,1,.76.18.976.976,0,0,1,.36.7,22.4,22.4,0,0,1-.38,7.5,22.576,22.576,0,0,1-2.72,6.8A19.932,19.932,0,0,1,15.8,320.64ZM.76,324.2a1.015,1.015,0,0,1,0-1.4,15.728,15.728,0,0,0,2.88-4.4,26.276,26.276,0,0,0,1.82-5.74,25.054,25.054,0,0,0,.46-6.22.833.833,0,0,1,.26-.7,1.126,1.126,0,0,1,.7-.34,1.036,1.036,0,0,1,.7.26,1.007,1.007,0,0,1,.34.7,28.1,28.1,0,0,1-.5,6.76,27.5,27.5,0,0,1-2,6.26A17,17,0,0,1,2.2,324.2a.95.95,0,0,1-.7.28A1.09,1.09,0,0,1,.76,324.2Zm22.52-25.96a1,1,0,0,1-.76-.06.993.993,0,0,1-.46-1.36.9.9,0,0,1,.58-.5q.6-.2,1.74-.64t2.52-1.08a28.663,28.663,0,0,0,2.74-1.46,12.083,12.083,0,0,0,2.32-1.78,1.016,1.016,0,0,1,.74-.32,1.1,1.1,0,0,1,1.02,1.02,1.016,1.016,0,0,1-.32.74,13.564,13.564,0,0,1-2.56,1.98,30.828,30.828,0,0,1-2.98,1.6q-1.5.7-2.74,1.18T23.28,298.24Zm-9.36-1.04-4.36-3.6a1.029,1.029,0,0,1-.36-.7.9.9,0,0,1,.2-.7,1.111,1.111,0,0,1,.7-.38.885.885,0,0,1,.74.22l4.4,3.6a1.029,1.029,0,0,1,.36.7.945.945,0,0,1-.24.74,1.029,1.029,0,0,1-.7.36A.944.944,0,0,1,13.92,297.2ZM5.56,378.04a1.1,1.1,0,0,1-.38-.68.856.856,0,0,1,.22-.72,45.414,45.414,0,0,0,4.78-7.8,64.624,64.624,0,0,0,3.66-9.16q-1.6.32-3.26.74t-3.1.78a1.148,1.148,0,0,1-.78-.12.839.839,0,0,1-.46-.6,1.1,1.1,0,0,1,.12-.78,1,1,0,0,1,.6-.46q1.76-.44,3.7-.92t3.78-.8a54.006,54.006,0,0,0,1.68-8.92.976.976,0,0,1,.36-.7.952.952,0,0,1,.72-.22.976.976,0,0,1,.7.36,1.013,1.013,0,0,1,.22.76q-.16,2-.54,4.1t-.94,4.22q.72-.08,1.38-.14t1.26-.06a4.667,4.667,0,0,1,3.44,1.16,4.678,4.678,0,0,1,1.08,3.64,44.651,44.651,0,0,1-.9,7.42,24.419,24.419,0,0,1-1.9,5.82q-1.36,2.76-3.56,2.76-2.56,0-4.76-4.36a1.063,1.063,0,0,1-.04-.76.838.838,0,0,1,.52-.56.933.933,0,0,1,.78-.06.913.913,0,0,1,.58.5,10.468,10.468,0,0,0,1.5,2.36,2.1,2.1,0,0,0,1.42.88q.96,0,1.76-1.64a21.712,21.712,0,0,0,1.76-5.46,44.817,44.817,0,0,0,.84-6.98,3.15,3.15,0,0,0-.52-2.16,2.8,2.8,0,0,0-2-.56,12.482,12.482,0,0,0-1.5.1q-.82.1-1.74.26a63.541,63.541,0,0,1-3.88,10.04,49.186,49.186,0,0,1-5.2,8.52,1.025,1.025,0,0,1-1.4.2Zm30.96-10.48a.942.942,0,0,1-.76,0,1.143,1.143,0,0,1-.56-.56,15.305,15.305,0,0,0-1.9-3.32,26.648,26.648,0,0,0-2.9-3.32A23.025,23.025,0,0,0,27,357.6a1.022,1.022,0,0,1-.28-1.4,1.035,1.035,0,0,1,.66-.4,1,1,0,0,1,.74.12,25.684,25.684,0,0,1,3.7,3.02,28.594,28.594,0,0,1,3.16,3.64,17.721,17.721,0,0,1,2.1,3.66.942.942,0,0,1,0,.76A1.143,1.143,0,0,1,36.52,367.56Zm1.16-15.84-7-4.4a.893.893,0,0,1-.36-.54.826.826,0,0,1,.08-.62.852.852,0,0,1,.54-.4.732.732,0,0,1,.62.12l7,4.36a.852.852,0,0,1,.4.54.841.841,0,0,1-.12.66.743.743,0,0,1-.5.36A.948.948,0,0,1,37.68,351.72Zm-2.48,3.76-7-4.4a.893.893,0,0,1-.36-.54.826.826,0,0,1,.08-.62.852.852,0,0,1,.54-.4.732.732,0,0,1,.62.12l7,4.4a.721.721,0,0,1,.4.5.841.841,0,0,1-.12.66.743.743,0,0,1-.5.36A.948.948,0,0,1,35.2,355.48ZM24.04,433.24a1.025,1.025,0,0,1-.76-.14.911.911,0,0,1-.44-.62,1.042,1.042,0,0,1,.14-.78.926.926,0,0,1,.62-.42,12.8,12.8,0,0,0,4.94-2.26,9.331,9.331,0,0,0,3.06-3.78,6.215,6.215,0,0,0-3.34-8.36,12.757,12.757,0,0,0-4.5-1.04,33.922,33.922,0,0,1-2.3,4.36,40.915,40.915,0,0,1-2.74,3.88q.24.76.5,1.42t.5,1.22a.9.9,0,0,1,.04.78,1.128,1.128,0,0,1-.56.58.95.95,0,0,1-.74.02,1.042,1.042,0,0,1-.58-.54q-.16-.4-.32-.82t-.36-.86a30.093,30.093,0,0,1-4.76,4.44,5.161,5.161,0,0,1-2.5,1,3.169,3.169,0,0,1-2.18-.52,3.282,3.282,0,0,1-1.38-2.18,7.15,7.15,0,0,1,.22-3.34,14.478,14.478,0,0,1,3-5.52,16.24,16.24,0,0,1,5.64-4.28v-.28q-.04-1.4.04-3.04t.24-3.36l-9.16,1.4a1,1,0,0,1-.72-.2,1.024,1.024,0,0,1-.4-.64,1.132,1.132,0,0,1,.2-.78.858.858,0,0,1,.64-.38l9.64-1.44q.12-.84.3-1.88t.36-2q.18-.96.32-1.6l.14-.64a.984.984,0,0,1,.48-.6.946.946,0,0,1,.76-.08.984.984,0,0,1,.6.48.946.946,0,0,1,.08.76q-.28,1.12-.52,2.48t-.44,2.76l13.8-2.08a.992.992,0,0,1,.78.16.889.889,0,0,1,.38.68.921.921,0,0,1-.16.74,1.019,1.019,0,0,1-.68.42l-14.36,2.16q-.16,1.6-.22,3.2t-.06,2.96a16.712,16.712,0,0,1,2.5-.62,19.33,19.33,0,0,1,2.66-.26,7.957,7.957,0,0,0,.34-.88q.14-.44.3-.84a.971.971,0,0,1,.5-.6.891.891,0,0,1,.78-.04.912.912,0,0,1,.58.48,1,1,0,0,1,.06.76,6.015,6.015,0,0,1-.2.58q-.12.3-.24.62a13.761,13.761,0,0,1,4.98,1.38,8.173,8.173,0,0,1,4.58,6.7,8.575,8.575,0,0,1-.68,4.04,11.27,11.27,0,0,1-3.6,4.6A14.273,14.273,0,0,1,24.04,433.24ZM8.88,429.16q.88.6,2.36-.48a23.289,23.289,0,0,0,2.6-2.2q1.32-1.28,2.64-2.8a24.252,24.252,0,0,1-.68-2.78q-.28-1.5-.44-3.18a14.741,14.741,0,0,0-4.42,3.62,12.372,12.372,0,0,0-2.42,4.46,4.707,4.707,0,0,0-.2,2.26A1.963,1.963,0,0,0,8.88,429.16Zm9.16-7.48q.96-1.32,1.86-2.78t1.66-3.02a14.551,14.551,0,0,0-2.18.32,17.457,17.457,0,0,0-2.06.6q.08,1.36.26,2.56T18.04,421.68Zm2.44,64.64a8.935,8.935,0,0,1-3.7-.34,4.5,4.5,0,0,1-2.42-1.74,3.592,3.592,0,0,1-.64-1.92,3.825,3.825,0,0,1,.48-2,4.619,4.619,0,0,1,2.02-1.92,6.334,6.334,0,0,1,3.06-.64,5.563,5.563,0,0,1,2,.4,5.108,5.108,0,0,1,1.98,1.48,8.308,8.308,0,0,1,1.54,3.16,7.821,7.821,0,0,0,3.24-4,7.456,7.456,0,0,0,.26-4,6.4,6.4,0,0,0-1.82-3.36,7.153,7.153,0,0,0-3.78-2.02,9.451,9.451,0,0,0-4.5.26,11.788,11.788,0,0,0-4.4,2.48.78.78,0,0,1-.7.22,1.2,1.2,0,0,1-.7-.34.917.917,0,0,1-.24-.72,1.086,1.086,0,0,1,.32-.68l5.8-5.28q2.24-2,4.3-3.88T26.36,458L8.8,460.48a1,1,0,0,1-.72-.2,1.024,1.024,0,0,1-.4-.64,1.132,1.132,0,0,1,.2-.78.858.858,0,0,1,.64-.38l20.68-2.92a1.009,1.009,0,0,1,.84,1.72l-1.02.96q-1.02.96-3.54,3.26t-7.04,6.38a12.706,12.706,0,0,1,5.12-.08,8.022,8.022,0,0,1,4.36,2.2,8.423,8.423,0,0,1,2.36,4.34,9.013,9.013,0,0,1-.36,5.1,9.429,9.429,0,0,1-3.46,4.7A12.393,12.393,0,0,1,20.48,486.32Zm-.2-2.04a9.182,9.182,0,0,0,2.68-.6,6.669,6.669,0,0,0-1.26-2.76,3.144,3.144,0,0,0-1.42-.98,4.431,4.431,0,0,0-1.04-.18A3.366,3.366,0,0,0,16,481.28a1.7,1.7,0,0,0,.04,1.84,2.649,2.649,0,0,0,1.6,1.02A7.3,7.3,0,0,0,20.28,484.28Z" transform="translate(0 46)" fill="#323836" stroke="#303634" stroke-width="0.3"/><path d="M7.566,1.521a4.572,4.572,0,0,1-2.4-.643A4.929,4.929,0,0,1,3.451-.839a4.572,4.572,0,0,1-.643-2.4,4.572,4.572,0,0,1,.643-2.4A4.929,4.929,0,0,1,5.168-7.352,4.572,4.572,0,0,1,7.566-8a4.572,4.572,0,0,1,2.4.644,4.929,4.929,0,0,1,1.716,1.716,4.572,4.572,0,0,1,.643,2.4,4.572,4.572,0,0,1-.643,2.4A4.929,4.929,0,0,1,9.965.878,4.572,4.572,0,0,1,7.566,1.521Zm0-1.56A3.018,3.018,0,0,0,9.809-.975a3.115,3.115,0,0,0,.917-2.262A3.05,3.05,0,0,0,9.809-5.48,3.05,3.05,0,0,0,7.566-6.4,3.115,3.115,0,0,0,5.3-5.48a3.018,3.018,0,0,0-.936,2.243A3.082,3.082,0,0,0,5.3-.975,3.082,3.082,0,0,0,7.566-.039Z" transform="translate(22.712 554.419)" fill="#323836" stroke="#303634" stroke-width="0.3"/></g></svg>