<svg xmlns="http://www.w3.org/2000/svg" width="37.671" height="300.825" viewBox="0 0 37.671 300.825"><path d="M19.12-17.16a1.051,1.051,0,0,1-.78.1.919.919,0,0,1-.62-.46,1,1,0,0,1-.12-.74.857.857,0,0,1,.44-.62l7.16-4.44a28.783,28.783,0,0,0-4.1-1.84Q18.8-26,16.54-26.6a29.065,29.065,0,0,0-3.94-.8,1.107,1.107,0,0,1-.66-.4.952.952,0,0,1-.22-.72,1.128,1.128,0,0,1,.4-.7.832.832,0,0,1,.72-.18,33.078,33.078,0,0,1,3.54.68q1.98.48,4.06,1.2t3.98,1.58a24.188,24.188,0,0,1,3.3,1.78.834.834,0,0,1,.44.84,1,1,0,0,1-.48.88ZM30.6-2.84a23.554,23.554,0,0,1-8.1,1.62,19.811,19.811,0,0,1-7.46-1.26A14.079,14.079,0,0,1,9.32-6.44a.945.945,0,0,1-.24-.74,1.106,1.106,0,0,1,.32-.7.945.945,0,0,1,.74-.24,1.029,1.029,0,0,1,.7.36,12.643,12.643,0,0,0,5.08,3.48,17.181,17.181,0,0,0,6.66,1.06,22.164,22.164,0,0,0,7.3-1.5.89.89,0,0,1,.76.02,1.062,1.062,0,0,1,.52.58.942.942,0,0,1,0,.76A.98.98,0,0,1,30.6-2.84ZM23.16,53.64a.99.99,0,0,1-.78,0,.972.972,0,0,1-.54-.56.937.937,0,0,1,.02-.78,1.066,1.066,0,0,1,.54-.54,16.183,16.183,0,0,0,7.34-5.28,12.785,12.785,0,0,0,2.58-7.88,11.153,11.153,0,0,0-3.2-8.24,11.268,11.268,0,0,0-3.76-2.48,12.156,12.156,0,0,0-10.28.56,13.563,13.563,0,0,0-4.52,3.92A13.188,13.188,0,0,0,8.16,38a8.859,8.859,0,0,0,.3,4.24,10.2,10.2,0,0,0,2,3.54,11.949,11.949,0,0,0,2.98,2.5q1.16-2.08,2.3-4.64a47.888,47.888,0,0,0,1.96-5.18,19.891,19.891,0,0,0,.94-4.82.976.976,0,0,1,.36-.7,1.112,1.112,0,0,1,.72-.26,1.007,1.007,0,0,1,.7.34.95.95,0,0,1,.22.74,22.072,22.072,0,0,1-.68,4.1,35.729,35.729,0,0,1-1.44,4.38q-.88,2.2-1.88,4.22t-1.96,3.66a.861.861,0,0,1-.54.44,1.013,1.013,0,0,1-.74-.04A13.03,13.03,0,0,1,9.42,47.6a12.9,12.9,0,0,1-2.76-4.48,10.639,10.639,0,0,1-.46-5.48,14.47,14.47,0,0,1,1.78-5.02,15.539,15.539,0,0,1,3.32-4,15.382,15.382,0,0,1,4.42-2.66A13.859,13.859,0,0,1,20.84,25a14.092,14.092,0,0,1,5.3,1.02A13,13,0,0,1,34.36,38.6a14.753,14.753,0,0,1-2.92,9.02A18.163,18.163,0,0,1,23.16,53.64ZM9.28,110.48a1.125,1.125,0,0,1-.7-.34.959.959,0,0,1-.3-.7l.36-15.12a5.993,5.993,0,0,0-.2-2.18,1.381,1.381,0,0,0-.68-.74Q6.52,92.76,5.28,94T2.96,96.16a.917.917,0,0,1-.72.24,1.167,1.167,0,0,1-.72-.36.857.857,0,0,1-.22-.72,1.185,1.185,0,0,1,.34-.68q1.52-1.32,3.24-3.12t3.26-3.76a25.594,25.594,0,0,0,2.46-3.68.984.984,0,0,1,.6-.48,1.055,1.055,0,0,1,.8.08.851.851,0,0,1,.48.58.988.988,0,0,1-.08.78,25.671,25.671,0,0,1-1.5,2.38q-.86,1.22-1.82,2.42a3.238,3.238,0,0,1,1.28,1.78,9.16,9.16,0,0,1,.28,2.74l-.32,15.12a1.172,1.172,0,0,1-.32.7A.941.941,0,0,1,9.28,110.48Zm4.48-5.36a.99.99,0,0,1-.78,0,.972.972,0,0,1-.54-.56.99.99,0,0,1,0-.78.972.972,0,0,1,.56-.54l5.28-2.2v-4.2l-3.44.72a1.025,1.025,0,0,1-.76-.14.911.911,0,0,1-.44-.62,1.042,1.042,0,0,1,.14-.78.926.926,0,0,1,.62-.42l3.88-.84v-3.8a.941.941,0,0,1,.3-.72.994.994,0,0,1,.7-.28.959.959,0,0,1,1,1v3.4l2.68-.56a1.082,1.082,0,0,1,.76.12.764.764,0,0,1,.4.64,1.082,1.082,0,0,1-.12.76.868.868,0,0,1-.64.44l-3.08.64v3.84l3.84-1.6a.85.85,0,0,1,.78-.02,1.066,1.066,0,0,1,.54.54.85.85,0,0,1,.02.78,1.066,1.066,0,0,1-.54.54Zm-.52-14.84a1.025,1.025,0,0,1-.76-.14.911.911,0,0,1-.44-.62.9.9,0,0,1,.1-.76.911.911,0,0,1,.62-.44L18.28,87V83.28l-3.4.6a1.063,1.063,0,0,1-.74-.2,1.023,1.023,0,0,1-.26-1.42.858.858,0,0,1,.64-.38l3.76-.64V76.52a1.025,1.025,0,0,1,1-1,.941.941,0,0,1,.72.3.994.994,0,0,1,.28.7v4.36l2.8-.44a1.017,1.017,0,0,1,1.2.8.921.921,0,0,1-.16.74,1.019,1.019,0,0,1-.68.42l-3.16.56v3.56l3.36-.84a1.042,1.042,0,0,1,.78.14,1.085,1.085,0,0,1,.46.62,1.026,1.026,0,0,1-.14.76.911.911,0,0,1-.62.44ZM31,110.76l-7.76-3a1.062,1.062,0,0,1-.58-.52.89.89,0,0,1-.02-.76,1.049,1.049,0,0,1,.54-.58.937.937,0,0,1,.78-.02l6.4,2.48V91.48a.941.941,0,0,1,.3-.72.994.994,0,0,1,.7-.28,1.044,1.044,0,0,1,.74.28.941.941,0,0,1,.3.72v18.36a.894.894,0,0,1-.44.8A.956.956,0,0,1,31,110.76ZM26.32,89.88a1.063,1.063,0,0,1-.74-.2,1,1,0,0,1-.42-.64,1.063,1.063,0,0,1,.2-.74,1,1,0,0,1,.64-.42l11.48-1.84a.992.992,0,0,1,.78.16.889.889,0,0,1,.38.68.921.921,0,0,1-.16.74,1.019,1.019,0,0,1-.68.42ZM4.2,84.52a1.01,1.01,0,0,1-.78.08.963.963,0,0,1-.58-.52,1.14,1.14,0,0,1-.06-.76.9.9,0,0,1,.5-.6,27.081,27.081,0,0,0,2.74-1.6,30.1,30.1,0,0,0,2.86-2.14,19.313,19.313,0,0,0,2.4-2.38,1.029,1.029,0,0,1,.7-.36.945.945,0,0,1,.74.24,1.029,1.029,0,0,1,.36.7.945.945,0,0,1-.24.74,21.869,21.869,0,0,1-2.62,2.58,32.986,32.986,0,0,1-3.08,2.3A29,29,0,0,1,4.2,84.52Zm24.16-2.64a1.063,1.063,0,0,1-.74-.2,1.023,1.023,0,0,1-.26-1.42.858.858,0,0,1,.64-.38l6.44-1.08a.992.992,0,0,1,.78.16.858.858,0,0,1,.38.64.921.921,0,0,1-.16.74,1.019,1.019,0,0,1-.68.42Zm-5.2,79.76a.99.99,0,0,1-.78,0,.972.972,0,0,1-.54-.56.937.937,0,0,1,.02-.78,1.066,1.066,0,0,1,.54-.54,16.183,16.183,0,0,0,7.34-5.28,12.785,12.785,0,0,0,2.58-7.88,11.153,11.153,0,0,0-3.2-8.24,11.268,11.268,0,0,0-3.76-2.48,12.156,12.156,0,0,0-10.28.56,13.563,13.563,0,0,0-4.52,3.92A13.188,13.188,0,0,0,8.16,146a8.859,8.859,0,0,0,.3,4.24,10.2,10.2,0,0,0,2,3.54,11.949,11.949,0,0,0,2.98,2.5q1.16-2.08,2.3-4.64a47.889,47.889,0,0,0,1.96-5.18,19.891,19.891,0,0,0,.94-4.82.976.976,0,0,1,.36-.7,1.112,1.112,0,0,1,.72-.26,1.007,1.007,0,0,1,.7.34.95.95,0,0,1,.22.74,22.072,22.072,0,0,1-.68,4.1,35.729,35.729,0,0,1-1.44,4.38q-.88,2.2-1.88,4.22t-1.96,3.66a.861.861,0,0,1-.54.44,1.013,1.013,0,0,1-.74-.04,13.03,13.03,0,0,1-3.98-2.92,12.9,12.9,0,0,1-2.76-4.48,10.639,10.639,0,0,1-.46-5.48,14.47,14.47,0,0,1,1.78-5.02,15.539,15.539,0,0,1,3.32-4,15.382,15.382,0,0,1,4.42-2.66,13.859,13.859,0,0,1,5.12-.96,14.092,14.092,0,0,1,5.3,1.02,13,13,0,0,1,8.22,12.58,14.753,14.753,0,0,1-2.92,9.02A18.163,18.163,0,0,1,23.16,161.64ZM11.96,199.8a.884.884,0,0,1-1-.6l-2.12-5.04a.978.978,0,0,1,.84-1.4l20.48-1.64a.958.958,0,0,1,.84.4.872.872,0,0,1,.2.92l-1.68,5.44a1.029,1.029,0,0,1-.92.72Zm-.16,11.08a.942.942,0,0,1-.76,0,1.175,1.175,0,0,1-.56-.52,1.105,1.105,0,0,1-.02-.8A.9.9,0,0,1,11,209a15.647,15.647,0,0,0,6.88-5.6l-10.48.76a.917.917,0,0,1-.72-.24,1.013,1.013,0,0,1-.36-.68.914.914,0,0,1,.24-.74,1.045,1.045,0,0,1,.68-.34l29.36-2.2a1.019,1.019,0,0,1,.96.48.925.925,0,0,1,0,1.04l-3.96,6.88a.912.912,0,0,1-.6.46,1.009,1.009,0,0,1-.76-.1.912.912,0,0,1-.46-.6,1.128,1.128,0,0,1,.1-.8l3-5.2L20.32,203.2a15.662,15.662,0,0,1-3.5,4.46A19.612,19.612,0,0,1,11.8,210.88Zm4.96-19.04a1.055,1.055,0,0,1-.78-.06.9.9,0,0,1-.5-.58l-.76-2.4q-2.36.2-4.42.42t-3.54.42a1.063,1.063,0,0,1-.74-.2,1,1,0,0,1-.42-.64,1.079,1.079,0,0,1,.22-.78.92.92,0,0,1,.66-.38q2.92-.36,7.64-.8l-.96-2.96a1,1,0,0,1,.08-.78.971.971,0,0,1,.6-.5,1,1,0,0,1,.76.06.923.923,0,0,1,.48.62l1.08,3.4q1.92-.2,3.92-.34t3.96-.26l1.16-3.68a1.062,1.062,0,0,1,.52-.58,1,1,0,0,1,.76-.06.984.984,0,0,1,.6.48.927.927,0,0,1,.04.8l-.92,2.92q2.16-.16,4.08-.24t3.4-.12a.975.975,0,0,1,.72.28,1.086,1.086,0,0,1,.32.68,1.065,1.065,0,0,1-.28.72.913.913,0,0,1-.72.32q-1.6.04-3.7.14t-4.46.26l-.84,2.56a.984.984,0,0,1-.48.6.946.946,0,0,1-.76.08,1.152,1.152,0,0,1-.6-.52.946.946,0,0,1-.08-.76l.6-1.8q-1.64.08-3.3.2t-3.3.28l.6,1.92a1.055,1.055,0,0,1-.06.78A.9.9,0,0,1,16.76,191.84ZM9.04,219.48a1.088,1.088,0,0,1-.78-.14.9.9,0,0,1-.46-.62,1.026,1.026,0,0,1,.14-.76.911.911,0,0,1,.62-.44,31.156,31.156,0,0,0,10.32-4.64l-2.36-1.72a1.2,1.2,0,0,1-.4-.68.906.906,0,0,1,.2-.76,1.025,1.025,0,0,1,1.4-.2l2.88,2.12a25.536,25.536,0,0,0,4.36-4.28l-4.88.56a.952.952,0,0,1-.72-.22,1.107,1.107,0,0,1-.4-.66,1.016,1.016,0,0,1,.22-.74.92.92,0,0,1,.66-.38l7.24-.84a.894.894,0,0,1,.96.48.991.991,0,0,1,0,1.08,30.235,30.235,0,0,1-5.76,6.24l3.12,2.32a.919.919,0,0,1,.42.66.959.959,0,0,1-.18.74,1.032,1.032,0,0,1-1.44.24l-3.6-2.68a32.466,32.466,0,0,1-5.5,3.18A36.359,36.359,0,0,1,9.04,219.48ZM2.32,208.2a.841.841,0,0,1-.56-.5.99.99,0,0,1,0-.78l2.68-7.16a1.049,1.049,0,0,1,.54-.58.937.937,0,0,1,.78-.02.981.981,0,0,1,.56.52.942.942,0,0,1,0,.76l-2.68,7.2a.972.972,0,0,1-.54.56A.99.99,0,0,1,2.32,208.2Zm21.52-11.28,3.96-.28,1.04-3.36-4.88.36Zm-11.28.84,3.6-.28-.44-3.2-4.48.36Zm5.6-.44,3.68-.24.12-3.28-4.24.32ZM29.2,269.6a30.6,30.6,0,0,1-6.16,1.36,20.377,20.377,0,0,1-5.36-.06,9.183,9.183,0,0,1-3.88-1.42,4.232,4.232,0,0,1-1.88-3.52A4.543,4.543,0,0,1,13,263.14a13.34,13.34,0,0,1,2.92-2.66,38.573,38.573,0,0,1,4.04-2.44,6.692,6.692,0,0,0-.92-1.56,3.417,3.417,0,0,0-1.2-.96,4.632,4.632,0,0,0-2.34-.62,6.992,6.992,0,0,0-2.74.74,29.468,29.468,0,0,0-3.88,2.28H8.84a.848.848,0,0,1-.74.14.955.955,0,0,1-.62-.42.978.978,0,0,1-.16-.76,1.024,1.024,0,0,1,.4-.64q.24-.16.46-.3t.42-.26q6.44-4.28,8.8-9.12l-9.2,1.16a.952.952,0,0,1-.72-.22,1.107,1.107,0,0,1-.4-.66.861.861,0,0,1,.42-.78l.46-.34,10.28-1.32a12.57,12.57,0,0,0,.52-5,1.013,1.013,0,0,1,.22-.76.942.942,0,0,1,.66-.36,1.013,1.013,0,0,1,.76.22.942.942,0,0,1,.36.66,14.663,14.663,0,0,1-.36,4.96l9.64-1.2a.9.9,0,0,1,.76.18.976.976,0,0,1,.36.7.832.832,0,0,1-.18.72,1.128,1.128,0,0,1-.7.4l-10.56,1.32a16.869,16.869,0,0,1-2.16,3.74,23.249,23.249,0,0,1-3.08,3.42,6.424,6.424,0,0,1,4.32.32,6.8,6.8,0,0,1,2.96,3.44q2.36-1.12,4.7-2.04t4.34-1.6q2-.68,3.2-1.04a1,1,0,0,1,.76.06,1.062,1.062,0,0,1,.52.58.866.866,0,0,1-.28.84l-.4.44q-3.52,1.08-6.62,2.28t-5.62,2.4a18.993,18.993,0,0,1,.52,4.8.959.959,0,0,1-.3.7,1,1,0,0,1-.74.3,1.025,1.025,0,0,1-1-1q0-1.12-.08-2.08a17.324,17.324,0,0,0-.24-1.8,24.917,24.917,0,0,0-4.86,3.18q-1.74,1.54-1.74,2.78A2.31,2.31,0,0,0,15,267.84a7.2,7.2,0,0,0,2.94,1.06,17.53,17.53,0,0,0,4.64.08,29.281,29.281,0,0,0,5.98-1.3,1.092,1.092,0,0,1,.8.06.912.912,0,0,1,.48.58,1.055,1.055,0,0,1-.06.78A.9.9,0,0,1,29.2,269.6Z" transform="translate(-1.139 29.569)" fill="#323836" stroke="#303634" stroke-width="0.3"/></svg>