<svg xmlns="http://www.w3.org/2000/svg" width="36.752" height="250.536" viewBox="0 0 36.752 250.536"><path d="M13.08,3.12a.959.959,0,0,1-.7-.3.959.959,0,0,1-.3-.7V-14.6a22.381,22.381,0,0,1-2.82,2.8A36.1,36.1,0,0,1,6.22-9.52q-1.5,1-2.62,1.64a1.009,1.009,0,0,1-.76.1.912.912,0,0,1-.6-.46,1.051,1.051,0,0,1-.1-.78.919.919,0,0,1,.46-.62q1.32-.76,3.14-2A29.051,29.051,0,0,0,9.3-14.52,14.836,14.836,0,0,0,12.08-18v-1.6l-8.4,2.12a.9.9,0,0,1-.76-.1,1.062,1.062,0,0,1-.48-.62,1.026,1.026,0,0,1,.14-.76.911.911,0,0,1,.62-.44l8.88-2.28v-2.2a6.945,6.945,0,0,0-.18-1.82,2.41,2.41,0,0,0-.78-1.14q-1.24.88-2.5,1.66a22.8,22.8,0,0,1-2.38,1.3,1.129,1.129,0,0,1-.78.04.963.963,0,0,1-.58-.52,1,1,0,0,1-.02-.76.91.91,0,0,1,.5-.56A26.368,26.368,0,0,0,8.9-27.74a30.709,30.709,0,0,0,3.24-2.54,13.5,13.5,0,0,0,2.18-2.4,1.119,1.119,0,0,1,.66-.42.848.848,0,0,1,.74.14.978.978,0,0,1,.44.64.978.978,0,0,1-.16.76,10.123,10.123,0,0,1-1.38,1.72q-.86.88-1.9,1.76a4.173,4.173,0,0,1,1.14,1.84,9.163,9.163,0,0,1,.26,2.36v1.68l5.24-1.36a1.169,1.169,0,0,1,.8.12.868.868,0,0,1,.44.64.9.9,0,0,1-.1.76.911.911,0,0,1-.62.44l-5.76,1.48V2.12a.959.959,0,0,1-.3.7A1,1,0,0,1,13.08,3.12Zm5.36-6a.931.931,0,0,1-1.04-.48.878.878,0,0,1,.08-1.16,33.066,33.066,0,0,0,3.26-4.86,60.958,60.958,0,0,0,2.9-5.92q1.32-3.1,2.28-6a46.307,46.307,0,0,0,1.4-5.02.911.911,0,0,1,.44-.62,1.026,1.026,0,0,1,.76-.14.882.882,0,0,1,.64.42,1.1,1.1,0,0,1,.12.78q-.4,1.88-1.2,4.44t-1.94,5.42Q25-13.16,23.6-10.4a43.979,43.979,0,0,1-3,5.08L31-7.28a.992.992,0,0,1,.78.16,1.019,1.019,0,0,1,.42.68.921.921,0,0,1-.16.74,1,1,0,0,1-.64.42ZM37.32-1.84a.89.89,0,0,1-.76-.02,1.062,1.062,0,0,1-.52-.58,15.332,15.332,0,0,0-1.06-2.04q-.74-1.24-1.66-2.6t-1.8-2.5A19.033,19.033,0,0,0,30-11.36a.95.95,0,0,1-.28-.7.95.95,0,0,1,.28-.7,1,1,0,0,1,.72-.32.871.871,0,0,1,.68.32,22.345,22.345,0,0,1,1.68,1.94q.96,1.22,1.94,2.64t1.76,2.76a17.049,17.049,0,0,1,1.14,2.26.937.937,0,0,1-.02.78A1.049,1.049,0,0,1,37.32-1.84ZM19.2-11.48l-3.92-2.88a1.042,1.042,0,0,1-.42-.68,1.05,1.05,0,0,1,.18-.76.959.959,0,0,1,.66-.38.959.959,0,0,1,.74.18l3.96,2.88a.959.959,0,0,1,.38.66.959.959,0,0,1-.18.74.919.919,0,0,1-.66.42A.959.959,0,0,1,19.2-11.48Zm3.96,65.12a.99.99,0,0,1-.78,0,.972.972,0,0,1-.54-.56.937.937,0,0,1,.02-.78,1.066,1.066,0,0,1,.54-.54,16.183,16.183,0,0,0,7.34-5.28,12.785,12.785,0,0,0,2.58-7.88,11.153,11.153,0,0,0-3.2-8.24,11.268,11.268,0,0,0-3.76-2.48,12.156,12.156,0,0,0-10.28.56,13.563,13.563,0,0,0-4.52,3.92A13.188,13.188,0,0,0,8.16,38a8.859,8.859,0,0,0,.3,4.24,10.2,10.2,0,0,0,2,3.54,11.949,11.949,0,0,0,2.98,2.5q1.16-2.08,2.3-4.64a47.888,47.888,0,0,0,1.96-5.18,19.891,19.891,0,0,0,.94-4.82.976.976,0,0,1,.36-.7,1.112,1.112,0,0,1,.72-.26,1.007,1.007,0,0,1,.7.34.95.95,0,0,1,.22.74,22.072,22.072,0,0,1-.68,4.1,35.729,35.729,0,0,1-1.44,4.38q-.88,2.2-1.88,4.22t-1.96,3.66a.861.861,0,0,1-.54.44,1.013,1.013,0,0,1-.74-.04A13.03,13.03,0,0,1,9.42,47.6a12.9,12.9,0,0,1-2.76-4.48,10.639,10.639,0,0,1-.46-5.48,14.47,14.47,0,0,1,1.78-5.02,15.539,15.539,0,0,1,3.32-4,15.382,15.382,0,0,1,4.42-2.66A13.859,13.859,0,0,1,20.84,25a14.092,14.092,0,0,1,5.3,1.02A13,13,0,0,1,34.36,38.6a14.753,14.753,0,0,1-2.92,9.02A18.163,18.163,0,0,1,23.16,53.64ZM32.8,96.6a1.025,1.025,0,0,1-1-1V78.12l-8.76,1.16V94.12l6.08-.88a.992.992,0,0,1,.78.16,1.054,1.054,0,0,1,.2,1.42,1.1,1.1,0,0,1-.7.42l-7.24,1.04a1.031,1.031,0,0,1-1.16-1V78.4a1,1,0,0,1,.88-1l10.8-1.44a1.254,1.254,0,0,1,.8.24,1.038,1.038,0,0,1,.32.76V95.6a.994.994,0,0,1-.28.7A.941.941,0,0,1,32.8,96.6ZM12.28,98a1.025,1.025,0,0,1-1-1V88.04a22.588,22.588,0,0,1-3.34,2.94A26.915,26.915,0,0,1,3.8,93.44a1.013,1.013,0,0,1-.74.04.963.963,0,0,1-.58-.52,1.063,1.063,0,0,1-.04-.76.838.838,0,0,1,.52-.56,25.588,25.588,0,0,0,4.82-3.02,18.335,18.335,0,0,0,3.5-3.58v-1.4L4.76,84.92A1.025,1.025,0,0,1,4,84.78a.911.911,0,0,1-.44-.62,1.2,1.2,0,0,1,.18-.78.926.926,0,0,1,.62-.42l6.92-1.4V75.64a1,1,0,0,1,.3-.74.959.959,0,0,1,.7-.3,1.025,1.025,0,0,1,1.04,1.04v5.52l4.84-.96a1.042,1.042,0,0,1,.78.14.926.926,0,0,1,.42.62,1.026,1.026,0,0,1-.14.76.93.93,0,0,1-.66.44L13.32,83.2V97a.959.959,0,0,1-.3.7A1,1,0,0,1,12.28,98Zm21.8,12.12a24.343,24.343,0,0,1-6.14-.06,26.546,26.546,0,0,1-6.28-1.62,20.621,20.621,0,0,1-5.52-3.2,14.786,14.786,0,0,1-3.9-4.84,1.182,1.182,0,0,1-.04-.8.846.846,0,0,1,.48-.56.991.991,0,0,1,.8-.06.91.91,0,0,1,.56.5,13.41,13.41,0,0,0,3.2,4.04,17.492,17.492,0,0,0,4.5,2.8,23.857,23.857,0,0,0,10.42,1.92l-2.08-3.2a.9.9,0,0,1-.16-.74.857.857,0,0,1,.44-.62.986.986,0,0,1,1.4.28l3.04,4.6a.953.953,0,0,1,.04.96A.9.9,0,0,1,34.08,110.12ZM2.92,108.64a.912.912,0,0,1-.46-.6,1.009,1.009,0,0,1,.1-.76L6.8,99.92a.912.912,0,0,1,.6-.46,1.128,1.128,0,0,1,.8.1.912.912,0,0,1,.46.6,1.009,1.009,0,0,1-.1.76l-4.24,7.36a.919.919,0,0,1-.62.46A1.051,1.051,0,0,1,2.92,108.64ZM37.08,103l-5.88-2.84a1.067,1.067,0,0,1-.5-.58.95.95,0,0,1,.02-.74,1.042,1.042,0,0,1,.58-.54.948.948,0,0,1,.78.06l5.88,2.84a.9.9,0,0,1,.54.56.991.991,0,0,1-.06.8.846.846,0,0,1-.56.48A1.182,1.182,0,0,1,37.08,103Zm-12.56-.48L20.36,99a1.029,1.029,0,0,1-.36-.7.945.945,0,0,1,.24-.74.956.956,0,0,1,.7-.34.886.886,0,0,1,.7.26l4.16,3.48a1.029,1.029,0,0,1,.36.7.945.945,0,0,1-.24.74,1.013,1.013,0,0,1-.68.36A.917.917,0,0,1,24.52,102.52ZM17.76,90.2l-3.48-3.28a1.094,1.094,0,0,1-.34-.74.886.886,0,0,1,.26-.7,1.094,1.094,0,0,1,.74-.34.835.835,0,0,1,.7.3l3.52,3.28a.892.892,0,0,1,.32.7,1.09,1.09,0,0,1-.28.74,1.065,1.065,0,0,1-1.44.04Zm7.68-5.52a1.063,1.063,0,0,1-.74-.2,1,1,0,0,1-.42-.64,1.132,1.132,0,0,1,.2-.78.858.858,0,0,1,.64-.38l3.92-.64a.992.992,0,0,1,.78.16.889.889,0,0,1,.38.68.921.921,0,0,1-.16.74,1.019,1.019,0,0,1-.68.42Zm0,5.04a.885.885,0,0,1-.74-.18,1.076,1.076,0,0,1-.42-.66,1.063,1.063,0,0,1,.2-.74.858.858,0,0,1,.64-.38l3.92-.64a.992.992,0,0,1,.78.16.889.889,0,0,1,.38.68.921.921,0,0,1-.16.74,1.019,1.019,0,0,1-.68.42ZM13.12,159.68a1.029,1.029,0,0,1-.88-.44q-4.48-6.16-5.76-22.12a.914.914,0,0,1,.24-.74,1.046,1.046,0,0,1,.68-.34.95.95,0,0,1,.74.22,1.007,1.007,0,0,1,.34.7Q9.56,150.48,13,156.68L17.12,149a.984.984,0,0,1,.6-.48.946.946,0,0,1,.76.08.9.9,0,0,1,.5.6,1.009,1.009,0,0,1-.1.76l-4.96,9.16A1,1,0,0,1,13.12,159.68ZM33.2,151.2a.946.946,0,0,1-.76-.08.984.984,0,0,1-.48-.6,12.378,12.378,0,0,0-1.88-3.9,22.138,22.138,0,0,0-2.82-3.28,18.776,18.776,0,0,0-2.62-2.14,1.024,1.024,0,0,1-.4-.64,1.082,1.082,0,0,1,.12-.76.986.986,0,0,1,1.4-.28,16.884,16.884,0,0,1,2.16,1.66,24.438,24.438,0,0,1,2.38,2.44,21.357,21.357,0,0,1,2.14,3,13.828,13.828,0,0,1,1.44,3.34.946.946,0,0,1-.08.76A.984.984,0,0,1,33.2,151.2Zm-4,64.4a30.6,30.6,0,0,1-6.16,1.36,20.377,20.377,0,0,1-5.36-.06,9.183,9.183,0,0,1-3.88-1.42,4.232,4.232,0,0,1-1.88-3.52A4.543,4.543,0,0,1,13,209.14a13.34,13.34,0,0,1,2.92-2.66,38.57,38.57,0,0,1,4.04-2.44,6.692,6.692,0,0,0-.92-1.56,3.417,3.417,0,0,0-1.2-.96,4.632,4.632,0,0,0-2.34-.62,6.992,6.992,0,0,0-2.74.74,29.469,29.469,0,0,0-3.88,2.28H8.84a.848.848,0,0,1-.74.14.955.955,0,0,1-.62-.42.978.978,0,0,1-.16-.76,1.024,1.024,0,0,1,.4-.64q.24-.16.46-.3t.42-.26q6.44-4.28,8.8-9.12l-9.2,1.16a.952.952,0,0,1-.72-.22,1.107,1.107,0,0,1-.4-.66.861.861,0,0,1,.42-.78l.46-.34,10.28-1.32a12.57,12.57,0,0,0,.52-5,1.013,1.013,0,0,1,.22-.76.942.942,0,0,1,.66-.36,1.013,1.013,0,0,1,.76.22.942.942,0,0,1,.36.66,14.663,14.663,0,0,1-.36,4.96l9.64-1.2a.9.9,0,0,1,.76.18.976.976,0,0,1,.36.7.832.832,0,0,1-.18.72,1.128,1.128,0,0,1-.7.4l-10.56,1.32a16.869,16.869,0,0,1-2.16,3.74,23.249,23.249,0,0,1-3.08,3.42,6.424,6.424,0,0,1,4.32.32,6.8,6.8,0,0,1,2.96,3.44q2.36-1.12,4.7-2.04t4.34-1.6q2-.68,3.2-1.04a1,1,0,0,1,.76.06,1.062,1.062,0,0,1,.52.58.866.866,0,0,1-.28.84l-.4.44q-3.52,1.08-6.62,2.28t-5.62,2.4a18.993,18.993,0,0,1,.52,4.8.959.959,0,0,1-.3.7,1.006,1.006,0,0,1-.74.3,1.025,1.025,0,0,1-1-1q0-1.12-.08-2.08a17.324,17.324,0,0,0-.24-1.8,24.916,24.916,0,0,0-4.86,3.18q-1.74,1.54-1.74,2.78A2.31,2.31,0,0,0,15,213.84a7.2,7.2,0,0,0,2.94,1.06,17.528,17.528,0,0,0,4.64.08,29.279,29.279,0,0,0,5.98-1.3,1.091,1.091,0,0,1,.8.06.912.912,0,0,1,.48.58,1.055,1.055,0,0,1-.06.78A.9.9,0,0,1,29.2,215.6Z" transform="translate(-1.956 33.28)" fill="#323836" stroke="#303634" stroke-width="0.3"/></svg>