<svg xmlns="http://www.w3.org/2000/svg" viewBox="0 0 37.05 250.84"><defs><style>.cls-1{fill:#fff;}</style></defs><g id="レイヤー_2" data-name="レイヤー 2"><g id="レイヤー_1-2" data-name="レイヤー 1"><g id="パス_1523" data-name="パス 1523"><path class="cls-1" d="M18.64,250.69a17.66,17.66,0,0,1-2.79-.21A9.3,9.3,0,0,1,11.91,249,4.39,4.39,0,0,1,10,245.39a4.69,4.69,0,0,1,1.12-2.91A13,13,0,0,1,14,239.79,39.34,39.34,0,0,1,18,237.4a6.92,6.92,0,0,0-.84-1.4,3.31,3.31,0,0,0-1.15-.91h0a4.5,4.5,0,0,0-2.2-.6H13.7a6.77,6.77,0,0,0-2.68.73,28.55,28.55,0,0,0-3.86,2.26l0,0h0a1,1,0,0,1-.55.17,1.24,1.24,0,0,1-.27,0,1.09,1.09,0,0,1-.71-.49,1.13,1.13,0,0,1-.18-.87,1.17,1.17,0,0,1,.45-.73h0l.46-.3.42-.26c4.14-2.75,7-5.71,8.62-8.81L6.41,227.3H6.29a1.1,1.1,0,0,1-.71-.25,1.28,1.28,0,0,1-.45-.75h0a1,1,0,0,1,.48-.91l.46-.34,0,0h0l10.19-1.31a12.29,12.29,0,0,0,.48-4.85,1.18,1.18,0,0,1,.26-.87,1.09,1.09,0,0,1,.76-.41H18a1.15,1.15,0,0,1,.74.26,1.11,1.11,0,0,1,.41.76,14.76,14.76,0,0,1-.31,4.8l9.42-1.17.22,0a1,1,0,0,1,.66.23,1.14,1.14,0,0,1,.41.8,1,1,0,0,1-.21.83,1.3,1.3,0,0,1-.79.46h0L18,225.81a16.87,16.87,0,0,1-2.15,3.69,22.6,22.6,0,0,1-2.71,3.08,8.49,8.49,0,0,1,1.38-.12,5.53,5.53,0,0,1,2.52.56,6.88,6.88,0,0,1,3,3.37c1.52-.72,3.06-1.39,4.57-2s3-1.15,4.35-1.6,2.4-.8,3.2-1a1.13,1.13,0,0,1,.36-.06,1,1,0,0,1,.51.13,1.18,1.18,0,0,1,.59.65h0a1,1,0,0,1-.32,1l-.4.44,0,0h0c-2.33.72-4.56,1.48-6.61,2.28s-3.86,1.56-5.5,2.34a19.44,19.44,0,0,1,.49,4.72,1.1,1.1,0,0,1-.34.81,1.19,1.19,0,0,1-.85.34,1.14,1.14,0,0,1-.8-.34,1.11,1.11,0,0,1-.35-.81c0-.74,0-1.44-.08-2.07a14.8,14.8,0,0,0-.2-1.58A24.75,24.75,0,0,0,14,242.72a4,4,0,0,0-1.69,2.67,2.16,2.16,0,0,0,1,1.76,7.15,7.15,0,0,0,2.88,1,13.74,13.74,0,0,0,2.42.19c.67,0,1.41,0,2.18-.11A29.69,29.69,0,0,0,26.71,247h0a1.73,1.73,0,0,1,.38-.05,1.07,1.07,0,0,1,.53.13,1,1,0,0,1,.56.67,1.22,1.22,0,0,1-.07.88,1,1,0,0,1-.67.58,30.24,30.24,0,0,1-6.19,1.37A23.78,23.78,0,0,1,18.64,250.69Zm-7.32-57.43h0a1.18,1.18,0,0,1-1-.5,26,26,0,0,1-3.7-8.66,80.58,80.58,0,0,1-2.09-13.54,1.08,1.08,0,0,1,.28-.85,1.22,1.22,0,0,1,.78-.39h.13a1,1,0,0,1,.72.27,1.12,1.12,0,0,1,.39.8c.7,8.77,2.17,15.3,4.37,19.41l4-7.43a1.12,1.12,0,0,1,.69-.55,1,1,0,0,1,.34-.06,1,1,0,0,1,.53.15,1,1,0,0,1,.58.69,1.15,1.15,0,0,1-.12.87l-4.95,9.16a1.15,1.15,0,0,1-.92.64Zm19.78-8.44a1,1,0,0,1-.54-.14A1.12,1.12,0,0,1,30,184a12.22,12.22,0,0,0-1.86-3.85,21.53,21.53,0,0,0-2.8-3.26,18,18,0,0,0-2.6-2.12h0a1.17,1.17,0,0,1-.45-.73,1.23,1.23,0,0,1,.13-.86h0a1.11,1.11,0,0,1,.73-.51l.23,0a1.21,1.21,0,0,1,.65.2,17,17,0,0,1,2.17,1.68,24.34,24.34,0,0,1,2.4,2.45,21.35,21.35,0,0,1,2.15,3,13.89,13.89,0,0,1,1.46,3.38,1.06,1.06,0,0,1-.1.87,1.1,1.1,0,0,1-.68.55A1,1,0,0,1,31.1,184.82Zm-1.59-40.95a26.61,26.61,0,0,1-3.4-.23A26.89,26.89,0,0,1,19.8,142a20.84,20.84,0,0,1-5.56-3.22,15,15,0,0,1-3.94-4.89h0a1.39,1.39,0,0,1,0-.9,1,1,0,0,1,.56-.66,1.33,1.33,0,0,1,.53-.13,1,1,0,0,1,.38.07,1.06,1.06,0,0,1,.65.57,13.33,13.33,0,0,0,3.16,4A17.58,17.58,0,0,0,20,139.61a23.17,23.17,0,0,0,5.15,1.55,24.06,24.06,0,0,0,4.18.38h.76l-1.93-3a1.08,1.08,0,0,1-.18-.86,1,1,0,0,1,.51-.72,1.15,1.15,0,0,1,.64-.2l.22,0a1.1,1.1,0,0,1,.74.51l3,4.6h0a1.11,1.11,0,0,1,.05,1.1,1,1,0,0,1-.88.69A22.93,22.93,0,0,1,29.51,143.87ZM1.62,142.35A1.19,1.19,0,0,1,1,142.2a1,1,0,0,1-.53-.69,1.14,1.14,0,0,1,.11-.87l4.24-7.37a1.11,1.11,0,0,1,.7-.53,1.53,1.53,0,0,1,.3,0,1.33,1.33,0,0,1,.6.15h0a1.09,1.09,0,0,1,.53.69,1.15,1.15,0,0,1-.12.87l-4.24,7.36a1.06,1.06,0,0,1-.71.54Zm34.11-5.68a1.32,1.32,0,0,1-.51-.1h0l-5.88-2.84h0a1.23,1.23,0,0,1-.57-.66,1.09,1.09,0,0,1,0-.85h0a1.19,1.19,0,0,1,.66-.61,1,1,0,0,1,.37-.07,1.2,1.2,0,0,1,.53.14l5.87,2.83a1.07,1.07,0,0,1,.63.65,1.16,1.16,0,0,1-.07.91,1,1,0,0,1-.65.56A1.32,1.32,0,0,1,35.73,136.67Zm-12.4-.33a1.07,1.07,0,0,1-.72-.28l-4.15-3.52a1.15,1.15,0,0,1-.42-.8,1.15,1.15,0,0,1,1.09-1.24h.06a1,1,0,0,1,.74.3l4.16,3.47a1.23,1.23,0,0,1,.41.81,1.11,1.11,0,0,1-.27.85,1.2,1.2,0,0,1-.78.41Zm-12.86-4.76a1.14,1.14,0,0,1-.8-.34,1.11,1.11,0,0,1-.35-.81v-8.58a22.82,22.82,0,0,1-3.1,2.68A27.49,27.49,0,0,1,2.06,127a1.05,1.05,0,0,1-.48.11,1.15,1.15,0,0,1-.37-.06,1.11,1.11,0,0,1-.67-.59h0a1.21,1.21,0,0,1-.05-.86,1,1,0,0,1,.6-.66,25.31,25.31,0,0,0,4.79-3,18,18,0,0,0,3.44-3.51v-1.17L3,118.5l-.24,0a1.17,1.17,0,0,1-.62-.18,1,1,0,0,1-.51-.72h0a1.31,1.31,0,0,1,.21-.87,1.09,1.09,0,0,1,.71-.49l6.8-1.37v-5.8a1.17,1.17,0,0,1,.35-.85,1.14,1.14,0,0,1,.8-.34,1.19,1.19,0,0,1,.85.34,1.16,1.16,0,0,1,.34.85v5.34l4.66-.93.26,0a1.21,1.21,0,0,1,.64.18,1.07,1.07,0,0,1,.48.72,1.17,1.17,0,0,1-.16.87,1.09,1.09,0,0,1-.76.51l-5.12,1v13.68a1.1,1.1,0,0,1-.34.81A1.19,1.19,0,0,1,10.47,131.58ZM31,130.18a1.14,1.14,0,0,1-.8-.34,1.11,1.11,0,0,1-.35-.81V111.72l-8.46,1.12v14.54l5.91-.86.24,0a1.07,1.07,0,0,1,.65.21,1,1,0,0,1,.44.78,1,1,0,0,1-.21.85,1.21,1.21,0,0,1-.79.48h0l-7.23,1-.2,0A1.23,1.23,0,0,1,19,128.71V111.83a1.09,1.09,0,0,1,.3-.78,1.1,1.1,0,0,1,.72-.37l10.79-1.44H31a1.47,1.47,0,0,1,.79.27h0a1.2,1.2,0,0,1,.36.87V129a1.12,1.12,0,0,1-.32.8A1.08,1.08,0,0,1,31,130.18ZM16.64,124a1.16,1.16,0,0,1-.79-.3h0l-3.48-3.28a1.29,1.29,0,0,1-.39-.84,1.06,1.06,0,0,1,.31-.82,1.21,1.21,0,0,1,.84-.38h0a1,1,0,0,1,.76.34L17.46,122a1,1,0,0,1,.36.81,1.23,1.23,0,0,1-.31.84h0a1.2,1.2,0,0,1-.8.34Zm6.81-.72a1.07,1.07,0,0,1-.65-.23,1.26,1.26,0,0,1-.47-.75h0a1.23,1.23,0,0,1,.23-.84,1,1,0,0,1,.74-.44l3.92-.64.24,0a1.07,1.07,0,0,1,.65.21,1,1,0,0,1,.44.78,1.08,1.08,0,0,1-.18.85,1.23,1.23,0,0,1-.78.48l-3.92.6Zm.07-5a1.19,1.19,0,0,1-.71-.24,1.14,1.14,0,0,1-.48-.73h0a1.29,1.29,0,0,1,.23-.88,1,1,0,0,1,.74-.44l3.92-.64.24,0a1.07,1.07,0,0,1,.65.21,1,1,0,0,1,.44.78,1.08,1.08,0,0,1-.18.85,1.23,1.23,0,0,1-.78.48l-3.92.64h-.14ZM21,87.3a1.12,1.12,0,0,1-.44-.09,1.13,1.13,0,0,1-.63-.64,1.09,1.09,0,0,1,0-.9,1.19,1.19,0,0,1,.61-.62h0a16.07,16.07,0,0,0,7.27-5.23A12.66,12.66,0,0,0,30.36,72,10.89,10.89,0,0,0,23.5,61.45,11.75,11.75,0,0,0,19,60.58,11.94,11.94,0,0,0,13.34,62a13.62,13.62,0,0,0-4.47,3.88A13.21,13.21,0,0,0,6.5,71.46a8.78,8.78,0,0,0,.3,4.16,10,10,0,0,0,2,3.49,11.71,11.71,0,0,0,2.81,2.39c.74-1.34,1.49-2.85,2.22-4.49a48.36,48.36,0,0,0,1.95-5.17,19.78,19.78,0,0,0,.93-4.78h0a1.12,1.12,0,0,1,.42-.81,1.28,1.28,0,0,1,.81-.29h0a1.16,1.16,0,0,1,.8.39,1.1,1.1,0,0,1,.25.85,22.74,22.74,0,0,1-.68,4.13,35.33,35.33,0,0,1-1.45,4.4C16.27,77.19,15.63,78.61,15,80s-1.33,2.57-2,3.66a1,1,0,0,1-.63.51,1.19,1.19,0,0,1-.85,0,13.51,13.51,0,0,1-4-3A13.1,13.1,0,0,1,4.71,76.6a10.76,10.76,0,0,1-.46-5.55A14.8,14.8,0,0,1,6,66a15.59,15.59,0,0,1,3.36-4,15.35,15.35,0,0,1,4.46-2.69,14.17,14.17,0,0,1,5.17-1,14.4,14.4,0,0,1,5.36,1A13.13,13.13,0,0,1,32.7,72a15,15,0,0,1-3,9.11,18.34,18.34,0,0,1-8.34,6.07A1.2,1.2,0,0,1,21,87.3ZM11.27,36.7a1.14,1.14,0,0,1-.8-.34,1.11,1.11,0,0,1-.35-.81V19.23a21.77,21.77,0,0,1-2.57,2.51A34.16,34.16,0,0,1,4.5,24c-1,.67-1.89,1.22-2.63,1.65a1.21,1.21,0,0,1-.57.15,1,1,0,0,1-.3,0,1,1,0,0,1-.7-.53,1.19,1.19,0,0,1-.11-.89,1,1,0,0,1,.53-.71c.87-.5,1.92-1.17,3.13-2A29.69,29.69,0,0,0,7.39,18.8a14.77,14.77,0,0,0,2.73-3.41V14L1.91,16.09a.84.84,0,0,1-.31.05A1,1,0,0,1,1,16a1.21,1.21,0,0,1-.55-.71h0a1.17,1.17,0,0,1,.16-.87,1.07,1.07,0,0,1,.71-.51l8.76-2.25V9.55A7.17,7.17,0,0,0,10,7.77a2.22,2.22,0,0,0-.65-1c-.79.56-1.6,1.1-2.41,1.6A23.37,23.37,0,0,1,4.5,9.69h0a1.32,1.32,0,0,1-.51.1,1.19,1.19,0,0,1-.37-.06,1.11,1.11,0,0,1-.67-.59h0a1.14,1.14,0,0,1,0-.87,1.07,1.07,0,0,1,.58-.65A26.77,26.77,0,0,0,7,5.57,31.61,31.61,0,0,0,10.23,3,13.73,13.73,0,0,0,12.39.67h0a1.33,1.33,0,0,1,.75-.48,1.24,1.24,0,0,1,.27,0,1,1,0,0,1,.59.2A1.13,1.13,0,0,1,14.32,2a10,10,0,0,1-1.4,1.74,24.26,24.26,0,0,1-1.79,1.67A4.28,4.28,0,0,1,12.2,7.15a9.67,9.67,0,0,1,.26,2.4V11l5.06-1.32h0l.27,0a1.28,1.28,0,0,1,.63.16,1,1,0,0,1,.51.73,1.05,1.05,0,0,1-.12.88,1.11,1.11,0,0,1-.71.51l-5.65,1.45V35.55a1.1,1.1,0,0,1-.34.81A1.19,1.19,0,0,1,11.27,36.7Zm23.88-4.89a.92.92,0,0,1-.46-.11,1.16,1.16,0,0,1-.6-.65A14.28,14.28,0,0,0,33,29c-.48-.82-1-1.7-1.65-2.6s-1.21-1.74-1.8-2.49a19.08,19.08,0,0,0-1.5-1.76,1.16,1.16,0,0,1,0-1.62,1.14,1.14,0,0,1,.82-.36,1,1,0,0,1,.79.37,21.59,21.59,0,0,1,1.69,1.95c.64.81,1.3,1.7,2,2.64S34.58,27,35.1,27.93a18,18,0,0,1,1.15,2.28,1,1,0,0,1,0,.9,1.21,1.21,0,0,1-.66.62A1.08,1.08,0,0,1,35.15,31.81ZM16.42,30.72a1,1,0,0,1-1-.57,1,1,0,0,1,.09-1.34A32.4,32.4,0,0,0,18.8,24a62.33,62.33,0,0,0,2.9-5.91c.87-2.05,1.64-4.07,2.27-6a45.36,45.36,0,0,0,1.4-5,1,1,0,0,1,.51-.72,1.17,1.17,0,0,1,.62-.18l.24,0a1,1,0,0,1,.74.49,1.28,1.28,0,0,1,.14.89c-.27,1.25-.67,2.75-1.2,4.45s-1.19,3.53-2,5.43-1.61,3.8-2.54,5.64a43.76,43.76,0,0,1-2.81,4.79L29.17,26l.24,0a1.07,1.07,0,0,1,.65.21,1.15,1.15,0,0,1,.48.77,1.1,1.1,0,0,1-.18.86,1.2,1.2,0,0,1-.74.48l-13,2.4ZM18,22.29a1.08,1.08,0,0,1-.67-.22l-3.92-2.88a1.19,1.19,0,0,1-.27-1.64h0a1.12,1.12,0,0,1,.76-.44h.19a1.05,1.05,0,0,1,.66.22l4,2.88a1.07,1.07,0,0,1,.44.76,1.17,1.17,0,0,1-1,1.33Z"/><path class="cls-1" d="M13.41.3l-.24,0a1.15,1.15,0,0,0-.66.42,13.25,13.25,0,0,1-2.18,2.4A29.63,29.63,0,0,1,7.09,5.69,25.91,25.91,0,0,1,3.55,7.75a.93.93,0,0,0-.5.56,1,1,0,0,0,0,.76,1,1,0,0,0,.58.52,1.11,1.11,0,0,0,.78,0,23.09,23.09,0,0,0,2.38-1.3c.84-.52,1.68-1.07,2.5-1.66a2.44,2.44,0,0,1,.78,1.14,6.93,6.93,0,0,1,.18,1.82v2.2L1.39,14a.92.92,0,0,0-.62.44,1.07,1.07,0,0,0-.14.76,1.06,1.06,0,0,0,.48.62.89.89,0,0,0,.76.1l8.4-2.12v1.6a14.62,14.62,0,0,1-2.78,3.48,29.17,29.17,0,0,1-3.56,2.88c-1.21.83-2.26,1.49-3.14,2a.92.92,0,0,0-.46.62,1.1,1.1,0,0,0,.1.78,1,1,0,0,0,.6.46,1,1,0,0,0,.76-.1c.75-.43,1.62-1,2.62-1.64a36.47,36.47,0,0,0,3-2.28,22,22,0,0,0,2.82-2.8V35.55a1,1,0,0,0,.3.7,1,1,0,0,0,.7.3,1,1,0,0,0,.74-.3,1,1,0,0,0,.3-.7V13.31l5.76-1.48a1,1,0,0,0,.72-1.2.86.86,0,0,0-.44-.64,1.2,1.2,0,0,0-.8-.12l-5.24,1.36V9.55a8.9,8.9,0,0,0-.26-2.36,4.13,4.13,0,0,0-1.14-1.84,25.31,25.31,0,0,0,1.9-1.76,9.62,9.62,0,0,0,1.38-1.72,1,1,0,0,0,.16-.76,1,1,0,0,0-.44-.64.82.82,0,0,0-.5-.17m13.09,6a1,1,0,0,0-.55.16.93.93,0,0,0-.44.62,45.55,45.55,0,0,1-1.4,5q-1,2.89-2.28,6a59.11,59.11,0,0,1-2.9,5.92,32.8,32.8,0,0,1-3.26,4.86.88.88,0,0,0-.08,1.16.93.93,0,0,0,1,.48l13-2.4a1,1,0,0,0,.64-.42.9.9,0,0,0,.16-.74,1,1,0,0,0-1.2-.84l-10.4,2a43.32,43.32,0,0,0,3-5.08c.94-1.84,1.78-3.71,2.54-5.62S25.74,13.7,26.27,12s.94-3.19,1.2-4.44a1,1,0,0,0-.12-.78.85.85,0,0,0-.64-.42l-.21,0M14.06,17.24h-.17a1,1,0,0,0-.66.38,1,1,0,0,0,.24,1.44L17.39,22a1,1,0,0,0,.74.18.92.92,0,0,0,.66-.42A1,1,0,0,0,19,21a.94.94,0,0,0-.38-.66l-4-2.88a.91.91,0,0,0-.57-.19m14.85,3.11a1,1,0,0,0-.72.32,1,1,0,0,0,0,1.4,18,18,0,0,1,1.52,1.78c.59.76,1.19,1.59,1.8,2.5s1.17,1.77,1.66,2.6a14.57,14.57,0,0,1,1.06,2,1.06,1.06,0,0,0,.52.58.88.88,0,0,0,.76,0,1.06,1.06,0,0,0,.58-.54.92.92,0,0,0,0-.78A17,17,0,0,0,35,28c-.52-.89-1.1-1.81-1.76-2.76s-1.3-1.83-1.94-2.64a22.86,22.86,0,0,0-1.68-1.94.87.87,0,0,0-.68-.32M19,58.43a13.9,13.9,0,0,0-5.12,1,15.47,15.47,0,0,0-7.74,6.66,14.68,14.68,0,0,0-1.78,5,10.71,10.71,0,0,0,.46,5.48A13,13,0,0,0,7.61,81a13.17,13.17,0,0,0,4,2.92,1,1,0,0,0,.74,0,.84.84,0,0,0,.54-.44c.64-1.09,1.3-2.31,2-3.66s1.3-2.75,1.88-4.22a35,35,0,0,0,1.44-4.38,21.49,21.49,0,0,0,.68-4.1.92.92,0,0,0-.22-.74,1,1,0,0,0-.7-.34,1.16,1.16,0,0,0-.72.26,1,1,0,0,0-.36.7,19.73,19.73,0,0,1-.94,4.82,46.53,46.53,0,0,1-2,5.18c-.76,1.71-1.52,3.25-2.3,4.64a12.06,12.06,0,0,1-3-2.5,10.32,10.32,0,0,1-2-3.54,8.86,8.86,0,0,1-.3-4.24,13.32,13.32,0,0,1,2.4-5.64,13.7,13.7,0,0,1,4.52-3.92A12,12,0,0,1,19,60.43a11.78,11.78,0,0,1,4.52.88,11,11,0,0,1,7,10.72,12.78,12.78,0,0,1-2.58,7.88,16.2,16.2,0,0,1-7.34,5.28,1.09,1.09,0,0,0-.54.54,1,1,0,0,0,0,.78,1,1,0,0,0,.54.56,1,1,0,0,0,.78,0,18.09,18.09,0,0,0,8.28-6,14.73,14.73,0,0,0,2.92-9,13,13,0,0,0-8.22-12.58,14.08,14.08,0,0,0-5.3-1M10.47,108a1,1,0,0,0-.7.3,1,1,0,0,0-.3.74V115l-6.92,1.4a.93.93,0,0,0-.62.42,1.29,1.29,0,0,0-.18.78.93.93,0,0,0,.44.62,1,1,0,0,0,.76.14l6.52-1.28v1.4A18.06,18.06,0,0,1,6,122.05a25.31,25.31,0,0,1-4.82,3,.85.85,0,0,0-.52.56,1.1,1.1,0,0,0,0,.76,1,1,0,0,0,.58.52,1,1,0,0,0,.74,0,26.29,26.29,0,0,0,4.14-2.46,22.42,22.42,0,0,0,3.34-2.94v9a1,1,0,0,0,.3.7,1,1,0,0,0,.7.3,1,1,0,0,0,.74-.3,1,1,0,0,0,.3-.7v-13.8l5.24-1a.9.9,0,0,0,.66-.44,1,1,0,0,0,.14-.76.9.9,0,0,0-.42-.62,1,1,0,0,0-.78-.14l-4.84,1v-5.52a1,1,0,0,0-.3-.74,1,1,0,0,0-.74-.3M31,109.38h-.09l-10.8,1.44a1,1,0,0,0-.88,1v16.88a.92.92,0,0,0,.36.76.93.93,0,0,0,.8.24l7.24-1a1,1,0,0,0,.7-.42.84.84,0,0,0,.18-.74.87.87,0,0,0-.38-.68,1,1,0,0,0-.78-.16l-6.08.88V112.71L30,111.55V129a1,1,0,0,0,.3.7,1,1,0,0,0,.7.3.92.92,0,0,0,.72-.3A1,1,0,0,0,32,129V110.39a1,1,0,0,0-.32-.76,1.36,1.36,0,0,0-.71-.25m-3.51,6.07-.22,0-3.92.64a.87.87,0,0,0-.64.38,1.18,1.18,0,0,0-.2.78,1,1,0,0,0,.42.64,1.06,1.06,0,0,0,.74.2l3.92-.64a1,1,0,0,0,.68-.42.9.9,0,0,0,.16-.74.87.87,0,0,0-.38-.68,1,1,0,0,0-.56-.18m-14.27,3.12h0a1.11,1.11,0,0,0-.74.34.93.93,0,0,0-.26.7,1.13,1.13,0,0,0,.34.74L16,123.63a1,1,0,0,0,.74.26,1,1,0,0,0,.7-.3,1.07,1.07,0,0,0,.28-.74.88.88,0,0,0-.32-.7l-3.52-3.28a.82.82,0,0,0-.65-.3m14.27,2-.22,0-3.92.64a.87.87,0,0,0-.64.38,1.1,1.1,0,0,0-.2.74,1.12,1.12,0,0,0,.42.66.92.92,0,0,0,.74.18l3.92-.6a1,1,0,0,0,.68-.42.9.9,0,0,0,.16-.74.87.87,0,0,0-.38-.68,1,1,0,0,0-.56-.18m-8.26,10.12h-.06a1,1,0,0,0-.7.34,1,1,0,0,0-.24.74,1.06,1.06,0,0,0,.36.7L22.71,136a.91.91,0,0,0,.72.24,1,1,0,0,0,.68-.36.92.92,0,0,0,.24-.74,1,1,0,0,0-.36-.7l-4.16-3.48a.88.88,0,0,0-.64-.26m10.62,1a.91.91,0,0,0-.32.06,1.05,1.05,0,0,0-.58.54,1,1,0,0,0,0,.74,1.09,1.09,0,0,0,.5.58l5.88,2.84a1.17,1.17,0,0,0,.8,0,.82.82,0,0,0,.56-.48.94.94,0,0,0,.06-.8.88.88,0,0,0-.54-.56l-5.88-2.84a1,1,0,0,0-.46-.12m-18.47.68a1.06,1.06,0,0,0-.47.12.85.85,0,0,0-.48.56,1.22,1.22,0,0,0,0,.8,14.79,14.79,0,0,0,3.9,4.84,20.71,20.71,0,0,0,5.52,3.2,26.63,26.63,0,0,0,6.28,1.62,24.35,24.35,0,0,0,6.14.06A.87.87,0,0,0,33,143a1,1,0,0,0,0-1l-3-4.6a1,1,0,0,0-.64-.44,1,1,0,0,0-.76.16.87.87,0,0,0-.44.62.91.91,0,0,0,.16.74l2.08,3.2a23.86,23.86,0,0,1-10.42-1.92,17.63,17.63,0,0,1-4.5-2.8,13.46,13.46,0,0,1-3.2-4,.88.88,0,0,0-.56-.5,1,1,0,0,0-.33-.06m-5.48.51-.27,0a1,1,0,0,0-.6.46L.75,140.71a1.05,1.05,0,0,0-.1.76.91.91,0,0,0,.46.6,1.05,1.05,0,0,0,.78.1.92.92,0,0,0,.62-.46l4.24-7.36a1,1,0,0,0,.1-.76.88.88,0,0,0-.46-.6,1.12,1.12,0,0,0-.53-.13m-.15,36.6H5.59a1.08,1.08,0,0,0-.68.34,1,1,0,0,0-.24.74q1.29,16,5.76,22.12a1,1,0,0,0,.88.44,1,1,0,0,0,.8-.56l5-9.16a1,1,0,0,0,.1-.76.86.86,0,0,0-.5-.6,1,1,0,0,0-.76-.08,1,1,0,0,0-.6.48l-4.12,7.68q-3.43-6.2-4.52-19.72a1,1,0,0,0-.34-.7.91.91,0,0,0-.62-.23m17.68,3.31-.2,0a1,1,0,0,0-.64.44,1.12,1.12,0,0,0-.12.76,1.06,1.06,0,0,0,.4.64,18.35,18.35,0,0,1,2.62,2.14,22.31,22.31,0,0,1,2.82,3.28,12.31,12.31,0,0,1,1.88,3.9,1,1,0,0,0,1.84.2.92.92,0,0,0,.08-.76,13.77,13.77,0,0,0-1.44-3.34,21.09,21.09,0,0,0-2.14-3,24.07,24.07,0,0,0-2.38-2.44A16.58,16.58,0,0,0,24,173a1,1,0,0,0-.56-.18M18,217.7h-.12a1,1,0,0,0-.66.36,1.06,1.06,0,0,0-.22.76,12.52,12.52,0,0,1-.52,5L6.15,225.15l-.46.34a.9.9,0,0,0-.42.78,1.14,1.14,0,0,0,.4.66,1,1,0,0,0,.72.22l9.2-1.16q-2.36,4.84-8.8,9.12l-.42.26-.46.3a1.06,1.06,0,0,0-.4.64,1,1,0,0,0,.78,1.18.84.84,0,0,0,.74-.14h0A29.69,29.69,0,0,1,11,235.07a7,7,0,0,1,2.74-.74A4.61,4.61,0,0,1,16,235a3.24,3.24,0,0,1,1.2,1,6.49,6.49,0,0,1,.92,1.56,39.64,39.64,0,0,0-4,2.44,13.41,13.41,0,0,0-2.92,2.66,4.54,4.54,0,0,0-1.08,2.82A4.24,4.24,0,0,0,12,248.91a9.2,9.2,0,0,0,3.88,1.42,20.67,20.67,0,0,0,5.36.06A30.45,30.45,0,0,0,27.39,249a.9.9,0,0,0,.58-.5,1.05,1.05,0,0,0,.06-.78.9.9,0,0,0-.48-.58,1.09,1.09,0,0,0-.8-.06,29.19,29.19,0,0,1-6,1.3,17.54,17.54,0,0,1-4.64-.08,7.29,7.29,0,0,1-2.94-1.06,2.31,2.31,0,0,1-1.08-1.88c0-.83.58-1.75,1.74-2.78a24.61,24.61,0,0,1,4.86-3.18,15.69,15.69,0,0,1,.24,1.8c.06.64.08,1.33.08,2.08a1,1,0,0,0,.3.7,1,1,0,0,0,.7.3,1,1,0,0,0,.74-.3,1,1,0,0,0,.3-.7,18.88,18.88,0,0,0-.52-4.8c1.68-.8,3.56-1.6,5.62-2.4s4.28-1.56,6.62-2.28l.4-.44a.86.86,0,0,0,.28-.84A1,1,0,0,0,33,232a1,1,0,0,0-.76-.06c-.8.24-1.86.59-3.2,1s-2.78,1-4.34,1.6-3.12,1.29-4.7,2a6.78,6.78,0,0,0-3-3.44,6.42,6.42,0,0,0-4.32-.32,23.21,23.21,0,0,0,3.08-3.42,16.79,16.79,0,0,0,2.16-3.74l10.56-1.32a1.1,1.1,0,0,0,.7-.4.79.79,0,0,0,.18-.72.93.93,0,0,0-.36-.7.91.91,0,0,0-.76-.18l-9.64,1.2a14.66,14.66,0,0,0,.36-5,.88.88,0,0,0-.36-.66,1,1,0,0,0-.64-.23M13.41,0a1.17,1.17,0,0,1,.68.22,1.32,1.32,0,0,1,.56.83,1.27,1.27,0,0,1-.2,1A10.79,10.79,0,0,1,13,3.8c-.51.52-1.08,1-1.68,1.57a4.29,4.29,0,0,1,1,1.74,9.45,9.45,0,0,1,.27,2.44v1.29L17.5,9.57a1.49,1.49,0,0,1,1,.16,1.2,1.2,0,0,1,.59.83,1.24,1.24,0,0,1-.14,1,1.19,1.19,0,0,1-.81.57l-5.53,1.42v22a1.27,1.27,0,0,1-.38.91,1.3,1.3,0,0,1-1,.39,1.26,1.26,0,0,1-.91-.39,1.24,1.24,0,0,1-.39-.91V19.63a24.44,24.44,0,0,1-2.32,2.23,36.58,36.58,0,0,1-3.07,2.3c-1,.67-1.89,1.22-2.64,1.65a1.29,1.29,0,0,1-1,.13,1.23,1.23,0,0,1-.79-.6,1.39,1.39,0,0,1-.13-1,1.21,1.21,0,0,1,.61-.81c.86-.5,1.91-1.17,3.11-2a28.44,28.44,0,0,0,3.53-2.85A14.68,14.68,0,0,0,10,15.35V14.21l-8,2a1.23,1.23,0,0,1-1-.13,1.37,1.37,0,0,1-.61-.79v0a1.32,1.32,0,0,1,.18-1,1.19,1.19,0,0,1,.81-.57L10,11.52v-2a6.9,6.9,0,0,0-.16-1.74A2,2,0,0,0,9.29,7C8.52,7.51,7.75,8,7,8.5A21.93,21.93,0,0,1,4.56,9.82h0a1.44,1.44,0,0,1-1,.05,1.28,1.28,0,0,1-.75-.68h0a1.28,1.28,0,0,1,0-1,1.2,1.2,0,0,1,.66-.73,25.87,25.87,0,0,0,3.49-2,31.35,31.35,0,0,0,3.21-2.51A13,13,0,0,0,12.26.58h0A1.45,1.45,0,0,1,13.1,0,1.15,1.15,0,0,1,13.41,0ZM26.5,6l.27,0a1.16,1.16,0,0,1,.84.57,1.37,1.37,0,0,1,.16,1h0c-.27,1.26-.68,2.76-1.21,4.47s-1.19,3.54-1.95,5.44S23,21.33,22.06,23.17a45.23,45.23,0,0,1-2.62,4.51l9.7-1.83.27,0a1.3,1.3,0,0,1,.74.23,1.34,1.34,0,0,1,.54.87,1.2,1.2,0,0,1-.21,1,1.3,1.3,0,0,1-.83.54l-13,2.4-.27,0a1.22,1.22,0,0,1-1.08-.64,1.18,1.18,0,0,1,.1-1.51,32.26,32.26,0,0,0,3.23-4.82A60.75,60.75,0,0,0,21.56,18c.87-2.05,1.63-4.06,2.27-6a47.93,47.93,0,0,0,1.39-5,1.19,1.19,0,0,1,.58-.82A1.38,1.38,0,0,1,26.5,6ZM14.06,16.94a1.19,1.19,0,0,1,.75.25l4,2.88a1.33,1.33,0,0,1-.59,2.36,1.28,1.28,0,0,1-1-.24l-3.92-2.88a1.35,1.35,0,0,1-.53-.88,1.36,1.36,0,0,1,.22-1h0a1.25,1.25,0,0,1,.86-.5Zm14.85,3.11a1.16,1.16,0,0,1,.9.41,23.08,23.08,0,0,1,1.7,2c.64.82,1.3,1.71,1.95,2.66s1.25,1.88,1.77,2.78a16.47,16.47,0,0,1,1.16,2.3,1.21,1.21,0,0,1,0,1,1.36,1.36,0,0,1-.74.69,1.17,1.17,0,0,1-1,0A1.39,1.39,0,0,1,34,31.1a14.31,14.31,0,0,0-1-2c-.49-.81-1.05-1.68-1.65-2.58S30.06,24.78,29.48,24A20.16,20.16,0,0,0,28,22.28a1.3,1.3,0,0,1,0-1.82A1.3,1.3,0,0,1,28.91,20.05ZM19,58.13a14.55,14.55,0,0,1,5.42,1A13.3,13.3,0,0,1,32.85,72a15.09,15.09,0,0,1-3,9.2,18.52,18.52,0,0,1-8.41,6.12,1.33,1.33,0,0,1-1,0,1.31,1.31,0,0,1-.71-.73,1.29,1.29,0,0,1,0-1,1.34,1.34,0,0,1,.69-.68h0a15.9,15.9,0,0,0,7.2-5.18A12.5,12.5,0,0,0,30.21,72a10.72,10.72,0,0,0-6.77-10.44,11.85,11.85,0,0,0-10,.54A13.48,13.48,0,0,0,9,66a12.94,12.94,0,0,0-2.34,5.51,8.67,8.67,0,0,0,.29,4.1A9.94,9.94,0,0,0,8.88,79a11.76,11.76,0,0,0,2.64,2.28C12.24,80,13,78.53,13.66,77a48,48,0,0,0,1.95-5.15,19.51,19.51,0,0,0,.92-4.75h0a1.31,1.31,0,0,1,.47-.9,1.42,1.42,0,0,1,.91-.33h0a1.28,1.28,0,0,1,.9.44,1.22,1.22,0,0,1,.29,1,22,22,0,0,1-.69,4.15A35.06,35.06,0,0,1,17,75.78c-.58,1.47-1.22,2.9-1.89,4.24s-1.32,2.58-2,3.67a1.19,1.19,0,0,1-.72.59,1.3,1.3,0,0,1-.95-.06,13.59,13.59,0,0,1-6.9-7.57A11,11,0,0,1,4.1,71,15,15,0,0,1,5.91,65.9,15.93,15.93,0,0,1,9.3,61.82a15.75,15.75,0,0,1,4.5-2.71A14.28,14.28,0,0,1,19,58.13Zm-8.56,49.6a1.32,1.32,0,0,1,1.34,1.34v5.15l4.49-.88.28,0a1.32,1.32,0,0,1,.72.21,1.23,1.23,0,0,1,.55.81,1.32,1.32,0,0,1-.18,1,1.19,1.19,0,0,1-.86.57l-5,1v13.55a1.27,1.27,0,0,1-.38.91,1.3,1.3,0,0,1-1,.39,1.26,1.26,0,0,1-.91-.39,1.24,1.24,0,0,1-.39-.91v-8.21a23,23,0,0,1-2.86,2.43,26.62,26.62,0,0,1-4.19,2.49h0a1.33,1.33,0,0,1-1,.06,1.28,1.28,0,0,1-.75-.68h0a1.35,1.35,0,0,1-.05-1A1.12,1.12,0,0,1,1,124.8a25.54,25.54,0,0,0,4.76-3,18.18,18.18,0,0,0,3.38-3.44v-.94L3,118.64a1.33,1.33,0,0,1-1-.17,1.21,1.21,0,0,1-.58-.82v0a1.53,1.53,0,0,1,.23-1,1.18,1.18,0,0,1,.81-.55l6.68-1.36v-5.67a1.33,1.33,0,0,1,1.3-1.34ZM31,109.08a1.57,1.57,0,0,1,.87.3h0l0,0a1.31,1.31,0,0,1,.4,1V129a1.27,1.27,0,0,1-.36.9,1.2,1.2,0,0,1-.94.4,1.26,1.26,0,0,1-.91-.39,1.24,1.24,0,0,1-.39-.91V111.89L21.53,113V127.2l5.74-.83a1.34,1.34,0,0,1,1,.21,1.21,1.21,0,0,1,.5.89,1.13,1.13,0,0,1-.24,1,1.36,1.36,0,0,1-.88.53h0l-7.24,1a1.34,1.34,0,0,1-1.51-1.3V111.83a1.27,1.27,0,0,1,.34-.88,1.33,1.33,0,0,1,.81-.42l10.8-1.44Zm-3.51,6.07a1.3,1.3,0,0,1,.74.23,1.4,1.4,0,0,1,.29,1.84,1.3,1.3,0,0,1-.87.54h0l-3.94.64a1.36,1.36,0,0,1-.94-.26,1.28,1.28,0,0,1-.54-.82v0a1.44,1.44,0,0,1,.26-1,1.17,1.17,0,0,1,.84-.51l3.91-.64Zm-14.27,3.12a1.13,1.13,0,0,1,.87.39l3.5,3.27a1.16,1.16,0,0,1,.42.92,1.42,1.42,0,0,1-.35.94h0a1.35,1.35,0,0,1-.9.39h-.07a1.3,1.3,0,0,1-.88-.33h0l-3.49-3.29a1.39,1.39,0,0,1-.43-.94,1.2,1.2,0,0,1,.35-.92,1.39,1.39,0,0,1,.94-.43Zm14.27,2a1.3,1.3,0,0,1,.74.23,1.4,1.4,0,0,1,.29,1.84,1.3,1.3,0,0,1-.87.54h0l-3.91.59a1.2,1.2,0,0,1-1-.23,1.41,1.41,0,0,1-.53-.84v0a1.32,1.32,0,0,1,.25-.94,1.17,1.17,0,0,1,.84-.51l3.91-.64Zm-8.26,10.12a1.16,1.16,0,0,1,.85.34l4.15,3.47a1.32,1.32,0,0,1,.46.9,1.23,1.23,0,0,1-.31,1,1.34,1.34,0,0,1-.88.46h-.13a1.19,1.19,0,0,1-.81-.31l-4.16-3.52a1.33,1.33,0,0,1-.47-.9,1.3,1.3,0,0,1,1.23-1.41Zm10.62,1a1.33,1.33,0,0,1,.6.15l5.87,2.84a1.18,1.18,0,0,1,.7.73,1.32,1.32,0,0,1-.07,1,1.2,1.2,0,0,1-.75.64,1.5,1.5,0,0,1-1,0h0l-5.89-2.85a1.36,1.36,0,0,1-.64-.74,1.23,1.23,0,0,1,0-1h0a1.28,1.28,0,0,1,.74-.69A1.25,1.25,0,0,1,29.81,131.37Zm-18.47.68h0a1.26,1.26,0,0,1,.43.08,1.18,1.18,0,0,1,.73.65,13.11,13.11,0,0,0,3.13,3.94,17.11,17.11,0,0,0,4.42,2.75,23.72,23.72,0,0,0,9.27,1.92h.49L28,138.64a1.24,1.24,0,0,1,.37-1.79,1.3,1.3,0,0,1,1.8.37l3.05,4.62a1.23,1.23,0,0,1,.06,1.23,1.21,1.21,0,0,1-1,.78h0a23.39,23.39,0,0,1-2.8.17,27,27,0,0,1-9.77-1.87,21,21,0,0,1-5.6-3.25,15.09,15.09,0,0,1-4-4.93l0,0a1.49,1.49,0,0,1,0-1,1.13,1.13,0,0,1,.64-.74A1.26,1.26,0,0,1,11.34,132.05Zm-5.48.51a1.5,1.5,0,0,1,.67.16h0a1.18,1.18,0,0,1,.6.79,1.29,1.29,0,0,1-.12,1l-4.25,7.36a1.2,1.2,0,0,1-.81.6,1.31,1.31,0,0,1-1-.13,1.19,1.19,0,0,1-.61-.79,1.34,1.34,0,0,1,.13-1l4.24-7.36a1.23,1.23,0,0,1,.79-.6A1.32,1.32,0,0,1,5.86,132.56Zm-.15,36.6h0a1.22,1.22,0,0,1,.82.3,1.3,1.3,0,0,1,.44.9c.69,8.58,2.11,15,4.22,19.11l3.86-7.18a1.31,1.31,0,0,1,1.76-.53,1.16,1.16,0,0,1,.65.8,1.29,1.29,0,0,1-.12,1l-5,9.15a1.32,1.32,0,0,1-1,.72h0a1.36,1.36,0,0,1-1.12-.56,26.3,26.3,0,0,1-3.73-8.72,80.68,80.68,0,0,1-2.09-13.56,1.26,1.26,0,0,1,.32-1,1.34,1.34,0,0,1,.87-.43Zm17.68,3.31a1.34,1.34,0,0,1,.73.23,17,17,0,0,1,2.19,1.68,25.79,25.79,0,0,1,2.41,2.47,21,21,0,0,1,2.17,3.05,13.79,13.79,0,0,1,1.47,3.41,1.27,1.27,0,0,1-.1,1,1.38,1.38,0,0,1-.78.62,1.3,1.3,0,0,1-1.61-.88h0A12.26,12.26,0,0,0,28,180.22,22.25,22.25,0,0,0,25.25,177a18.53,18.53,0,0,0-2.58-2.11h0a1.35,1.35,0,0,1-.51-.82,1.37,1.37,0,0,1,.15-1v0a1.28,1.28,0,0,1,.83-.56ZM18,217.4h0a1.27,1.27,0,0,1,.83.3,1.19,1.19,0,0,1,.47.86A15,15,0,0,1,19,223.2l9.21-1.15a1.19,1.19,0,0,1,1,.25,1.25,1.25,0,0,1,.47.89,1.14,1.14,0,0,1-.24.95,1.4,1.4,0,0,1-.88.5h0L18.12,226A17.3,17.3,0,0,1,16,229.59a24.17,24.17,0,0,1-2.39,2.78,7.66,7.66,0,0,1,.94-.06,5.73,5.73,0,0,1,2.59.57h0a7,7,0,0,1,3,3.3c1.48-.7,3-1.34,4.44-1.92s3-1.15,4.36-1.6,2.41-.81,3.21-1a1.33,1.33,0,0,1,1.64.82v0a1.15,1.15,0,0,1-.34,1.13l-.46.5-.08,0c-2.33.71-4.55,1.48-6.6,2.27s-3.76,1.53-5.37,2.28a20.15,20.15,0,0,1,.46,4.64,1.27,1.27,0,0,1-.38.91,1.3,1.3,0,0,1-1,.39,1.26,1.26,0,0,1-.91-.39,1.24,1.24,0,0,1-.39-.91c0-.74,0-1.43-.08-2.06,0-.47-.09-.93-.16-1.36a24.14,24.14,0,0,0-4.44,2.94,3.92,3.92,0,0,0-1.64,2.56,2,2,0,0,0,1,1.64,6.86,6.86,0,0,0,2.82,1,13.39,13.39,0,0,0,2.39.19c.67,0,1.4,0,2.16-.11a28.49,28.49,0,0,0,5.92-1.29h0a1.42,1.42,0,0,1,1,.08,1.23,1.23,0,0,1,.63.76,1.34,1.34,0,0,1-.08,1,1.19,1.19,0,0,1-.76.66,31.81,31.81,0,0,1-6.21,1.37,24.14,24.14,0,0,1-2.63.15,17.92,17.92,0,0,1-2.81-.21,9.5,9.5,0,0,1-4-1.48h0a4.55,4.55,0,0,1-2-3.76,4.88,4.88,0,0,1,1.15-3,14,14,0,0,1,3-2.72,39.44,39.44,0,0,1,3.82-2.32A5.68,5.68,0,0,0,17,236.1a3.12,3.12,0,0,0-1.09-.88h0a4.36,4.36,0,0,0-2.19-.58,6.71,6.71,0,0,0-2.62.71,29.16,29.16,0,0,0-3.84,2.26l-.08.05h0a1.19,1.19,0,0,1-.91.13,1.25,1.25,0,0,1-.8-.55,1.27,1.27,0,0,1-.2-1,1.32,1.32,0,0,1,.51-.82h0l.46-.3.42-.26c4-2.66,6.84-5.52,8.44-8.5l-8.65,1.09a1.26,1.26,0,0,1-.94-.29,1.47,1.47,0,0,1-.5-.83v0a1.15,1.15,0,0,1,.55-1.05l.52-.39,10.16-1.3a12.32,12.32,0,0,0,.45-4.7,1.35,1.35,0,0,1,.29-1,1.26,1.26,0,0,1,.86-.47Z"/></g></g></g></svg>