<svg xmlns="http://www.w3.org/2000/svg" viewBox="0 0 40.03 544.04"><defs><style>.cls-1{fill:#fff;}</style></defs><g id="レイヤー_2" data-name="レイヤー 2"><g id="レイヤー_1-2" data-name="レイヤー 1"><g id="パス_1524" data-name="パス 1524"><path class="cls-1" d="M19.21,520.28a8.34,8.34,0,0,1-2.66-.4,4.61,4.61,0,0,1-2.49-1.8,3.74,3.74,0,0,1-.67-2,3.94,3.94,0,0,1,.5-2.07A4.82,4.82,0,0,1,16,512a6.52,6.52,0,0,1,2.94-.65h.19a5.71,5.71,0,0,1,2,.41,5.14,5.14,0,0,1,2,1.52,8.26,8.26,0,0,1,1.52,3,7.68,7.68,0,0,0,3-3.81,7.29,7.29,0,0,0,.25-3.92,6.28,6.28,0,0,0-1.77-3.28,7,7,0,0,0-3.71-2,8.34,8.34,0,0,0-1.66-.16,10,10,0,0,0-2.77.41A11.87,11.87,0,0,0,13.72,506a.9.9,0,0,1-.66.27H12.9a1.41,1.41,0,0,1-.79-.39h0a1.07,1.07,0,0,1-.28-.84,1.23,1.23,0,0,1,.36-.77h0L18,499c1.48-1.33,2.93-2.63,4.3-3.88S24.68,493,25.73,492L8.64,494.39H8.51a1.17,1.17,0,0,1-.7-.23,1.19,1.19,0,0,1-.46-.73h0a1.29,1.29,0,0,1,.23-.88,1,1,0,0,1,.74-.44L29,489.17l.24,0a1,1,0,0,1,1,.66,1,1,0,0,1-.22,1.33l-1,1c-.68.64-1.87,1.73-3.54,3.26s-3.83,3.48-6.63,6a12.44,12.44,0,0,1,2.21-.19,13.55,13.55,0,0,1,2.43.22,8.23,8.23,0,0,1,4.44,2.24,8.65,8.65,0,0,1,2.4,4.42,9.26,9.26,0,0,1-.37,5.18A9.6,9.6,0,0,1,26.37,518a12.61,12.61,0,0,1-6.05,2.21C19.94,520.26,19.56,520.28,19.21,520.28Zm-.15-6.61A3.24,3.24,0,0,0,16,515.11a1.55,1.55,0,0,0,0,1.69,2.5,2.5,0,0,0,1.51,1,6,6,0,0,0,1.59.19c.31,0,.65,0,1-.05a9.61,9.61,0,0,0,2.52-.54,6.28,6.28,0,0,0-1.19-2.57,3,3,0,0,0-1.35-.94A4.57,4.57,0,0,0,19.06,513.67Zm4.59-46.5A1.21,1.21,0,0,1,23,467a1.08,1.08,0,0,1-.51-.72,1.21,1.21,0,0,1,.16-.89,1.08,1.08,0,0,1,.72-.49,12.75,12.75,0,0,0,4.88-2.23,9.21,9.21,0,0,0,3-3.72A6.08,6.08,0,0,0,28,450.77a12.93,12.93,0,0,0-4.35-1A33,33,0,0,1,21.41,454a41.31,41.31,0,0,1-2.7,3.83c.15.47.31.92.47,1.33s.34.85.5,1.22a1.05,1.05,0,0,1,0,.9,1.28,1.28,0,0,1-.63.65h0a1,1,0,0,1-.45.1,1.12,1.12,0,0,1-.4-.07,1.18,1.18,0,0,1-.66-.62h0c-.11-.26-.21-.54-.32-.82s-.17-.42-.26-.64a30.06,30.06,0,0,1-4.63,4.29,5.33,5.33,0,0,1-2.58,1l-.4,0a3.21,3.21,0,0,1-1.88-.57,3.47,3.47,0,0,1-1.44-2.27A7.28,7.28,0,0,1,6.28,459a14.68,14.68,0,0,1,3-5.58,16.59,16.59,0,0,1,5.61-4.28V449c0-.93,0-2,0-3s.13-2.1.22-3.17l-9,1.37H6.07a1.17,1.17,0,0,1-.7-.23,1.19,1.19,0,0,1-.46-.73h0a1.29,1.29,0,0,1,.23-.88,1,1,0,0,1,.74-.44l9.53-1.42c.07-.54.17-1.13.28-1.78s.24-1.36.36-2,.23-1.18.32-1.6l.14-.64h0a1.1,1.1,0,0,1,.55-.68,1,1,0,0,1,.54-.15,1.26,1.26,0,0,1,.33.05,1.16,1.16,0,0,1,.69.55,1.08,1.08,0,0,1,.09.88c-.18.74-.35,1.57-.51,2.46s-.29,1.7-.41,2.56l13.6-2,.23,0a1.13,1.13,0,0,1,.66.21,1,1,0,0,1,.44.78,1.05,1.05,0,0,1-.19.84,1.2,1.2,0,0,1-.77.49l-14.25,2.14c-.1,1-.17,2-.21,3.07s-.06,1.91-.06,2.75a17.22,17.22,0,0,1,2.33-.56,19.6,19.6,0,0,1,2.58-.26,8.32,8.32,0,0,0,.3-.78q.13-.44.3-.84a1.1,1.1,0,0,1,.57-.68,1,1,0,0,1,.5-.13,1,1,0,0,1,.4.08,1,1,0,0,1,.66.55,1.14,1.14,0,0,1,.07.87,5.14,5.14,0,0,1-.2.59c-.06.14-.11.29-.17.44a14,14,0,0,1,4.84,1.37,8.49,8.49,0,0,1,3.32,2.92,8.39,8.39,0,0,1,1.34,3.91,8.71,8.71,0,0,1-.69,4.11,11.43,11.43,0,0,1-3.65,4.66,14.49,14.49,0,0,1-5.86,2.66A1,1,0,0,1,23.65,467.17ZM8.79,462.8a1.08,1.08,0,0,0,.62.18h0a2.83,2.83,0,0,0,1.56-.66,24.53,24.53,0,0,0,2.59-2.19c.85-.83,1.72-1.75,2.57-2.73a25.63,25.63,0,0,1-.66-2.71q-.26-1.41-.42-3a14.61,14.61,0,0,0-4.17,3.47,12.33,12.33,0,0,0-2.4,4.41,4.61,4.61,0,0,0-.19,2.18A1.85,1.85,0,0,0,8.79,462.8Zm8.51-12.14c.05.86.13,1.68.25,2.44s.23,1.34.38,2c.57-.8,1.13-1.64,1.66-2.51s1.07-1.82,1.54-2.77a16.72,16.72,0,0,0-1.9.29A17.19,17.19,0,0,0,17.3,450.66ZM6,412.14a1.08,1.08,0,0,1-.67-.22h0a1.28,1.28,0,0,1-.43-.77,1,1,0,0,1,.25-.84,45.71,45.71,0,0,0,4.77-7.77,65.72,65.72,0,0,0,3.57-8.89c-1,.2-2,.43-3,.68l-3.1.78h0a1.15,1.15,0,0,1-.26,0,1.27,1.27,0,0,1-.62-.16,1,1,0,0,1-.54-.7,1.28,1.28,0,0,1,.14-.89,1.13,1.13,0,0,1,.69-.53h0l3.7-.92c1.26-.31,2.5-.57,3.7-.78a54,54,0,0,0,1.65-8.81,1.15,1.15,0,0,1,1.12-1.06H17a1.14,1.14,0,0,1,.81.41,1.21,1.21,0,0,1,.25.87c-.11,1.33-.29,2.72-.54,4.11s-.54,2.68-.89,4l1.17-.11c.44,0,.87-.06,1.27-.06a4.84,4.84,0,0,1,3.55,1.2,4.89,4.89,0,0,1,1.12,3.76,45.75,45.75,0,0,1-.9,7.44A24.75,24.75,0,0,1,21,408.78c-.93,1.89-2.17,2.85-3.69,2.85-1.76,0-3.41-1.5-4.89-4.44h0a1.23,1.23,0,0,1,0-.87,1,1,0,0,1,.6-.65,1,1,0,0,1,.5-.13,1.07,1.07,0,0,1,.39.07,1.05,1.05,0,0,1,.67.58A10.34,10.34,0,0,0,16,408.5a2,2,0,0,0,1.31.83c.57,0,1.12-.53,1.63-1.56a21.73,21.73,0,0,0,1.74-5.42,45.37,45.37,0,0,0,.84-7,3,3,0,0,0-.48-2.05,2.69,2.69,0,0,0-1.89-.51,11.49,11.49,0,0,0-1.48.1c-.52.06-1.07.14-1.64.24a63.7,63.7,0,0,1-3.87,10,49.64,49.64,0,0,1-5.21,8.55,1.14,1.14,0,0,1-.76.44Zm30-10.59a.94.94,0,0,1-.43-.1,1.25,1.25,0,0,1-.63-.63h0A15.1,15.1,0,0,0,33,397.53a25.87,25.87,0,0,0-2.88-3.3,23.56,23.56,0,0,0-3.38-2.75,1.09,1.09,0,0,1-.49-.71,1.11,1.11,0,0,1,.17-.9h0a1.17,1.17,0,0,1,.75-.46l.26,0a1.1,1.1,0,0,1,.59.17,25.53,25.53,0,0,1,3.72,3,28.44,28.44,0,0,1,3.18,3.66A17.94,17.94,0,0,1,37,399.94a1.12,1.12,0,0,1,0,.88,1.33,1.33,0,0,1-.63.63h0A1.2,1.2,0,0,1,36,401.55Zm-.49-12.06a1.16,1.16,0,0,1-.51-.12h0l-7-4.4h0a1.11,1.11,0,0,1-.42-.63,1,1,0,0,1,.1-.73h0a1,1,0,0,1,.64-.47.83.83,0,0,1,.22,0,.87.87,0,0,1,.51.17l7,4.4a.87.87,0,0,1,.48.59,1,1,0,0,1-.14.77.87.87,0,0,1-.6.43A1.07,1.07,0,0,1,35.46,389.49Zm2.48-3.76a1.16,1.16,0,0,1-.51-.12h0l-7-4.4h0a1.11,1.11,0,0,1-.42-.63,1,1,0,0,1,.1-.73h0a1,1,0,0,1,.64-.47.83.83,0,0,1,.22,0,.87.87,0,0,1,.51.17l7,4.36a1,1,0,0,1,.47.63,1,1,0,0,1-.14.77.87.87,0,0,1-.6.43A1.07,1.07,0,0,1,37.94,385.73Zm-7.44-23.5a1.18,1.18,0,0,1-1.15-1.15V340.33l-3.75.58h-.13a1.05,1.05,0,0,1-.7-.26,1.24,1.24,0,0,1-.46-.74h0a1.23,1.23,0,0,1,.23-.84,1,1,0,0,1,.74-.44l12-1.8.23,0a1.13,1.13,0,0,1,.66.21,1,1,0,0,1,.44.78,1,1,0,0,1-.19.83,1.2,1.2,0,0,1-.77.46l-6,.9v21.11a1.16,1.16,0,0,1-.32.8A1.09,1.09,0,0,1,30.5,362.23ZM1.32,358.39a1.24,1.24,0,0,1-.84-.32h0a1.09,1.09,0,0,1-.32-.8,1.13,1.13,0,0,1,.32-.81,15.7,15.7,0,0,0,2.85-4.35,26.66,26.66,0,0,0,1.81-5.71,24.75,24.75,0,0,0,.46-6.18,1,1,0,0,1,.3-.82,1.31,1.31,0,0,1,.8-.38h0a1.23,1.23,0,0,1,.8.29,1.16,1.16,0,0,1,.39.8h0a28.24,28.24,0,0,1-.5,6.8,27.88,27.88,0,0,1-2,6.29,17.2,17.2,0,0,1-3.25,4.86A1.1,1.1,0,0,1,1.32,358.39ZM15,354.78h-.17a1.27,1.27,0,0,1-.79-.43h0a1.15,1.15,0,0,1-.21-.85,1.32,1.32,0,0,1,.43-.8h0a17.86,17.86,0,0,0,4.28-4.84A19.92,19.92,0,0,0,21,341.73a20.65,20.65,0,0,0,.32-6.76,1.21,1.21,0,0,1,.25-.87,1.11,1.11,0,0,1,.76-.41l.22,0a1,1,0,0,1,.65.23,1.11,1.11,0,0,1,.42.8,22.72,22.72,0,0,1-3.12,14.4,20.28,20.28,0,0,1-4.77,5.41A1,1,0,0,1,15,354.78Zm-4.68-10.13a1.17,1.17,0,0,1-.6-.16,1.09,1.09,0,0,1-.55-.69h0a1.26,1.26,0,0,1,.14-.88,1.13,1.13,0,0,1,.69-.53L15,341l.79-5.16L6.86,338.1a1.19,1.19,0,0,1-.32,0A1.13,1.13,0,0,1,6,338a1,1,0,0,1-.53-.72,1.28,1.28,0,0,1,.14-.89,1.13,1.13,0,0,1,.69-.53h0l10.64-2.64.31,0a1,1,0,0,1,.75.31,1,1,0,0,1,.37,1l-1.16,7.63a1.09,1.09,0,0,1-.83,1h0l-5.72,1.52h0A1.15,1.15,0,0,1,10.35,344.65ZM22.79,332.2a1.21,1.21,0,0,1-1.11-.79h0a1.25,1.25,0,0,1,.06-.89,1.09,1.09,0,0,1,.68-.58c.39-.13,1-.34,1.73-.63s1.59-.66,2.51-1.08a28.65,28.65,0,0,0,2.72-1.45A11.81,11.81,0,0,0,31.67,325a1.19,1.19,0,0,1,.85-.36,1.23,1.23,0,0,1,1.17,1.17,1.15,1.15,0,0,1-.36.84,14.13,14.13,0,0,1-2.59,2,30.07,30.07,0,0,1-3,1.6c-1,.47-1.92.87-2.75,1.19s-1.44.55-1.84.68A1.23,1.23,0,0,1,22.79,332.2Zm-8.41-.85a1.09,1.09,0,0,1-.74-.28l-4.36-3.6a1.18,1.18,0,0,1-.41-.8,1,1,0,0,1,.24-.81,1.22,1.22,0,0,1,.79-.43h.17a1.06,1.06,0,0,1,.69.26l4.39,3.6a1.19,1.19,0,0,1,.42.8,1.1,1.1,0,0,1-.28.86,1.18,1.18,0,0,1-.8.41Zm15.3-24.14a1.38,1.38,0,0,1-.56-.12h0l-5-3a1.09,1.09,0,0,1-.54-.7,1.21,1.21,0,0,1,.12-.87h0a1.21,1.21,0,0,1,.72-.52,1.54,1.54,0,0,1,.3,0,1.17,1.17,0,0,1,.57.16l4,2.36a22.53,22.53,0,0,0,1.28-2.75c.45-1.12.88-2.34,1.28-3.61s.74-2.54,1-3.77.48-2.22.62-3.18l-8,.59h-.1a1,1,0,0,1-.73-.3,1.25,1.25,0,0,1-.41-.8,1,1,0,0,1,.28-.83,1.16,1.16,0,0,1,.78-.41l9.36-.68h0a1.21,1.21,0,0,1,.87.32h0a1.48,1.48,0,0,1,.35.9h0a30,30,0,0,1-.62,4.1c-.34,1.54-.75,3.14-1.25,4.73a43.64,43.64,0,0,1-1.64,4.5,21.64,21.64,0,0,1-1.8,3.42,1,1,0,0,1-.69.46Zm-14.55-1.57a1.26,1.26,0,0,1-.38-.06,1,1,0,0,1-.63-.61,1.27,1.27,0,0,1,0-.88,1,1,0,0,1,.6-.63,30.19,30.19,0,0,0,3.2-1.75c1.15-.71,2.3-1.51,3.43-2.37a37.92,37.92,0,0,0,3.13-2.69,17.34,17.34,0,0,0,2.3-2.7,1.1,1.1,0,0,1,.73-.5l.23,0a1.18,1.18,0,0,1,.64.2h0a1.19,1.19,0,0,1,.46.73,1.23,1.23,0,0,1-.14.86h0a19.67,19.67,0,0,1-2.53,3,35.58,35.58,0,0,1-3.36,2.9c-1.21.92-2.45,1.77-3.67,2.53a30.05,30.05,0,0,1-3.46,1.86h0A1.54,1.54,0,0,1,15.13,305.64Zm-1-4.76a1.26,1.26,0,0,1-.38-.06,1.08,1.08,0,0,1-.66-.6h0a1.23,1.23,0,0,1,0-.87,1.14,1.14,0,0,1,.59-.69c1-.5,2.1-1.1,3.23-1.77a34.16,34.16,0,0,0,3.25-2.19,14.42,14.42,0,0,0,2.47-2.36h0a1.18,1.18,0,0,1,.8-.41h.11a1.14,1.14,0,0,1,.74.28,1.22,1.22,0,0,1,.41.8,1.1,1.1,0,0,1-.28.86,18.35,18.35,0,0,1-2.88,2.68A38.78,38.78,0,0,1,18,298.93c-1.2.71-2.32,1.34-3.33,1.84h0A1.54,1.54,0,0,1,14.13,300.88ZM2.45,299.37l-.24,0a1.06,1.06,0,0,1-.72-.51,1.14,1.14,0,0,1-.18-.87,1.13,1.13,0,0,1,.51-.74l6.17-4V285l-4.66,1-.24,0a1.21,1.21,0,0,1-.63-.18,1.08,1.08,0,0,1-.51-.72,1.21,1.21,0,0,1,.16-.87,1,1,0,0,1,.72-.51L8,282.6V275a1.08,1.08,0,0,1,.35-.83,1.2,1.2,0,0,1,1.63,0,1.15,1.15,0,0,1,.32.83v7l3-.68a1,1,0,0,1,.24,0,1.21,1.21,0,0,1,.63.18,1.08,1.08,0,0,1,.51.72,1.23,1.23,0,0,1-.16.87,1.06,1.06,0,0,1-.72.5l-3.48.78v7.28l3.45-2.25a1.1,1.1,0,0,1,.59-.17l.26,0a1.17,1.17,0,0,1,.75.46h0a1.31,1.31,0,0,1,.14.89,1,1,0,0,1-.51.72L3.1,299.16A1.12,1.12,0,0,1,2.45,299.37Zm11.93-3.8a1.27,1.27,0,0,1-.34-.05,1,1,0,0,1-.67-.58h0a1.33,1.33,0,0,1-.07-.86,1.09,1.09,0,0,1,.58-.7,31.26,31.26,0,0,0,4.8-3,28.31,28.31,0,0,0,3.66-3.27l-7.45.76h-.12a1.07,1.07,0,0,1-.72-.28,1.33,1.33,0,0,1-.45-.76h0a1,1,0,0,1,.28-.85,1.18,1.18,0,0,1,.78-.39l22.67-2.32.21,0a1,1,0,0,1,.67.25,1.2,1.2,0,0,1,.41.78,1.16,1.16,0,0,1-.25.85,1.1,1.1,0,0,1-.81.44l-11.93,1.23a26.29,26.29,0,0,1-4.57,4.67,34.29,34.29,0,0,1-6.12,4h0A1.58,1.58,0,0,1,14.38,295.57Zm6.34-12.65a1.1,1.1,0,0,1-1.08-.83h0l-2.36-8.6a1.19,1.19,0,0,1,1-1.47h0L31,270.73h0a1.48,1.48,0,0,1,.93.35h0a1.15,1.15,0,0,1,.28,1L30.77,281h0a1.11,1.11,0,0,1-1,1l-8.88,1Zm-.83-8.75,1.72,6.34,7-.77,1.07-6.53Zm3.5,4a1.17,1.17,0,0,1-.72-.25,1.08,1.08,0,0,1-.44-.77,1.21,1.21,0,0,1,.25-.87,1.11,1.11,0,0,1,.77-.41l3.31-.4.22,0a1,1,0,0,1,.65.23,1.11,1.11,0,0,1,.42.8,1,1,0,0,1-.21.85,1.1,1.1,0,0,1-.81.44l-3.31.4Zm-4.18-27.91a8.34,8.34,0,0,1-2.66-.4,4.61,4.61,0,0,1-2.49-1.8,3.74,3.74,0,0,1-.67-2,3.94,3.94,0,0,1,.5-2.07A4.82,4.82,0,0,1,16,242a6.52,6.52,0,0,1,2.94-.65h.19a5.71,5.71,0,0,1,2,.41,5.14,5.14,0,0,1,2,1.52,8.26,8.26,0,0,1,1.52,3,7.68,7.68,0,0,0,3-3.81,7.29,7.29,0,0,0,.25-3.92,6.28,6.28,0,0,0-1.77-3.28,7,7,0,0,0-3.71-2,8.34,8.34,0,0,0-1.66-.16,10,10,0,0,0-2.77.41A11.87,11.87,0,0,0,13.72,236a.9.9,0,0,1-.66.27H12.9a1.41,1.41,0,0,1-.79-.39h0a1.07,1.07,0,0,1-.28-.84,1.23,1.23,0,0,1,.36-.77h0L18,229c1.49-1.33,2.93-2.64,4.3-3.88S24.68,223,25.73,222L8.64,224.39H8.51a1.17,1.17,0,0,1-.7-.23,1.19,1.19,0,0,1-.46-.73h0a1.29,1.29,0,0,1,.23-.88,1,1,0,0,1,.74-.44L29,219.17l.24,0a1,1,0,0,1,1,.66,1,1,0,0,1-.22,1.33l-1,1c-.67.63-1.87,1.73-3.54,3.26s-3.83,3.48-6.63,6a12.44,12.44,0,0,1,2.21-.19,13.55,13.55,0,0,1,2.43.22,8.23,8.23,0,0,1,4.44,2.24,8.65,8.65,0,0,1,2.4,4.42,9.26,9.26,0,0,1-.37,5.18A9.6,9.6,0,0,1,26.37,248a12.61,12.61,0,0,1-6.05,2.21C19.94,250.26,19.56,250.28,19.21,250.28Zm-.15-6.61A3.24,3.24,0,0,0,16,245.11a1.55,1.55,0,0,0,0,1.69,2.5,2.5,0,0,0,1.51.95,6,6,0,0,0,1.59.19c.31,0,.65,0,1-.05a9.61,9.61,0,0,0,2.52-.54,6.28,6.28,0,0,0-1.19-2.57,3,3,0,0,0-1.35-.94A4.57,4.57,0,0,0,19.06,243.67Zm5.68-46.89a12.66,12.66,0,0,1-3-.34,9.11,9.11,0,0,1-4.32-2.29,6.39,6.39,0,0,1-2-5.73,1.15,1.15,0,0,1,.48-.78,1.08,1.08,0,0,1,.63-.21.82.82,0,0,1,.22,0,.89.89,0,0,1,.76.68l.2.54v.07a4.22,4.22,0,0,0,1.32,3.75,6.85,6.85,0,0,0,3.36,1.68,11.29,11.29,0,0,0,2.42.26,13.61,13.61,0,0,0,2.17-.18l.23,0a1.13,1.13,0,0,1,.66.21,1,1,0,0,1,.44.74,1.08,1.08,0,0,1-.19.86,1.1,1.1,0,0,1-.73.5A16,16,0,0,1,24.74,196.78Zm-6.57-10.17a1.15,1.15,0,0,1-.26,0,1.1,1.1,0,0,1-.73-.5h0a1.24,1.24,0,0,1-.12-.89,1.09,1.09,0,0,1,.49-.71,10.79,10.79,0,0,1,3.71-1.4,13.86,13.86,0,0,1,2.56-.24c.44,0,.89,0,1.33.07l-3-5.15c-2.33.93-4.72,1.78-7.1,2.51a65.06,65.06,0,0,1-6.45,1.68.91.91,0,0,1-.23,0A1.24,1.24,0,0,1,7.19,181a1.06,1.06,0,0,1,.19-.86,1.14,1.14,0,0,1,.73-.48c1.75-.37,3.8-.91,6.11-1.62s4.5-1.47,6.7-2.35l-2.05-3.5c-1.5.52-3.06,1-4.61,1.4s-3.09.78-4.45,1H9.66a1.25,1.25,0,0,1-.7-.21,1.09,1.09,0,0,1-.49-.71h0a1.36,1.36,0,0,1,.2-.87,1.08,1.08,0,0,1,.72-.49c1.25-.21,2.62-.52,4.09-.92s2.82-.8,4.2-1.26l-2.39-4.08a1.24,1.24,0,0,1-.12-.89,1.06,1.06,0,0,1,.54-.71,1.17,1.17,0,0,1,.57-.16,1.54,1.54,0,0,1,.3,0,1.09,1.09,0,0,1,.69.53l2.62,4.49c1-.38,1.9-.77,2.73-1.17a17.66,17.66,0,0,0,2.12-1.17,1.18,1.18,0,0,1,.65-.2l.24,0a1,1,0,0,1,.72.51,1,1,0,0,1,0,1l-.24.54,0,0,0,0a16.33,16.33,0,0,1-2.24,1.25c-.84.41-1.76.8-2.74,1.18l2,3.42c1.44-.62,2.83-1.26,4.11-1.89A26.21,26.21,0,0,0,30.58,171a1.18,1.18,0,0,1,.64-.2l.23,0a1.13,1.13,0,0,1,.73.5.94.94,0,0,1,0,1l-.26.54,0,0,0,0a29.43,29.43,0,0,1-3.49,2c-1.29.64-2.66,1.28-4.09,1.9L28.47,184h0a1.16,1.16,0,0,1-.09,1.31h0a1.09,1.09,0,0,1-.87.43,1.44,1.44,0,0,1-.4-.06h0a10,10,0,0,0-3.29-.54,9.69,9.69,0,0,0-1.07.05,8.93,8.93,0,0,0-3.95,1.24h0A1.17,1.17,0,0,1,18.17,186.61Zm10.29-45.32a15.94,15.94,0,0,1-4-.49,10.83,10.83,0,0,1-4.54-2.33,10.7,10.7,0,0,1-3.21-8.23,16.64,16.64,0,0,1,.63-4.54A21.22,21.22,0,0,1,19,121.45a22.2,22.2,0,0,1,2-3.21c-1.58.48-3.22.94-4.87,1.36-1.81.47-3.58.87-5.27,1.2s-3.28.59-4.71.75H6a1.07,1.07,0,0,1-.72-.28,1.16,1.16,0,0,1-.41-.78,1.21,1.21,0,0,1,.25-.87,1.11,1.11,0,0,1,.77-.41,59.88,59.88,0,0,0,5.94-1c2.17-.46,4.41-1,6.65-1.68s4.37-1.35,6.35-2.09a44.64,44.64,0,0,0,5-2.19,1,1,0,0,1,.54-.15,1.26,1.26,0,0,1,.33,0,1.14,1.14,0,0,1,.69.56,1.06,1.06,0,0,1,.09.87,1.09,1.09,0,0,1-.55.69c-.72.37-1.54.77-2.43,1.16s-1.85.79-2.86,1.16a8.31,8.31,0,0,0-2.26,2A18.42,18.42,0,0,0,21.23,122a23,23,0,0,0-1.61,4.09,15.4,15.4,0,0,0-.61,4.16,8.35,8.35,0,0,0,2.47,6.49A9.86,9.86,0,0,0,28.36,139q.9,0,1.89-.09h.13a1.14,1.14,0,0,1,.73.26,1.11,1.11,0,0,1,.42.8,1.13,1.13,0,0,1-.25.83,1.12,1.12,0,0,1-.81.42C29.79,141.25,29.11,141.29,28.46,141.29Zm5.25-12.76h-.06a1.05,1.05,0,0,1-.7-.31l-5.68-6a1,1,0,0,1-.28-.7.91.91,0,0,1,.33-.71.94.94,0,0,1,.7-.28.91.91,0,0,1,.71.33l5.68,6h0a1,1,0,0,1,0,1.44A.9.9,0,0,1,33.71,128.53Zm3.29-3a.88.88,0,0,1-.69-.33l-5.72-6a.88.88,0,0,1-.26-.71,1.09,1.09,0,0,1,.3-.7h0a1.11,1.11,0,0,1,.72-.27.88.88,0,0,1,.69.33l5.72,6h0a1,1,0,0,1,.26.75,1.07,1.07,0,0,1-.3.69h0A1.12,1.12,0,0,1,37,125.51ZM10.27,90.4a1,1,0,0,1-.3,0,1,1,0,0,1-.72-.53A1.2,1.2,0,0,1,9.13,89a1.25,1.25,0,0,1,.53-.73h0a33.48,33.48,0,0,0,4.58-3.31,50.09,50.09,0,0,0,4.47-4.28A39.75,39.75,0,0,0,22,76.55l-2.91.63h0l-.22,0a1.32,1.32,0,0,1-.74-.25h0a1.18,1.18,0,0,1-.41-.91V58.36A1.2,1.2,0,0,1,18,57.6a1,1,0,0,1,.7-.39l10.92-1.76.19,0a1.11,1.11,0,0,1,.73.29,1.08,1.08,0,0,1,.41.88V75.08a1.18,1.18,0,0,1-1.15,1.15,1.2,1.2,0,0,1-.82-.34,1.06,1.06,0,0,1-.37-.81V58l-8.58,1.4V74.61l4.13-.92a1.15,1.15,0,0,1,.31,0,1,1,0,0,1,.85.46h0a1.22,1.22,0,0,1,.14,1.23h0a25.35,25.35,0,0,1-2.59,3.92,53.68,53.68,0,0,1-3.63,4.13,48.35,48.35,0,0,1-4.18,3.83,36.73,36.73,0,0,1-4.21,3h0A1.17,1.17,0,0,1,10.27,90.4Zm22.33-.12A15.16,15.16,0,0,1,31,90.19a9.29,9.29,0,0,1-3.9-1.3,5.75,5.75,0,0,1-2.83-5.17V79.6a1.08,1.08,0,0,1,.35-.83,1.2,1.2,0,0,1,1.63,0,1.15,1.15,0,0,1,.32.83v4.12a3.47,3.47,0,0,0,1.77,3.19,6.7,6.7,0,0,0,2.76.94,13,13,0,0,0,1.54.09,14.65,14.65,0,0,0,1.74-.11,13.54,13.54,0,0,0,3-.72L35.88,81.8a1.09,1.09,0,0,1,.09-.88,1.16,1.16,0,0,1,.69-.55,1.49,1.49,0,0,1,.36-.05,1,1,0,0,1,.54.15,1.15,1.15,0,0,1,.52.73l1.76,6.28a1.07,1.07,0,0,1-.08.76,1.22,1.22,0,0,1-.55.57A15,15,0,0,1,35.35,90,16.07,16.07,0,0,1,32.6,90.28ZM2.9,83.41a.91.91,0,0,1-.23,0,1.09,1.09,0,0,1-.73-.5A1,1,0,0,1,1.77,82a1.3,1.3,0,0,1,.48-.74h0l6-4v-7l-3.85,1h0a1.15,1.15,0,0,1-.26,0,1.27,1.27,0,0,1-.62-.16,1,1,0,0,1-.54-.7,1.34,1.34,0,0,1,.14-.91,1,1,0,0,1,.7-.51l4.44-1.17V63.48a1.08,1.08,0,0,1,.35-.83,1.16,1.16,0,0,1,.8-.32,1.2,1.2,0,0,1,.84.32,1.08,1.08,0,0,1,.35.83v3.77l2.25-.56a1.32,1.32,0,0,1,.33,0,1,1,0,0,1,.54.15,1,1,0,0,1,.52.73,1.14,1.14,0,0,1-.1.87,1.12,1.12,0,0,1-.73.55l-2.81.73v6.09l3.21-2.13h0a1.19,1.19,0,0,1,.6-.17,1.15,1.15,0,0,1,.26,0,1.19,1.19,0,0,1,.73.46h0a1.11,1.11,0,0,1,.17.9,1.09,1.09,0,0,1-.49.71L3.54,83.2A1.11,1.11,0,0,1,2.9,83.41ZM22.23,70.23a1.19,1.19,0,0,1-.72-.23,1.17,1.17,0,0,1-.48-.73h0a1.23,1.23,0,0,1,.23-.84,1.14,1.14,0,0,1,.73-.48l4.08-.72.24,0a1.13,1.13,0,0,1,.66.21,1.15,1.15,0,0,1,.48.77,1,1,0,0,1-.19.85,1.2,1.2,0,0,1-.77.49l-4.12.72h-.14Zm0-5a1.19,1.19,0,0,1-.72-.23,1.17,1.17,0,0,1-.48-.73h0a1.23,1.23,0,0,1,.23-.84,1.14,1.14,0,0,1,.73-.48l4.08-.72.24,0a1.13,1.13,0,0,1,.66.21,1.15,1.15,0,0,1,.48.77,1,1,0,0,1-.19.85,1.2,1.2,0,0,1-.77.49l-4.12.72h-.14ZM4.46,62.47a1.45,1.45,0,0,1-.72-.2,1.08,1.08,0,0,1-.51-.72,1.18,1.18,0,0,1,.92-1.38l8.64-1.72a1,1,0,0,1,.24,0,1.11,1.11,0,0,1,.61.18,1.08,1.08,0,0,1,.49.72,1.23,1.23,0,0,1-.16.87,1.06,1.06,0,0,1-.72.5L4.61,62.46H4.46ZM34,36.37a1.17,1.17,0,0,1-.6-.16h0L23.1,29.68a1.07,1.07,0,0,1-.49-.69,1.21,1.21,0,0,1,.12-.87h0a1.21,1.21,0,0,1,.72-.52,1.24,1.24,0,0,1,.27,0,1.07,1.07,0,0,1,.61.19l10.32,6.48a1.13,1.13,0,0,1,.51.74,1.23,1.23,0,0,1-.14.86h0a1.1,1.1,0,0,1-.73.5A1.15,1.15,0,0,1,34,36.37ZM5.77,36.31a1.14,1.14,0,0,1-.54-.14,1.09,1.09,0,0,1-.55-.69h0a1.33,1.33,0,0,1,.14-.9,1,1,0,0,1,.69-.51,26.84,26.84,0,0,0,7.34-3.12,12.9,12.9,0,0,0,4.23-4.44l-9.52.78H7.44A1.07,1.07,0,0,1,6.72,27a1.16,1.16,0,0,1-.41-.78,1,1,0,0,1,.28-.83A1.16,1.16,0,0,1,7.37,25l10.74-.87c.23-.77.45-1.62.64-2.53l-5,.46H13.6a1.07,1.07,0,0,1-.72-.28,1.16,1.16,0,0,1-.41-.78,1,1,0,0,1,.28-.85,1.18,1.18,0,0,1,.78-.39L19,19.22c.05-.41.09-.83.11-1.25s0-.84,0-1.29l-6.36.55h-.11A1.07,1.07,0,0,1,12,17a1.33,1.33,0,0,1-.45-.76h0a1,1,0,0,1,.28-.85,1.18,1.18,0,0,1,.78-.39l6.58-.59c0-.86,0-1.75-.12-2.65h0a1.19,1.19,0,0,1,.32-.84,1.18,1.18,0,0,1,.78-.39h.12a1,1,0,0,1,.73.29,1.2,1.2,0,0,1,.39.81h0l.11,2.6L27,13.69l.21,0a.92.92,0,0,1,.65.26,1.17,1.17,0,0,1,.39.77,1,1,0,0,1-.23.85,1.16,1.16,0,0,1-.79.44l-5.67.47c0,.45,0,.9-.05,1.32s0,.81-.08,1.21l3.94-.34h.12a1.11,1.11,0,0,1,.73.26,1.16,1.16,0,0,1,.39.8,1.13,1.13,0,0,1-.25.83,1.12,1.12,0,0,1-.81.42l-4.4.39c-.08.46-.17.92-.26,1.35s-.2.79-.31,1.18l12.39-1h.13a1.14,1.14,0,0,1,.73.26,1.11,1.11,0,0,1,.42.8,1.13,1.13,0,0,1-.25.83,1.12,1.12,0,0,1-.81.42L19.72,26.26a14.43,14.43,0,0,1-4.91,6.1,28.24,28.24,0,0,1-8.71,3.9A1,1,0,0,1,5.77,36.31Zm-1.17-21A1,1,0,0,1,4,15.08a1.08,1.08,0,0,1-.48-.76,1.14,1.14,0,0,1,.21-.85,13.16,13.16,0,0,0,1.58-3.12,14.2,14.2,0,0,0,.83-3.61,1.11,1.11,0,0,1,.42-.8,1,1,0,0,1,.63-.23l.2,0a1.12,1.12,0,0,1,.79.39A1.1,1.1,0,0,1,8.41,7a16.67,16.67,0,0,1-1,4.18A16.81,16.81,0,0,1,5.58,14.8h0a1.25,1.25,0,0,1-.75.46ZM32.45,15a1.41,1.41,0,0,1-.49-.09h0a1.19,1.19,0,0,1-.57-.66,1.09,1.09,0,0,1,0-.85l2.22-4.89L9.91,10.67H9.79a1.16,1.16,0,0,1-1.12-1,1.21,1.21,0,0,1,.25-.87,1.11,1.11,0,0,1,.77-.41L35.37,6h0a1.22,1.22,0,0,1,1,.49,1,1,0,0,1,.14,1.15h0l-3,6.68a1.08,1.08,0,0,1-.65.62A1.23,1.23,0,0,1,32.45,15ZM21.12,6.3H21a1.28,1.28,0,0,1-.77-.43h0L17.26,2A1,1,0,0,1,17,1.15,1.17,1.17,0,0,1,17.49.4a.92.92,0,0,1,.64-.25l.2,0a1.33,1.33,0,0,1,.76.45h0L22,4.42a1,1,0,0,1,.23.87,1.14,1.14,0,0,1-.46.74A1,1,0,0,1,21.12,6.3Z"/><path class="cls-1" d="M18.13.3a.8.8,0,0,0-.55.22,1,1,0,0,0-.4.66.84.84,0,0,0,.2.74L20.3,5.76a1.11,1.11,0,0,0,.68.38.87.87,0,0,0,.72-.22,1,1,0,0,0,.4-.66.83.83,0,0,0-.2-.74L19,.72a1.14,1.14,0,0,0-.68-.4l-.17,0m-11,5.56a.84.84,0,0,0-.54.2,1,1,0,0,0-.36.7,15,15,0,0,1-.84,3.64,13.13,13.13,0,0,1-1.6,3.16,1,1,0,0,0-.18.74.92.92,0,0,0,.42.66.91.91,0,0,0,.74.16,1.08,1.08,0,0,0,.66-.4A17,17,0,0,0,7.28,11.1,16.35,16.35,0,0,0,8.26,7,.94.94,0,0,0,8,6.22a1,1,0,0,0-.7-.34l-.18,0m28.22.3L9.7,8.52A.88.88,0,0,0,9,8.88a1,1,0,0,0,.14,1.42,1,1,0,0,0,.72.22l24-2.16-2.32,5.12a1,1,0,0,0,0,.74,1.09,1.09,0,0,0,.5.58,1.16,1.16,0,0,0,.8,0,.93.93,0,0,0,.56-.54l3-6.68a.89.89,0,0,0-.12-1,1,1,0,0,0-.92-.44M20.29,10.59h-.11a1.07,1.07,0,0,0-1,1.08c.08,1,.12,1.89.12,2.8l-6.72.6a1,1,0,0,0-.68.34.88.88,0,0,0-.24.74,1.23,1.23,0,0,0,.4.68,1,1,0,0,0,.72.24l6.52-.56c0,.5,0,1,0,1.46s-.07.92-.12,1.38l-5.64.52a1,1,0,0,0-.68.34.88.88,0,0,0-.24.74,1.06,1.06,0,0,0,.36.68,1,1,0,0,0,.72.24l5.24-.48a27.92,27.92,0,0,1-.72,2.84l-10.84.88a1,1,0,0,0-.68.36.89.89,0,0,0-.24.72,1.06,1.06,0,0,0,.36.68,1,1,0,0,0,.72.24l9.8-.8a12.93,12.93,0,0,1-4.42,4.74A27.45,27.45,0,0,1,5.54,34.2a.83.83,0,0,0-.6.44,1.2,1.2,0,0,0-.12.8,1,1,0,0,0,.48.6,1,1,0,0,0,.76.08,28.28,28.28,0,0,0,8.66-3.88,14.33,14.33,0,0,0,4.9-6.12L33.14,25a1,1,0,0,0,.7-.36,1,1,0,0,0,.22-.72A1,1,0,0,0,32.94,23l-12.6,1q.19-.69.36-1.38c.11-.47.2-1,.28-1.46l4.52-.4a1,1,0,0,0,.7-.36,1,1,0,0,0,.22-.72,1,1,0,0,0-.34-.7.92.92,0,0,0-.74-.22l-4.12.36c.05-.46.09-.92.1-1.38s0-1,.06-1.46l5.8-.48a1,1,0,0,0,.68-.38.86.86,0,0,0,.2-.74,1,1,0,0,0-.34-.68.79.79,0,0,0-.74-.2l-5.6.48-.12-2.76a1.07,1.07,0,0,0-.34-.72.87.87,0,0,0-.63-.25m3.44,17.12-.23,0a1,1,0,0,0-.64.46,1,1,0,0,0,.32,1.36L33.5,36.08a1.12,1.12,0,0,0,.76.12,1,1,0,0,0,.64-.44A1.12,1.12,0,0,0,35,35a1,1,0,0,0-.44-.64L24.26,27.88a.9.9,0,0,0-.53-.17m6.1,27.87-.17,0L18.74,57.36a.85.85,0,0,0-.6.34,1,1,0,0,0-.24.66V76a1,1,0,0,0,.36.8,1.13,1.13,0,0,0,.84.2l3.28-.72a39.87,39.87,0,0,1-3.56,4.42A51.9,51.9,0,0,1,14.34,85a33.72,33.72,0,0,1-4.6,3.32,1.06,1.06,0,0,0-.46.64,1,1,0,0,0,.1.76.92.92,0,0,0,.62.46,1.1,1.1,0,0,0,.78-.1,38.57,38.57,0,0,0,4.2-3,49.64,49.64,0,0,0,4.16-3.82q2-2.07,3.62-4.12a26.11,26.11,0,0,0,2.58-3.9,1.05,1.05,0,0,0-.12-1.08.88.88,0,0,0-1-.36l-4.32,1V59.24l8.88-1.44V75.08a1,1,0,0,0,.32.7,1,1,0,0,0,.72.3,1,1,0,0,0,.7-.3,1,1,0,0,0,.3-.7V56.6a.9.9,0,0,0-.36-.76.93.93,0,0,0-.63-.26m-16.8,3a.75.75,0,0,0-.21,0L4.18,60.32a1,1,0,0,0-.64.42,1,1,0,0,0-.16.78.92.92,0,0,0,.44.62,1.28,1.28,0,0,0,.76.18l8.64-1.76a.93.93,0,0,0,.62-.44,1,1,0,0,0,.14-.76.88.88,0,0,0-.42-.62.94.94,0,0,0-.53-.16M26.31,62.3a.75.75,0,0,0-.21,0L22,63a1,1,0,0,0-.64.42,1,1,0,0,0-.2.74,1,1,0,0,0,.42.64,1.1,1.1,0,0,0,.74.2l4.12-.72a1.08,1.08,0,0,0,.68-.42.94.94,0,0,0,.16-.74,1,1,0,0,0-.42-.68,1,1,0,0,0-.57-.18m-16.89.18a1,1,0,0,0-.7.28.92.92,0,0,0-.3.72V68l-4.56,1.2a.83.83,0,0,0-.6.44,1.2,1.2,0,0,0-.12.8.87.87,0,0,0,.46.6,1.18,1.18,0,0,0,.78.12l4-1V77.4l-6.08,4a1.15,1.15,0,0,0-.42.66.84.84,0,0,0,.14.74,1,1,0,0,0,1.4.28L15,75.44a1,1,0,0,0,.42-.62A.94.94,0,0,0,15.3,74a1,1,0,0,0-.64-.4,1,1,0,0,0-.76.12L10.46,76V69.56l2.92-.76a1,1,0,0,0,.64-.48,1,1,0,0,0,.08-.76.84.84,0,0,0-.44-.64.92.92,0,0,0-.76-.08l-2.44.6v-4a.92.92,0,0,0-.3-.72,1,1,0,0,0-.74-.28m16.89,4.86a.75.75,0,0,0-.21,0L22,68.08a1,1,0,0,0-.64.42,1,1,0,0,0-.2.74,1,1,0,0,0,.42.64,1.1,1.1,0,0,0,.74.2l4.12-.72a1.08,1.08,0,0,0,.68-.42.94.94,0,0,0,.16-.74,1,1,0,0,0-.42-.68,1,1,0,0,0-.57-.18M25.38,78.6a1,1,0,0,0-.7.28.92.92,0,0,0-.3.72v4.12a5.58,5.58,0,0,0,2.76,5A9.15,9.15,0,0,0,31,90a15.65,15.65,0,0,0,8.16-1.36,1.11,1.11,0,0,0,.48-.5,1,1,0,0,0,.08-.66l-1.76-6.28a1,1,0,0,0-.46-.64,1,1,0,0,0-.78-.08A1,1,0,0,0,36,81.76L37.5,87.2A13.84,13.84,0,0,1,31,88a6.93,6.93,0,0,1-2.82-1,3.65,3.65,0,0,1-1.84-3.32V79.6a.94.94,0,0,0-.28-.72,1,1,0,0,0-.72-.28m5,33.67a.9.9,0,0,0-.47.13,44.18,44.18,0,0,1-5,2.2q-3,1.11-6.36,2.1t-6.66,1.68a60.2,60.2,0,0,1-6,1,.88.88,0,0,0-.66.36,1,1,0,0,0-.22.76,1.06,1.06,0,0,0,.36.68,1,1,0,0,0,.72.24c1.44-.16,3-.41,4.7-.74s3.45-.74,5.26-1.2,3.59-1,5.32-1.5a21.33,21.33,0,0,0-2.28,3.56,21.79,21.79,0,0,0-1.66,4.22,16.79,16.79,0,0,0-.62,4.5A10.51,10.51,0,0,0,20,138.36a10.78,10.78,0,0,0,4.48,2.3,17.22,17.22,0,0,0,6,.38,1,1,0,0,0,.7-.36,1,1,0,0,0,.22-.72,1,1,0,0,0-1.12-.92q-5.88.56-8.88-2.2a8.45,8.45,0,0,1-2.52-6.6,15.32,15.32,0,0,1,.62-4.2,22.34,22.34,0,0,1,1.62-4.12,18.29,18.29,0,0,1,2.2-3.4,8.2,8.2,0,0,1,2.32-2c1-.38,2-.76,2.86-1.16s1.7-.79,2.42-1.16a1,1,0,0,0,.48-.6,1,1,0,0,0-.68-1.24,1,1,0,0,0-.29,0m.95,5.37a.93.93,0,0,0-.62.24.87.87,0,0,0-.26.6.76.76,0,0,0,.22.6l5.72,6a.75.75,0,0,0,.58.28.93.93,0,0,0,.62-.24.92.92,0,0,0,0-1.24l-5.72-6a.72.72,0,0,0-.58-.28m-3.34,3a.81.81,0,0,0-.6.24.75.75,0,0,0-.28.6.81.81,0,0,0,.24.6l5.68,6a.92.92,0,0,0,.6.26.76.76,0,0,0,.6-.22.81.81,0,0,0,0-1.24l-5.68-6a.75.75,0,0,0-.6-.28M16.28,164.5a1,1,0,0,0-.5.14.92.92,0,0,0-.46.62,1.05,1.05,0,0,0,.1.78l2.48,4.24q-2.16.72-4.38,1.32c-1.48.4-2.85.7-4.1.92a.9.9,0,0,0-.62.42,1.14,1.14,0,0,0-.18.78.93.93,0,0,0,.42.62,1.2,1.2,0,0,0,.74.18c1.36-.27,2.84-.62,4.44-1s3.17-.91,4.72-1.44l2.2,3.76q-3.41,1.35-6.88,2.42t-6.12,1.62a1,1,0,0,0-.64.42.93.93,0,0,0-.16.74,1,1,0,0,0,1.2.8c1.87-.38,4-.94,6.44-1.68s4.83-1.6,7.2-2.56l3.24,5.52a13.68,13.68,0,0,0-4.14.14,10.31,10.31,0,0,0-3.66,1.38,1,1,0,0,0-.42.62,1.05,1.05,0,0,0,.1.78,1,1,0,0,0,.64.44,1.12,1.12,0,0,0,.76-.12,9,9,0,0,1,4-1.26,10.34,10.34,0,0,1,4.42.5,1,1,0,0,0,1.12-.32,1,1,0,0,0,.08-1.16l-4.28-7.28c1.49-.64,2.91-1.3,4.24-2a33.33,33.33,0,0,0,3.48-2l.26-.54a.8.8,0,0,0,0-.86,1,1,0,0,0-.64-.44,1,1,0,0,0-.76.16,28.14,28.14,0,0,1-3.4,1.94c-1.33.65-2.75,1.3-4.24,1.94l-2.16-3.68c1-.4,2-.82,2.9-1.24A17.85,17.85,0,0,0,26,168.88l.24-.54a.82.82,0,0,0,0-.86.84.84,0,0,0-.62-.44,1,1,0,0,0-.78.16,18.66,18.66,0,0,1-2.14,1.18c-.87.41-1.82.82-2.86,1.22L17.14,165a.88.88,0,0,0-.6-.46,1.27,1.27,0,0,0-.26,0m.3,23.08a.92.92,0,0,0-.54.18,1,1,0,0,0-.42.68,6.2,6.2,0,0,0,1.92,5.6,9,9,0,0,0,4.26,2.26,14.06,14.06,0,0,0,5.62.1,1,1,0,0,0,.8-1.2.85.85,0,0,0-.38-.64,1,1,0,0,0-.78-.16,12.4,12.4,0,0,1-4.64-.08A7,7,0,0,1,19,192.6a4.37,4.37,0,0,1-1.36-3.88l-.2-.54a.75.75,0,0,0-.64-.58.68.68,0,0,0-.2,0M29.24,219.3l-.22,0L8.34,222.24a.82.82,0,0,0-.64.38,1.1,1.1,0,0,0-.2.78,1,1,0,0,0,.4.64,1,1,0,0,0,.72.2l17.56-2.48-3.78,3.48c-1.37,1.25-2.81,2.54-4.3,3.88l-5.8,5.28a1.06,1.06,0,0,0-.32.68.91.91,0,0,0,.24.72,1.25,1.25,0,0,0,.7.34.8.8,0,0,0,.7-.22,11.74,11.74,0,0,1,4.4-2.48,9.37,9.37,0,0,1,4.5-.26,7.15,7.15,0,0,1,3.78,2,6.38,6.38,0,0,1,1.82,3.36,7.49,7.49,0,0,1-.26,4,7.8,7.8,0,0,1-3.24,4,8.24,8.24,0,0,0-1.54-3.16,5.09,5.09,0,0,0-2-1.48,5.48,5.48,0,0,0-2-.4,6.21,6.21,0,0,0-3.06.64,4.58,4.58,0,0,0-2,1.92,3.75,3.75,0,0,0-.48,2,3.64,3.64,0,0,0,.64,1.92,4.48,4.48,0,0,0,2.42,1.74,9,9,0,0,0,3.7.34,12.48,12.48,0,0,0,6-2.18,9.49,9.49,0,0,0,3.46-4.7,9.07,9.07,0,0,0,.36-5.1,8.39,8.39,0,0,0-2.36-4.34,8,8,0,0,0-4.36-2.2,12.59,12.59,0,0,0-5.12.08l7-6.38c1.68-1.54,2.86-2.62,3.54-3.26l1-1a.88.88,0,0,0,.2-1.16.83.83,0,0,0-.82-.58M19.09,248.09a6.34,6.34,0,0,1-1.63-.19,2.64,2.64,0,0,1-1.6-1,1.7,1.7,0,0,1,0-1.84c.56-1,1.64-1.52,3.24-1.52a4.4,4.4,0,0,1,1,.18,3.09,3.09,0,0,1,1.42,1,6.71,6.71,0,0,1,1.26,2.76,9.16,9.16,0,0,1-2.68.6c-.35,0-.69.05-1,.05M31,270.88,18.3,272.16a.9.9,0,0,0-.72.44.94.94,0,0,0-.16.84l2.36,8.6a1,1,0,0,0,1.08.72l8.88-1a1,1,0,0,0,.88-.84l1.48-8.88a1,1,0,0,0-.24-.88,1.3,1.3,0,0,0-.84-.32m-9.52,9.8L19.7,274l10.2-1-1.12,6.84-7.28.8M9.14,274a1,1,0,0,0-.7.28.92.92,0,0,0-.3.72v7.68l-5.28,1.16a.9.9,0,0,0-.62.44,1,1,0,0,0-.14.76.92.92,0,0,0,.44.62,1.07,1.07,0,0,0,.76.14l4.84-1v8.52l-6.24,4a1,1,0,0,0-.44.64,1,1,0,0,0,.16.76.87.87,0,0,0,.62.44A1,1,0,0,0,3,299l11.88-7.76a.86.86,0,0,0,.44-.62,1.16,1.16,0,0,0-.12-.78,1,1,0,0,0-.66-.4.94.94,0,0,0-.74.12L10.14,292v-7.68l3.6-.8a.93.93,0,0,0,.62-.44,1,1,0,0,0,.14-.76.88.88,0,0,0-.44-.62,1,1,0,0,0-.76-.14l-3.16.72V275a.94.94,0,0,0-.28-.72,1,1,0,0,0-.72-.28m17.64,1.58-.2,0-3.32.4a.88.88,0,0,0-.66.36,1,1,0,0,0-.22.76,1,1,0,0,0,.38.66,1.06,1.06,0,0,0,.74.22l3.32-.4a1,1,0,0,0,.7-.38.92.92,0,0,0,.18-.74,1,1,0,0,0-.36-.7.87.87,0,0,0-.56-.2m10.75,7.76-.19,0-22.68,2.32a1,1,0,0,0-.68.34.88.88,0,0,0-.24.74,1.23,1.23,0,0,0,.4.68,1,1,0,0,0,.72.24l7.84-.8a27.78,27.78,0,0,1-3.94,3.58,32.36,32.36,0,0,1-4.82,3,.88.88,0,0,0-.5.6,1.1,1.1,0,0,0,.06.76.92.92,0,0,0,.58.5,1.32,1.32,0,0,0,.78-.06,34.58,34.58,0,0,0,6.1-4,26.12,26.12,0,0,0,4.58-4.7l12-1.24a1,1,0,0,0,.7-.38,1,1,0,0,0,.22-.74,1,1,0,0,0-.36-.68.83.83,0,0,0-.57-.22m-2.79,5.5-9.36.68a1,1,0,0,0-.68.36.89.89,0,0,0-.24.72,1.14,1.14,0,0,0,.36.7.9.9,0,0,0,.72.26l8.16-.6a34.39,34.39,0,0,1-.64,3.38c-.29,1.24-.64,2.5-1,3.78s-.83,2.48-1.28,3.62a24.31,24.31,0,0,1-1.36,2.9l-4.12-2.44a1,1,0,0,0-.76-.1,1,1,0,0,0-.64.46,1,1,0,0,0-.1.76,1,1,0,0,0,.46.6l5,3a1.31,1.31,0,0,0,.76.08.89.89,0,0,0,.6-.4,21.88,21.88,0,0,0,1.78-3.4A43.24,43.24,0,0,0,34,298.76c.49-1.6.91-3.18,1.24-4.72a29.73,29.73,0,0,0,.62-4.08,1.28,1.28,0,0,0-.32-.8,1,1,0,0,0-.76-.28M23.5,292.07h-.1a1,1,0,0,0-.7.36,14.38,14.38,0,0,1-2.5,2.38,34.39,34.39,0,0,1-3.26,2.2c-1.15.68-2.23,1.27-3.24,1.78a.94.94,0,0,0-.52.6,1,1,0,0,0,0,.76,1,1,0,0,0,.58.52,1.17,1.17,0,0,0,.78,0c1-.51,2.12-1.12,3.32-1.84a38.52,38.52,0,0,0,3.5-2.38,19,19,0,0,0,2.86-2.66.93.93,0,0,0,.24-.74,1,1,0,0,0-.36-.7.92.92,0,0,0-.64-.25m4.2,1.51a.68.68,0,0,0-.2,0,1,1,0,0,0-.64.44,17.55,17.55,0,0,1-2.32,2.72,36.59,36.59,0,0,1-3.14,2.7c-1.13.86-2.28,1.66-3.44,2.38a30.55,30.55,0,0,1-3.22,1.76.8.8,0,0,0-.52.54,1.11,1.11,0,0,0,0,.78.87.87,0,0,0,.54.52,1.17,1.17,0,0,0,.78,0A29.9,29.9,0,0,0,19,303.54q1.85-1.14,3.66-2.52A33.94,33.94,0,0,0,26,298.14a20.58,20.58,0,0,0,2.52-3,1.12,1.12,0,0,0,.12-.76,1,1,0,0,0-.4-.64,1,1,0,0,0-.56-.18m4.82,31.22a1,1,0,0,0-.74.32,12.11,12.11,0,0,1-2.32,1.78c-.91.54-1.82,1-2.74,1.46s-1.76.78-2.52,1.08-1.34.5-1.74.64a.88.88,0,0,0-.58.5,1.05,1.05,0,0,0-.06.78,1.1,1.1,0,0,0,.52.58,1,1,0,0,0,.76.06c.4-.14,1-.36,1.84-.68s1.74-.72,2.74-1.18a32,32,0,0,0,3-1.6,13.46,13.46,0,0,0,2.56-2,1,1,0,0,0,.32-.74.89.89,0,0,0-.32-.7.88.88,0,0,0-.7-.32m-22.45.77H9.92a1.09,1.09,0,0,0-.7.38.88.88,0,0,0-.2.7,1.06,1.06,0,0,0,.36.7l4.36,3.6a1,1,0,0,0,.74.24,1.06,1.06,0,0,0,.7-.36.93.93,0,0,0,.24-.74,1,1,0,0,0-.36-.7l-4.4-3.6a.85.85,0,0,0-.59-.23m7.14,7.76a1.24,1.24,0,0,0-.27,0L6.3,336a1,1,0,0,0-.6.46,1.13,1.13,0,0,0-.12.78.92.92,0,0,0,.46.62,1,1,0,0,0,.78.1L16,335.68l-.84,5.48-5.08,1.36a1,1,0,0,0-.6.46,1.13,1.13,0,0,0-.12.78,1,1,0,0,0,.48.6,1.12,1.12,0,0,0,.76.12L16.3,343a1,1,0,0,0,.72-.84l1.16-7.64a.86.86,0,0,0-.32-.88.89.89,0,0,0-.65-.27m5.33.49-.2,0a.88.88,0,0,0-.66.36,1,1,0,0,0-.22.76,20.63,20.63,0,0,1-.32,6.8,20,20,0,0,1-2.44,6.16,18.17,18.17,0,0,1-4.32,4.88,1.11,1.11,0,0,0-.38.7,1,1,0,0,0,.18.74,1.14,1.14,0,0,0,.7.38.9.9,0,0,0,.74-.22A20.2,20.2,0,0,0,20.36,349a22.64,22.64,0,0,0,2.72-6.8,22.4,22.4,0,0,0,.38-7.5,1,1,0,0,0-.36-.7.87.87,0,0,0-.56-.2m15,3.12a.75.75,0,0,0-.21,0l-12,1.8a.82.82,0,0,0-.64.38,1,1,0,0,0-.2.74,1.15,1.15,0,0,0,.4.66,1,1,0,0,0,.72.22l3.92-.6v20.92a1,1,0,0,0,.3.7,1,1,0,0,0,1.42,0,1,1,0,0,0,.28-.7V339.84l6.12-.92a1.1,1.1,0,0,0,.68-.4.89.89,0,0,0,.16-.72.88.88,0,0,0-.38-.68,1,1,0,0,0-.57-.18M6.7,339.16a1.08,1.08,0,0,0-.7.34.82.82,0,0,0-.26.7,25.07,25.07,0,0,1-.46,6.22,26.21,26.21,0,0,1-1.82,5.74,15.83,15.83,0,0,1-2.88,4.4.93.93,0,0,0-.28.7.94.94,0,0,0,.28.7,1.12,1.12,0,0,0,.74.28A1,1,0,0,0,2,358a17.05,17.05,0,0,0,3.22-4.82,27.78,27.78,0,0,0,2-6.26,28,28,0,0,0,.5-6.76,1,1,0,0,0-1-1M31,379.49a.63.63,0,0,0-.19,0,.8.8,0,0,0-.54.4.82.82,0,0,0-.08.62.9.9,0,0,0,.36.54l7,4.4a1,1,0,0,0,.66.08.79.79,0,0,0,.5-.36.88.88,0,0,0,.12-.66.84.84,0,0,0-.4-.54l-7-4.36a.7.7,0,0,0-.43-.15m-14,1.94a1,1,0,0,0-.61.23,1,1,0,0,0-.36.7,53.51,53.51,0,0,1-1.68,8.92c-1.23.21-2.49.48-3.78.8l-3.7.92a1,1,0,0,0-.6.46,1.13,1.13,0,0,0-.12.78.87.87,0,0,0,.46.6,1.18,1.18,0,0,0,.78.12l3.1-.78c1.11-.28,2.19-.53,3.26-.74A65.75,65.75,0,0,1,10,402.6a45.41,45.41,0,0,1-4.78,7.8.84.84,0,0,0-.22.72,1.14,1.14,0,0,0,.38.68,1,1,0,0,0,.74.18,1,1,0,0,0,.66-.38,49.7,49.7,0,0,0,5.2-8.52,63.92,63.92,0,0,0,3.88-10c.61-.11,1.19-.2,1.74-.26a11.9,11.9,0,0,1,1.5-.1,2.77,2.77,0,0,1,2,.56,3.13,3.13,0,0,1,.52,2.16,45.79,45.79,0,0,1-.84,7A21.76,21.76,0,0,1,19,407.84c-.53,1.09-1.12,1.64-1.76,1.64a2.11,2.11,0,0,1-1.42-.88,10.7,10.7,0,0,1-1.5-2.36.91.91,0,0,0-.58-.5.89.89,0,0,0-.78.06.81.81,0,0,0-.52.56,1,1,0,0,0,0,.76c1.47,2.9,3.05,4.36,4.76,4.36,1.47,0,2.65-.92,3.56-2.76a24.52,24.52,0,0,0,1.9-5.82,45.5,45.5,0,0,0,.9-7.42,4.67,4.67,0,0,0-1.08-3.64,4.63,4.63,0,0,0-3.44-1.16q-.6,0-1.26.06c-.44,0-.9.08-1.38.14.37-1.42.69-2.82.94-4.22s.43-2.77.54-4.1a1,1,0,0,0-.22-.76.93.93,0,0,0-.7-.36h-.11m11.56,1.82a.63.63,0,0,0-.19,0,.8.8,0,0,0-.54.4.82.82,0,0,0-.08.62.9.9,0,0,0,.36.54l7,4.4a1,1,0,0,0,.66.08.79.79,0,0,0,.5-.36.88.88,0,0,0,.12-.66.7.7,0,0,0-.4-.5l-7-4.4a.7.7,0,0,0-.43-.15m-1,6.28-.23,0a1,1,0,0,0-.66.4.94.94,0,0,0-.14.78,1,1,0,0,0,.42.62,22.6,22.6,0,0,1,3.4,2.76,26.21,26.21,0,0,1,2.9,3.32,15.21,15.21,0,0,1,1.9,3.32,1.17,1.17,0,0,0,.56.56,1,1,0,0,0,.76,0,1.17,1.17,0,0,0,.56-.56.92.92,0,0,0,0-.76,17.38,17.38,0,0,0-2.1-3.66,28.11,28.11,0,0,0-3.16-3.64,25.64,25.64,0,0,0-3.7-3,.9.9,0,0,0-.51-.15m-9.82,44.14a.9.9,0,0,0-.47.13,1,1,0,0,0-.48.6l-.14.64c-.09.42-.2,1-.32,1.6s-.24,1.3-.36,2-.22,1.32-.3,1.88L5.9,442a.82.82,0,0,0-.64.38,1.1,1.1,0,0,0-.2.78,1,1,0,0,0,.4.64,1,1,0,0,0,.72.2l9.16-1.4q-.16,1.71-.24,3.36c0,1.09-.07,2.1,0,3v.28a16.06,16.06,0,0,0-5.64,4.28,14.47,14.47,0,0,0-3,5.52,7.1,7.1,0,0,0-.22,3.34,3.29,3.29,0,0,0,1.38,2.18,3.2,3.2,0,0,0,2.18.52,5.24,5.24,0,0,0,2.5-1A30.56,30.56,0,0,0,17,459.64c.13.29.25.58.36.86s.21.55.32.82a1.09,1.09,0,0,0,.58.54,1,1,0,0,0,.74,0,1.17,1.17,0,0,0,.56-.58.89.89,0,0,0,0-.78c-.16-.38-.33-.78-.5-1.22s-.34-.92-.5-1.42A42.43,42.43,0,0,0,21.28,454a34.14,34.14,0,0,0,2.3-4.36,12.51,12.51,0,0,1,4.5,1A6.21,6.21,0,0,1,31.42,459a9.28,9.28,0,0,1-3.06,3.78A12.85,12.85,0,0,1,23.42,465a.9.9,0,0,0-.62.42,1,1,0,0,0-.14.78.92.92,0,0,0,.44.62,1.07,1.07,0,0,0,.76.14,14.27,14.27,0,0,0,5.8-2.64,11.37,11.37,0,0,0,3.6-4.6,8.55,8.55,0,0,0,.68-4,8.25,8.25,0,0,0-1.32-3.84A8.11,8.11,0,0,0,29.36,449a13.54,13.54,0,0,0-5-1.38c.08-.22.16-.42.24-.62a5.74,5.74,0,0,0,.2-.58,1,1,0,0,0-.06-.76.9.9,0,0,0-.58-.48.86.86,0,0,0-.78,0,1,1,0,0,0-.5.6,8.21,8.21,0,0,0-.3.84,8.8,8.8,0,0,1-.34.88,17.89,17.89,0,0,0-2.66.26,15.49,15.49,0,0,0-2.5.62c0-.91,0-1.9.06-3s.11-2.14.22-3.2l14.36-2.16a1.08,1.08,0,0,0,.68-.42.94.94,0,0,0,.16-.74.88.88,0,0,0-.38-.68,1,1,0,0,0-.78-.16l-13.8,2.08c.13-.94.28-1.86.44-2.76s.33-1.74.52-2.48a1,1,0,0,0-.68-1.24,1,1,0,0,0-.29-.05m.25,21.77c-.19-.75-.34-1.52-.46-2.32s-.21-1.66-.26-2.56a17.46,17.46,0,0,1,2.06-.6,14.14,14.14,0,0,1,2.18-.32c-.51,1-1.06,2-1.66,3s-1.22,1.9-1.86,2.78m-8.45,7.69a1.24,1.24,0,0,1-.71-.21,2,2,0,0,1-.56-1.1,4.71,4.71,0,0,1,.2-2.26,12.34,12.34,0,0,1,2.42-4.46,14.68,14.68,0,0,1,4.42-3.62c.11,1.12.25,2.18.44,3.18a24.6,24.6,0,0,0,.68,2.78c-.88,1-1.76,1.94-2.64,2.8a24.75,24.75,0,0,1-2.6,2.2,3,3,0,0,1-1.65.69M29.24,489.3l-.22,0L8.34,492.24a.82.82,0,0,0-.64.38,1.1,1.1,0,0,0-.2.78,1,1,0,0,0,.4.64,1,1,0,0,0,.72.2l17.56-2.48-3.78,3.48c-1.37,1.25-2.81,2.54-4.3,3.88l-5.8,5.28a1.06,1.06,0,0,0-.32.68.91.91,0,0,0,.24.72,1.25,1.25,0,0,0,.7.34.8.8,0,0,0,.7-.22,11.74,11.74,0,0,1,4.4-2.48,9.37,9.37,0,0,1,4.5-.26,7.15,7.15,0,0,1,3.78,2,6.38,6.38,0,0,1,1.82,3.36,7.49,7.49,0,0,1-.26,4,7.8,7.8,0,0,1-3.24,4,8.24,8.24,0,0,0-1.54-3.16,5.09,5.09,0,0,0-2-1.48,5.48,5.48,0,0,0-2-.4,6.21,6.21,0,0,0-3.06.64,4.58,4.58,0,0,0-2,1.92,3.75,3.75,0,0,0-.48,2,3.64,3.64,0,0,0,.64,1.92,4.48,4.48,0,0,0,2.42,1.74,9,9,0,0,0,3.7.34,12.48,12.48,0,0,0,6-2.18,9.49,9.49,0,0,0,3.46-4.7,9.07,9.07,0,0,0,.36-5.1,8.39,8.39,0,0,0-2.36-4.34,8,8,0,0,0-4.36-2.2,12.59,12.59,0,0,0-5.12.08l7-6.38c1.68-1.54,2.86-2.62,3.54-3.26l1-1a.88.88,0,0,0,.2-1.16.83.83,0,0,0-.82-.58M19.09,518.09a6.34,6.34,0,0,1-1.63-.19,2.64,2.64,0,0,1-1.6-1,1.7,1.7,0,0,1,0-1.84c.56-1,1.64-1.52,3.24-1.52a4.4,4.4,0,0,1,1,.18,3.09,3.09,0,0,1,1.42,1,6.71,6.71,0,0,1,1.26,2.76,9.16,9.16,0,0,1-2.68.6c-.35,0-.69.05-1,.05M18.13,0l.23,0a1.55,1.55,0,0,1,.85.5v0l2.91,3.79a1.13,1.13,0,0,1,.26,1,1.29,1.29,0,0,1-.5.84,1.12,1.12,0,0,1-.95.28A1.45,1.45,0,0,1,20.07,6v0L17.15,2.11a1.14,1.14,0,0,1-.26-1,1.31,1.31,0,0,1,.5-.84A1.16,1.16,0,0,1,18.13,0Zm-11,5.56.22,0A1.36,1.36,0,0,1,8.27,6a1.29,1.29,0,0,1,.29,1,16.89,16.89,0,0,1-1,4.22,16.94,16.94,0,0,1-1.85,3.69h0a1.32,1.32,0,0,1-.84.51,1.18,1.18,0,0,1-1-.21,1.21,1.21,0,0,1-.55-.86,1.25,1.25,0,0,1,.24-1A12.83,12.83,0,0,0,5.14,10.3,14.41,14.41,0,0,0,6,6.73a1.31,1.31,0,0,1,.47-.91A1.16,1.16,0,0,1,7.16,5.56Zm28.21.3h0a1.36,1.36,0,0,1,1.15.55,1.18,1.18,0,0,1,.17,1.3h0l-3,6.68a1.19,1.19,0,0,1-.74.7,1.41,1.41,0,0,1-1,0l0,0a1.39,1.39,0,0,1-.63-.74,1.23,1.23,0,0,1,0-1l2.1-4.66L9.93,10.82H9.79a1.27,1.27,0,0,1-.8-.29,1.22,1.22,0,0,1-.47-.86,1.29,1.29,0,0,1,.29-1,1.19,1.19,0,0,1,.86-.47ZM20.29,10.29a1.16,1.16,0,0,1,.83.33,1.34,1.34,0,0,1,.44.91h0L21.67,14l5.27-.45a1.08,1.08,0,0,1,1,.28,1.36,1.36,0,0,1,.44.85,1.19,1.19,0,0,1-.27,1,1.29,1.29,0,0,1-.88.49h0l-5.53.46c0,.41,0,.8-.05,1.19s0,.69-.06,1l3.75-.33h.14a1.23,1.23,0,0,1,.83.3,1.34,1.34,0,0,1,.44.9,1.25,1.25,0,0,1-.29.94,1.31,1.31,0,0,1-.9.47l-4.29.38c-.07.43-.16.84-.25,1.24s-.15.66-.24,1l12.17-1h.14a1.29,1.29,0,0,1,1.3,1.2,1.26,1.26,0,0,1-.29.94,1.31,1.31,0,0,1-.9.47L19.82,26.4a14.5,14.5,0,0,1-4.93,6.08,28.28,28.28,0,0,1-8.75,3.93,1.57,1.57,0,0,1-.37.05,1.25,1.25,0,0,1-.62-.16,1.28,1.28,0,0,1-.62-.78v0a1.49,1.49,0,0,1,.16-1,1.12,1.12,0,0,1,.79-.58,27.24,27.24,0,0,0,7.29-3.1,12.9,12.9,0,0,0,4-4.15l-9.23.76a1.26,1.26,0,0,1-1-.32,1.31,1.31,0,0,1-.46-.87,1.25,1.25,0,0,1,.31-.95,1.32,1.32,0,0,1,.88-.46h0L18,24c.21-.68.4-1.43.57-2.23l-4.83.45H13.6a1.18,1.18,0,0,1-.82-.32,1.31,1.31,0,0,1-.46-.87,1.22,1.22,0,0,1,.32-1,1.34,1.34,0,0,1,.87-.43l5.4-.5c0-.37.07-.74.09-1.12s0-.73,0-1.12l-6.19.54h-.13a1.18,1.18,0,0,1-.82-.32,1.45,1.45,0,0,1-.49-.84v0a1.21,1.21,0,0,1,.32-1,1.34,1.34,0,0,1,.87-.43L19,14.2c0-.81-.05-1.65-.12-2.5v0a1.36,1.36,0,0,1,1.23-1.38Zm3.44,17.12a1.2,1.2,0,0,1,.69.22l10.33,6.48a1.27,1.27,0,0,1,.56.83,1.34,1.34,0,0,1-.15,1v0a1.27,1.27,0,0,1-.83.57,1.37,1.37,0,0,1-1-.15h0L23,29.81a1.21,1.21,0,0,1-.55-.78,1.29,1.29,0,0,1,.13-1v0a1.34,1.34,0,0,1,.82-.58A1,1,0,0,1,23.73,27.41Zm6.1,27.87a1.36,1.36,0,0,1,1.29,1.32V75.08a1.33,1.33,0,0,1-1.3,1.3,1.35,1.35,0,0,1-.93-.38,1.25,1.25,0,0,1-.41-.92V58.15L20.2,59.49V74.42l3.95-.87a1.4,1.4,0,0,1,.34,0,1.2,1.2,0,0,1,1,.51v0a1.38,1.38,0,0,1,.15,1.37v0A27,27,0,0,1,23,79.36c-1.09,1.38-2.31,2.77-3.64,4.15a50.11,50.11,0,0,1-4.19,3.84,37.76,37.76,0,0,1-4.23,3h0a1.39,1.39,0,0,1-1,.13,1.21,1.21,0,0,1-.81-.61,1.26,1.26,0,0,1-.13-1,1.31,1.31,0,0,1,.58-.82h0a33.74,33.74,0,0,0,4.56-3.29,51.26,51.26,0,0,0,4.45-4.28,39.82,39.82,0,0,0,3.09-3.75l-2.54.55a1.33,1.33,0,0,1-1.06-.25l0,0a1.29,1.29,0,0,1-.46-1V58.36a1.29,1.29,0,0,1,.31-.85,1.15,1.15,0,0,1,.79-.45L29.61,55.3Zm-16.8,3a1.24,1.24,0,0,1,.69.21,1.19,1.19,0,0,1,.55.81,1.32,1.32,0,0,1-.17,1,1.21,1.21,0,0,1-.82.58L4.61,62.62H4.46a1.46,1.46,0,0,1-.8-.23,1.19,1.19,0,0,1-.57-.81h0a1.37,1.37,0,0,1,.21-1A1.33,1.33,0,0,1,4.12,60l8.64-1.72ZM26.31,62a1.29,1.29,0,0,1,1.28,1.1h0a1.23,1.23,0,0,1-.2,1,1.3,1.3,0,0,1-.88.54l-4.14.73a1.38,1.38,0,0,1-.94-.26,1.24,1.24,0,0,1-.54-.82v0a1.41,1.41,0,0,1,.25-1,1.33,1.33,0,0,1,.83-.54h0L26.05,62Zm-16.89.18a1.31,1.31,0,0,1,.94.36,1.2,1.2,0,0,1,.4.94v3.58l2.06-.51a1.23,1.23,0,0,1,1,.11,1.16,1.16,0,0,1,.58.83,1.22,1.22,0,0,1-.11,1,1.26,1.26,0,0,1-.82.63l-2.7.7v5.69l3-2a1.43,1.43,0,0,1,1-.16,1.29,1.29,0,0,1,.82.52h0a1.23,1.23,0,0,1,.18,1,1.25,1.25,0,0,1-.55.8L3.63,83.33a1.3,1.3,0,0,1-1,.2A1.27,1.27,0,0,1,1.82,83a1.13,1.13,0,0,1-.19-1,1.39,1.39,0,0,1,.53-.83h0l5.94-3.91V70.46l-3.68,1a1.41,1.41,0,0,1-1-.15,1.13,1.13,0,0,1-.61-.8h0a1.49,1.49,0,0,1,.16-1,1.14,1.14,0,0,1,.79-.58l4.33-1.14V63.48a1.2,1.2,0,0,1,.4-.94A1.27,1.27,0,0,1,9.42,62.18ZM26.31,67a1.29,1.29,0,0,1,1.28,1.1h0a1.23,1.23,0,0,1-.2,1,1.3,1.3,0,0,1-.88.54l-4.14.73a1.38,1.38,0,0,1-.94-.26,1.24,1.24,0,0,1-.54-.82v0a1.41,1.41,0,0,1,.25-1,1.33,1.33,0,0,1,.83-.54h0l4.08-.72ZM25.38,78.3a1.24,1.24,0,0,1,.93.37,1.23,1.23,0,0,1,.37.93v4.12a3.32,3.32,0,0,0,1.7,3.06h0a6.55,6.55,0,0,0,2.7.92,12.79,12.79,0,0,0,1.52.09,12.62,12.62,0,0,0,1.72-.11A12.93,12.93,0,0,0,37.14,87l-1.41-5.17a1.23,1.23,0,0,1,.11-1,1.26,1.26,0,0,1,.77-.62h0a1.26,1.26,0,0,1,1.61.93L40,87.45a1.24,1.24,0,0,1-.1.86,1.33,1.33,0,0,1-.62.64A15.65,15.65,0,0,1,31,90.34,9.49,9.49,0,0,1,27,89a5.89,5.89,0,0,1-2.9-5.29V79.6a1.2,1.2,0,0,1,.4-.94A1.27,1.27,0,0,1,25.38,78.3Zm5,33.67a1.31,1.31,0,0,1,.38.06,1.26,1.26,0,0,1,.77.62,1.23,1.23,0,0,1,.11,1,1.28,1.28,0,0,1-.62.78h0c-.72.38-1.54.77-2.44,1.17s-1.85.79-2.86,1.16a8.11,8.11,0,0,0-2.21,2,18,18,0,0,0-2.16,3.34,22.35,22.35,0,0,0-1.6,4.07,14.75,14.75,0,0,0-.61,4.12,8.2,8.2,0,0,0,2.42,6.38,9.69,9.69,0,0,0,6.78,2.21c.59,0,1.22,0,1.87-.09h.15a1.29,1.29,0,0,1,1.3,1.2,1.26,1.26,0,0,1-.29.94,1.31,1.31,0,0,1-.9.47c-.69.06-1.38.1-2,.1a16.32,16.32,0,0,1-4-.49,11,11,0,0,1-4.6-2.37h0a10.84,10.84,0,0,1-3.26-8.34,17,17,0,0,1,.63-4.58,22.14,22.14,0,0,1,1.68-4.28,24,24,0,0,1,1.75-2.87c-1.45.44-2.94.85-4.45,1.24-1.8.46-3.58.87-5.27,1.2s-3.28.59-4.73.75H6a1.18,1.18,0,0,1-.82-.32,1.31,1.31,0,0,1-.46-.87,1.29,1.29,0,0,1,.29-1,1.19,1.19,0,0,1,.86-.47,56.93,56.93,0,0,0,5.93-1c2.17-.46,4.4-1,6.64-1.67s4.36-1.35,6.33-2.09a44.41,44.41,0,0,0,5-2.19A1.32,1.32,0,0,1,30.41,112Zm.95,5.37a1,1,0,0,1,.8.38l5.73,6a1.18,1.18,0,0,1,.29.85,1.16,1.16,0,0,1-.35.8v0a1.29,1.29,0,0,1-.82.31,1,1,0,0,1-.8-.38l-5.71-6a1.06,1.06,0,0,1-.31-.83,1.16,1.16,0,0,1,.35-.79v0A1.24,1.24,0,0,1,31.36,117.34Zm-3.34,3a1,1,0,0,1,.82.38l5.69,6a1.1,1.1,0,0,1-.06,1.65,1,1,0,0,1-.83.31,1.2,1.2,0,0,1-.79-.35h0l-5.68-6a1.13,1.13,0,0,1-.32-.81,1,1,0,0,1,.38-.82A1.09,1.09,0,0,1,28,120.38ZM16.28,164.2a1.26,1.26,0,0,1,.33.05,1.18,1.18,0,0,1,.79.6L20,169.23c.94-.37,1.81-.75,2.6-1.12a17.94,17.94,0,0,0,2.1-1.16,1.39,1.39,0,0,1,1-.21,1.18,1.18,0,0,1,.81.57,1.09,1.09,0,0,1,0,1.15l-.27.62-.07,0a18.52,18.52,0,0,1-2.26,1.26c-.8.38-1.67.76-2.59,1.12l1.84,3.15c1.4-.6,2.74-1.22,4-1.83a28.25,28.25,0,0,0,3.36-1.92,1.27,1.27,0,0,1,1.81.35,1.07,1.07,0,0,1,0,1.17L32,173l-.07.05a31.45,31.45,0,0,1-3.52,2c-1.24.62-2.56,1.23-3.94,1.83l4.11,7a1.3,1.3,0,0,1-.1,1.47v0a1.25,1.25,0,0,1-1,.48,1.72,1.72,0,0,1-.44-.06h0a10,10,0,0,0-3.24-.53,9.34,9.34,0,0,0-1.05.05,8.92,8.92,0,0,0-3.89,1.21h0a1.37,1.37,0,0,1-1,.15,1.27,1.27,0,0,1-.83-.57v0a1.31,1.31,0,0,1-.13-1,1.25,1.25,0,0,1,.55-.81,10.78,10.78,0,0,1,3.77-1.42,14,14,0,0,1,2.58-.24c.35,0,.7,0,1.05,0l-2.81-4.79c-2.29.92-4.64,1.75-7,2.47a65.62,65.62,0,0,1-6.47,1.69,1.33,1.33,0,0,1-1.55-1,1.27,1.27,0,0,1,.2-1,1.33,1.33,0,0,1,.83-.54c1.74-.37,3.79-.91,6.09-1.61s4.39-1.43,6.53-2.28l-1.89-3.25c-1.48.5-3,1-4.51,1.37s-3.1.78-4.46,1H9.66a1.37,1.37,0,0,1-.78-.23,1.22,1.22,0,0,1-.55-.81v0a1.48,1.48,0,0,1,.23-1,1.23,1.23,0,0,1,.81-.55h0c1.24-.21,2.61-.52,4.07-.91s2.7-.77,4-1.2l-2.29-3.93a1.31,1.31,0,0,1-.13-1,1.17,1.17,0,0,1,.6-.81A1.28,1.28,0,0,1,16.28,164.2Zm.3,23.08.24,0a1,1,0,0,1,.88.77l.23.62v.07a4,4,0,0,0,1.27,3.63,6.72,6.72,0,0,0,3.3,1.63,10.92,10.92,0,0,0,2.38.26A13.24,13.24,0,0,0,27,194.1a1.34,1.34,0,0,1,1,.21,1.2,1.2,0,0,1,.51.84,1.3,1.3,0,0,1-.21,1,1.27,1.27,0,0,1-.83.57h0a16.26,16.26,0,0,1-2.73.24,12.86,12.86,0,0,1-3-.34,9.18,9.18,0,0,1-4.4-2.34,6.51,6.51,0,0,1-2-5.86h0a1.31,1.31,0,0,1,.55-.87A1.25,1.25,0,0,1,16.58,187.28ZM29.24,219a1.14,1.14,0,0,1,1.09.74,1.19,1.19,0,0,1-.26,1.51h0l-1,1c-.68.63-1.87,1.73-3.55,3.26-1.52,1.39-3.63,3.3-6.26,5.68A12.72,12.72,0,0,1,21,231a13.69,13.69,0,0,1,2.45.22A8.29,8.29,0,0,1,28,233.55,8.63,8.63,0,0,1,30.39,238,9.31,9.31,0,0,1,30,243.3a9.77,9.77,0,0,1-3.56,4.84,12.9,12.9,0,0,1-6.13,2.24h0c-.38,0-.76.05-1.12.05a8.54,8.54,0,0,1-2.7-.41,4.79,4.79,0,0,1-2.58-1.86,3.85,3.85,0,0,1-.69-2.07,4.16,4.16,0,0,1,.52-2.16,5,5,0,0,1,2.14-2,6.69,6.69,0,0,1,3.2-.67,5.87,5.87,0,0,1,2.11.42,5.5,5.5,0,0,1,2.1,1.56,8.15,8.15,0,0,1,1.48,2.88,7.55,7.55,0,0,0,2.79-3.62,7.3,7.3,0,0,0,.25-3.84,6.14,6.14,0,0,0-1.74-3.21,6.91,6.91,0,0,0-3.63-1.94,8.83,8.83,0,0,0-1.63-.15,9.47,9.47,0,0,0-2.73.41,11.53,11.53,0,0,0-4.28,2.41,1,1,0,0,1-.94.29A1.43,1.43,0,0,1,12,236h0a1.25,1.25,0,0,1-.31-.95,1.37,1.37,0,0,1,.41-.86h0l5.8-5.28c1.49-1.33,2.93-2.64,4.3-3.88l3.07-2.83L8.65,224.54a1.34,1.34,0,0,1-.93-.26,1.3,1.3,0,0,1-.51-.82v0a1.46,1.46,0,0,1,.25-1,1.2,1.2,0,0,1,.85-.5L29,219Zm-6.82,28.25a6.14,6.14,0,0,0-1.12-2.37A2.79,2.79,0,0,0,20,244a4.3,4.3,0,0,0-1-.17c-1.5,0-2.47.44-3,1.36a1.41,1.41,0,0,0,0,1.53,2.38,2.38,0,0,0,1.43.9,6.17,6.17,0,0,0,1.55.18,8.36,8.36,0,0,0,1,0h0A8.91,8.91,0,0,0,22.42,247.25ZM31,270.58h0a1.66,1.66,0,0,1,1,.38l0,0v0a1.32,1.32,0,0,1,.32,1.12L30.91,281a1.24,1.24,0,0,1-1.14,1.08l-8.88,1h-.17a1.24,1.24,0,0,1-1.22-.93v0l-2.36-8.6a1.24,1.24,0,0,1,.2-1.08,1.21,1.21,0,0,1,.92-.58h0Zm-2.48,9,1-6.23-9.46.93,1.64,6.05ZM9.14,273.74a1.24,1.24,0,0,1,.93.37,1.23,1.23,0,0,1,.37.93v6.86l2.8-.64a1.42,1.42,0,0,1,1,.18,1.21,1.21,0,0,1,.57.82,1.32,1.32,0,0,1-.17,1,1.19,1.19,0,0,1-.82.58l-3.36.75v6.88l3.22-2.1a1.36,1.36,0,0,1,1-.16,1.34,1.34,0,0,1,.84.52h0v0a1.38,1.38,0,0,1,.15,1,1.1,1.1,0,0,1-.57.82L3.18,299.29a1.31,1.31,0,0,1-1,.2,1.18,1.18,0,0,1-.82-.58,1.25,1.25,0,0,1-.19-1,1.27,1.27,0,0,1,.56-.83l6.11-4v-8l-4.48,1-.27,0a1.33,1.33,0,0,1-.71-.21,1.19,1.19,0,0,1-.57-.81,1.35,1.35,0,0,1,.17-1,1.24,1.24,0,0,1,.82-.58l5-1.1V275a1.2,1.2,0,0,1,.4-.94A1.27,1.27,0,0,1,9.14,273.74Zm17.64,1.58a1.2,1.2,0,0,1,.75.26,1.33,1.33,0,0,1,.47.89,1.22,1.22,0,0,1-.24,1,1.29,1.29,0,0,1-.91.5l-3.32.4a1.31,1.31,0,0,1-1-.28,1.23,1.23,0,0,1-.5-.87,1.29,1.29,0,0,1,.29-1,1.22,1.22,0,0,1,.86-.47l3.31-.4Zm10.75,7.76a1.15,1.15,0,0,1,.77.29,1.32,1.32,0,0,1,.18,1.83,1.25,1.25,0,0,1-.91.5L25.7,286.92a26.41,26.41,0,0,1-4.55,4.65,34.94,34.94,0,0,1-6.15,4l0,0a1.54,1.54,0,0,1-1,.07,1.17,1.17,0,0,1-.77-.66h0a1.41,1.41,0,0,1-.08-.95,1.18,1.18,0,0,1,.66-.8,32.22,32.22,0,0,0,4.77-3,27.58,27.58,0,0,0,3.36-3l-7,.72a1.22,1.22,0,0,1-1-.32,1.45,1.45,0,0,1-.49-.84v0a1.21,1.21,0,0,1,.32-1,1.34,1.34,0,0,1,.87-.43L37.3,283.1Zm-2.8,5.5h0a1.29,1.29,0,0,1,1,.37l0,0a1.56,1.56,0,0,1,.39,1v0a28.68,28.68,0,0,1-.63,4.12c-.33,1.55-.75,3.15-1.24,4.75a46.29,46.29,0,0,1-1.65,4.51,22.36,22.36,0,0,1-1.81,3.44,1.17,1.17,0,0,1-.79.53,1.5,1.5,0,0,1-.94-.1l0,0-4.95-3a1.23,1.23,0,0,1-.6-.79,1.29,1.29,0,0,1,.13-1v0a1.34,1.34,0,0,1,.82-.58,1.29,1.29,0,0,1,1,.13h0l3.86,2.28a27.14,27.14,0,0,0,1.19-2.59c.45-1.12.88-2.34,1.27-3.6s.75-2.53,1-3.76c.25-1.08.45-2.08.58-3l-7.78.58a1.21,1.21,0,0,1-1-.34,1.44,1.44,0,0,1-.45-.89,1.25,1.25,0,0,1,.31-.95,1.32,1.32,0,0,1,.88-.46h0ZM23.5,291.77a1.26,1.26,0,0,1,.84.32,1.36,1.36,0,0,1,.46.9,1.28,1.28,0,0,1-.31,1,19.69,19.69,0,0,1-2.91,2.7,37.81,37.81,0,0,1-3.53,2.4c-1.2.72-2.32,1.34-3.34,1.85h0a1.44,1.44,0,0,1-1,0,1.25,1.25,0,0,1-.76-.67h0a1.35,1.35,0,0,1-.06-1,1.25,1.25,0,0,1,.68-.78c1-.5,2.08-1.1,3.22-1.77A32,32,0,0,0,20,294.58a14.53,14.53,0,0,0,2.45-2.33h0a1.32,1.32,0,0,1,.9-.46Zm4.2,1.51a1.34,1.34,0,0,1,.73.23h0a1.28,1.28,0,0,1,.51.82,1.34,1.34,0,0,1-.15,1v0a21.21,21.21,0,0,1-2.56,3,34.58,34.58,0,0,1-3.37,2.91c-1.21.92-2.45,1.77-3.68,2.53a28.33,28.33,0,0,1-3.48,1.88h0a1.44,1.44,0,0,1-1,0A1.11,1.11,0,0,1,14,305a1.44,1.44,0,0,1-.05-1,1.16,1.16,0,0,1,.69-.73,28.15,28.15,0,0,0,3.18-1.74,41,41,0,0,0,3.42-2.36,35.94,35.94,0,0,0,3.11-2.68,16.5,16.5,0,0,0,2.28-2.67,1.27,1.27,0,0,1,.83-.57Zm4.82,31.22a1.15,1.15,0,0,1,.91.41,1.18,1.18,0,0,1,.41.91,1.31,1.31,0,0,1-.41.95,14,14,0,0,1-2.61,2,31.61,31.61,0,0,1-3,1.62c-1,.47-1.93.87-2.76,1.19s-1.45.55-1.86.68h0a1.32,1.32,0,0,1-1-.08,1.43,1.43,0,0,1-.67-.74v0a1.36,1.36,0,0,1,.08-1,1.22,1.22,0,0,1,.76-.66c.39-.13,1-.34,1.72-.63s1.59-.65,2.5-1.07a28.65,28.65,0,0,0,2.72-1.45,11.79,11.79,0,0,0,2.26-1.73A1.27,1.27,0,0,1,32.52,324.5Zm-22.45.77a1.16,1.16,0,0,1,.78.3l4.41,3.6a1.36,1.36,0,0,1,.46.9,1.28,1.28,0,0,1-.31,1,1.36,1.36,0,0,1-.9.46,1.25,1.25,0,0,1-1-.31l-4.37-3.61a1.34,1.34,0,0,1-.46-.89,1.23,1.23,0,0,1,.27-.93,1.43,1.43,0,0,1,.89-.48ZM17.21,333a1.21,1.21,0,0,1,.86.35,1.14,1.14,0,0,1,.4,1.16l-1.15,7.62a1.23,1.23,0,0,1-.93,1.08h0l-5.74,1.52a1.37,1.37,0,0,1-1-.15,1.28,1.28,0,0,1-.62-.78v0a1.42,1.42,0,0,1,.16-1,1.26,1.26,0,0,1,.77-.6h0l4.89-1.31.75-4.84L6.9,338.25a1.29,1.29,0,0,1-1-.13,1.19,1.19,0,0,1-.6-.82h0a1.42,1.42,0,0,1,.16-1,1.26,1.26,0,0,1,.77-.6h0l10.65-2.65Zm5.33.49a1.2,1.2,0,0,1,.75.26,1.29,1.29,0,0,1,.47.91,22.94,22.94,0,0,1-.39,7.59,23.12,23.12,0,0,1-2.75,6.89,20.31,20.31,0,0,1-4.81,5.46,1.15,1.15,0,0,1-1,.28,1.47,1.47,0,0,1-.89-.47v0a1.25,1.25,0,0,1-.24-1,1.41,1.41,0,0,1,.48-.89h0a17.59,17.59,0,0,0,4.25-4.8,19.57,19.57,0,0,0,2.41-6.07,20.56,20.56,0,0,0,.31-6.7h0a1.28,1.28,0,0,1,.29-1,1.26,1.26,0,0,1,.85-.47Zm15,3.12a1.3,1.3,0,0,1,.74.23,1.36,1.36,0,0,1,.29,1.83,1.34,1.34,0,0,1-.87.51h0l-5.86.89v21a1.27,1.27,0,0,1-.36.9,1.31,1.31,0,0,1-2.24-.9V340.51l-3.59.55a1.29,1.29,0,0,1-.94-.29,1.37,1.37,0,0,1-.5-.83v0a1.41,1.41,0,0,1,.25-1,1.2,1.2,0,0,1,.85-.5l12-1.8ZM6.69,338.86h0A1.31,1.31,0,0,1,8,340.09H8a28.11,28.11,0,0,1-.51,6.84,27.65,27.65,0,0,1-2,6.32,17.12,17.12,0,0,1-3.28,4.91,1.25,1.25,0,0,1-.91.37,1.38,1.38,0,0,1-.94-.36h0a1.3,1.3,0,0,1,0-1.82A15.46,15.46,0,0,0,3.19,352,26.67,26.67,0,0,0,5,346.36a25.39,25.39,0,0,0,.45-6.14,1.14,1.14,0,0,1,.35-.93,1.39,1.39,0,0,1,.88-.43ZM31,379.19a1.05,1.05,0,0,1,.6.2l7,4.35a1.16,1.16,0,0,1,.38,1.61,1,1,0,0,1-.69.5,1.28,1.28,0,0,1-.86-.1l0,0-7-4.41a1.17,1.17,0,0,1-.48-.71,1.1,1.1,0,0,1,.11-.84h0a1.13,1.13,0,0,1,.72-.53A1.17,1.17,0,0,1,31,379.19Zm-14,1.94h.14a1.24,1.24,0,0,1,.9.47,1.28,1.28,0,0,1,.29,1c-.11,1.34-.29,2.73-.54,4.13s-.51,2.55-.84,3.82l.95-.09q.68-.06,1.29-.06a5,5,0,0,1,3.65,1.25,5,5,0,0,1,1.17,3.86A44.89,44.89,0,0,1,23,403a24.52,24.52,0,0,1-1.92,5.89c-1,1.94-2.25,2.93-3.83,2.93a4,4,0,0,1-2.67-1.17,11.75,11.75,0,0,1-2.36-3.36h0a1.35,1.35,0,0,1-.06-1,1.16,1.16,0,0,1,.68-.74,1.24,1.24,0,0,1,1-.08,1.2,1.2,0,0,1,.76.66,10.56,10.56,0,0,0,1.45,2.29,1.91,1.91,0,0,0,1.2.78c.51,0,1-.5,1.49-1.47h0a21.37,21.37,0,0,0,1.74-5.38,46.39,46.39,0,0,0,.83-6.94,2.91,2.91,0,0,0-.44-1.94A2.56,2.56,0,0,0,19.1,393a11.19,11.19,0,0,0-1.46.1c-.49.05-1,.13-1.54.22a63.94,63.94,0,0,1-3.85,9.91A50.53,50.53,0,0,1,7,411.78a1.24,1.24,0,0,1-.86.49,1.21,1.21,0,0,1-1-.23l0,0a1.41,1.41,0,0,1-.48-.86,1.15,1.15,0,0,1,.29-1,45.73,45.73,0,0,0,4.74-7.74,64,64,0,0,0,3.49-8.64c-.9.19-1.82.4-2.75.64l-3.1.78h0a1.41,1.41,0,0,1-1-.15,1.13,1.13,0,0,1-.61-.8h0a1.42,1.42,0,0,1,.16-1,1.26,1.26,0,0,1,.77-.6h0l3.7-.92c1.23-.31,2.44-.57,3.61-.77a53.8,53.8,0,0,0,1.62-8.69,1.31,1.31,0,0,1,.47-.91A1.27,1.27,0,0,1,16.91,381.13ZM28.47,383a1.05,1.05,0,0,1,.6.2l7,4.39a1,1,0,0,1,.54.69,1.15,1.15,0,0,1-.15.88,1,1,0,0,1-.69.5,1.28,1.28,0,0,1-.86-.1l0,0-7-4.41a1.14,1.14,0,0,1-.48-.71,1.1,1.1,0,0,1,.11-.84h0a1.13,1.13,0,0,1,.72-.53A1.17,1.17,0,0,1,28.47,383Zm-1,6.28a1.3,1.3,0,0,1,.67.19h0a26.3,26.3,0,0,1,3.74,3.05A29.38,29.38,0,0,1,35,396.16a18.26,18.26,0,0,1,2.14,3.72,1.24,1.24,0,0,1,0,1,1.46,1.46,0,0,1-.7.71h0a1.26,1.26,0,0,1-1,0,1.42,1.42,0,0,1-.71-.7v0a14.8,14.8,0,0,0-1.86-3.25A26.4,26.4,0,0,0,30,394.33a23.22,23.22,0,0,0-3.35-2.72,1.25,1.25,0,0,1-.55-.8,1.23,1.23,0,0,1,.18-1h0a1.34,1.34,0,0,1,.84-.52Zm-9.82,44.14a1.31,1.31,0,0,1,.38.06,1.3,1.3,0,0,1,.88,1.61c-.18.73-.36,1.56-.51,2.45s-.27,1.56-.38,2.35l13.39-2a1.34,1.34,0,0,1,1,.21,1.19,1.19,0,0,1,.51.88,1.26,1.26,0,0,1-.21,1,1.3,1.3,0,0,1-.88.54h0l-14.12,2.13c-.1,1-.16,2-.2,2.95s-.05,1.75-.06,2.54a18.22,18.22,0,0,1,2.15-.51,20.71,20.71,0,0,1,2.51-.26,6.07,6.07,0,0,0,.25-.67c.1-.3.2-.58.31-.85a1.25,1.25,0,0,1,.64-.77,1.22,1.22,0,0,1,1-.06,1.24,1.24,0,0,1,.75.63,1.33,1.33,0,0,1,.08,1c-.06.2-.13.4-.21.61l-.1.25a13.81,13.81,0,0,1,4.7,1.37,8.51,8.51,0,0,1,4.74,6.94,9,9,0,0,1-.7,4.18,11.69,11.69,0,0,1-3.7,4.73,14.66,14.66,0,0,1-5.92,2.69l-.27,0a1.33,1.33,0,0,1-.71-.21,1.19,1.19,0,0,1-.57-.81h0a1.38,1.38,0,0,1,.19-1,1.23,1.23,0,0,1,.81-.55,12.51,12.51,0,0,0,4.82-2.2,9,9,0,0,0,3-3.66,6,6,0,0,0-.45-5.76A6.14,6.14,0,0,0,28,450.91a12.58,12.58,0,0,0-4.19-1,33.87,33.87,0,0,1-2.24,4.21,39.67,39.67,0,0,1-2.66,3.78c.15.44.3.86.45,1.25s.34.84.49,1.2a1.18,1.18,0,0,1,.05,1,1.46,1.46,0,0,1-.71.74h0a1.23,1.23,0,0,1-1,0,1.33,1.33,0,0,1-.75-.69v0c-.11-.27-.21-.55-.32-.83l-.17-.41a30,30,0,0,1-4.49,4.13,5.52,5.52,0,0,1-2.65,1.06,3.49,3.49,0,0,1-2.38-.58,3.54,3.54,0,0,1-1.5-2.36A7.42,7.42,0,0,1,6.13,459a14.91,14.91,0,0,1,3.06-5.63,16.53,16.53,0,0,1,5.57-4.28V449c0-.93,0-2,0-3.06s.12-2,.21-3l-8.8,1.35a1.34,1.34,0,0,1-.93-.26,1.3,1.3,0,0,1-.51-.82v0a1.46,1.46,0,0,1,.25-1,1.19,1.19,0,0,1,.85-.5l9.42-1.41c.07-.5.16-1.06.26-1.66s.25-1.37.37-2,.22-1.18.32-1.61l.14-.66a1.29,1.29,0,0,1,.62-.77A1.26,1.26,0,0,1,17.61,433.37ZM18,454.72c.5-.71,1-1.45,1.46-2.22s1-1.65,1.41-2.52a14.06,14.06,0,0,0-1.6.27,15.82,15.82,0,0,0-1.82.52c.06.81.14,1.58.25,2.3C17.78,453.63,17.88,454.19,18,454.72Zm-2,2.65a25.39,25.39,0,0,1-.63-2.66c-.17-.86-.3-1.79-.4-2.75A14.35,14.35,0,0,0,11,455.29a12.13,12.13,0,0,0-2.36,4.35,4.49,4.49,0,0,0-.2,2.11,1.69,1.69,0,0,0,.45.93,1,1,0,0,0,.53.15,2.7,2.7,0,0,0,1.47-.63A23.3,23.3,0,0,0,13.45,460C14.28,459.21,15.13,458.32,16,457.37ZM29.24,489a1.14,1.14,0,0,1,1.09.74,1.19,1.19,0,0,1-.26,1.51h0l-1,1c-.68.63-1.87,1.73-3.55,3.26-1.52,1.39-3.63,3.3-6.26,5.68A12.72,12.72,0,0,1,21,501a13.69,13.69,0,0,1,2.45.22A8.29,8.29,0,0,1,28,503.55,8.63,8.63,0,0,1,30.39,508,9.31,9.31,0,0,1,30,513.3a9.77,9.77,0,0,1-3.56,4.84,12.9,12.9,0,0,1-6.13,2.24h0c-.38,0-.76,0-1.12,0a8.54,8.54,0,0,1-2.7-.41,4.79,4.79,0,0,1-2.58-1.86,3.85,3.85,0,0,1-.69-2.07,4.16,4.16,0,0,1,.52-2.16,5,5,0,0,1,2.14-2,6.69,6.69,0,0,1,3.2-.67,5.87,5.87,0,0,1,2.11.42,5.5,5.5,0,0,1,2.1,1.56,8.15,8.15,0,0,1,1.48,2.88,7.55,7.55,0,0,0,2.79-3.62,7.3,7.3,0,0,0,.25-3.84,6.14,6.14,0,0,0-1.74-3.21,6.91,6.91,0,0,0-3.63-1.94,8.8,8.8,0,0,0-1.62-.15,9.49,9.49,0,0,0-2.74.41,11.53,11.53,0,0,0-4.28,2.41,1,1,0,0,1-.94.29A1.43,1.43,0,0,1,12,506h0a1.25,1.25,0,0,1-.31-.95,1.37,1.37,0,0,1,.41-.86h0l5.8-5.28c1.49-1.33,2.93-2.64,4.3-3.88l3.07-2.83L8.65,494.54a1.34,1.34,0,0,1-.93-.26,1.3,1.3,0,0,1-.51-.82v0a1.46,1.46,0,0,1,.25-1,1.2,1.2,0,0,1,.85-.5L29,489Zm-6.82,28.25a6.14,6.14,0,0,0-1.12-2.37A2.79,2.79,0,0,0,20,514a4.3,4.3,0,0,0-1-.17c-1.5,0-2.47.44-3,1.36a1.41,1.41,0,0,0,0,1.53,2.38,2.38,0,0,0,1.43.9,6.17,6.17,0,0,0,1.55.18,8.36,8.36,0,0,0,1,0h0A8.91,8.91,0,0,0,22.42,517.25Z"/></g><g id="パス_1525" data-name="パス 1525"><path class="cls-1" d="M33.29,543.89a4.9,4.9,0,0,1-2.54-.68,5.26,5.26,0,0,1-1.81-1.82,5.07,5.07,0,0,1,0-5.07,5.23,5.23,0,0,1,1.81-1.81,5.08,5.08,0,0,1,5.08,0,5.23,5.23,0,0,1,1.81,1.81,5.07,5.07,0,0,1,0,5.07,5.26,5.26,0,0,1-1.81,1.82A4.88,4.88,0,0,1,33.29,543.89Zm0-8.12a3.06,3.06,0,0,0-2.21.89,3,3,0,0,0-.92,2.2A3.14,3.14,0,0,0,33.29,542a3,3,0,0,0,2.19-.92,3.09,3.09,0,0,0-2.19-5.3Z"/><path class="cls-1" d="M33.29,543.74a4.67,4.67,0,0,0,2.46-.66,5,5,0,0,0,1.76-1.76,4.72,4.72,0,0,0,.66-2.46,4.67,4.67,0,0,0-.66-2.46,5,5,0,0,0-1.76-1.76,4.67,4.67,0,0,0-2.46-.66,4.72,4.72,0,0,0-2.46.66,5,5,0,0,0-1.76,1.76,4.67,4.67,0,0,0-.66,2.46,4.72,4.72,0,0,0,.66,2.46,5.11,5.11,0,0,0,1.76,1.76,4.72,4.72,0,0,0,2.46.66m0-8.12a3.21,3.21,0,0,1,3.24,3.24,3.19,3.19,0,0,1-.94,2.32,3.08,3.08,0,0,1-2.3,1A3.28,3.28,0,0,1,30,538.86a3.08,3.08,0,0,1,1-2.3,3.19,3.19,0,0,1,2.32-.94m0,8.42a4.94,4.94,0,0,1-2.61-.71,5.46,5.46,0,0,1-1.87-1.86,5.23,5.23,0,0,1,0-5.23,5.46,5.46,0,0,1,1.87-1.86,4.93,4.93,0,0,1,2.61-.7,5,5,0,0,1,2.62.7,5.34,5.34,0,0,1,1.86,1.86,5.23,5.23,0,0,1,0,5.23,5.34,5.34,0,0,1-1.86,1.86A5,5,0,0,1,33.29,544Zm0-8.12a2.91,2.91,0,0,0-2.11.85,2.81,2.81,0,0,0-.87,2.09A3,3,0,0,0,35.38,541a2.91,2.91,0,0,0,.85-2.11,2.9,2.9,0,0,0-2.94-2.94Z"/></g></g></g></svg>