<svg xmlns="http://www.w3.org/2000/svg" width="31.046" height="31.046" viewBox="0 0 31.046 31.046">
  <path id="Icon_awesome-phone-alt" data-name="Icon awesome-phone-alt" d="M22.555,16.407,17.477,14.23a1.088,1.088,0,0,0-1.27.313l-2.249,2.748A16.809,16.809,0,0,1,5.922,9.256L8.67,7.007a1.086,1.086,0,0,0,.313-1.27L6.807.658A1.1,1.1,0,0,0,5.56.028L.843,1.116A1.088,1.088,0,0,0,0,2.177,21.039,21.039,0,0,0,21.041,23.218a1.088,1.088,0,0,0,1.061-.843l1.088-4.716A1.1,1.1,0,0,0,22.555,16.407Z" transform="translate(10.178 0) rotate(26)" fill="#1fbeae"/>
</svg>
